<svg width="430" height="497" viewBox="0 0 430 497" fill="none" xmlns="http://www.w3.org/2000/svg">
<path opacity="0.12" d="M416.184 0.0167595C391.144 0.0167595 395.028 27.0666 395.028 27.0666C395.028 27.0666 386.173 16.1142 375.599 21.4857C365.025 26.8571 370.375 39.0244 370.375 39.0244C370.375 39.0244 352 35.0106 352 47.245C352 59.4794 393.174 57.9375 421.618 57.9375C450.062 57.9375 483.83 56.2616 483.998 48.0997C484.175 39.9378 468.85 39.0161 468.85 39.0161C468.85 39.0161 472.49 25.7677 459.767 17.1785C447.045 8.58923 434.298 20.1868 434.298 20.1868C434.298 20.1868 435.385 0 416.175 0L416.184 0.0167595Z" fill="#24B2BC"/>
<path opacity="0.12" d="M302.64 467C287.03 467 285.96 484.288 285.96 484.288C285.96 484.288 282.987 477.118 277.203 479.995C271.42 482.871 274.658 491.13 274.658 491.13C274.658 491.13 268.782 491.356 269.006 494.294C269.22 497.232 282.987 496.995 309.116 496.995C335.245 496.995 345.03 496.975 345 492.383C344.959 487.781 332.933 486.949 332.933 486.949C332.933 486.949 333.392 473.708 323.912 471.879C314.431 470.051 312.741 477.406 312.741 477.406C312.741 477.406 311.998 467.021 302.63 467.021L302.64 467Z" fill="#24B2BC"/>
<path opacity="0.12" d="M8.82581 167.02C-21.1461 167.02 -16.497 199.667 -16.497 199.667C-16.497 199.667 -27.0961 186.448 -39.7525 192.931C-52.4089 199.414 -46.0051 214.098 -46.0051 214.098C-46.0051 214.098 -68 209.254 -68 224.02C-68 238.785 -18.7157 236.925 15.3305 236.925C49.3767 236.925 89.7965 234.902 89.9982 225.051C90.21 215.201 71.8658 214.088 71.8658 214.088C71.8658 214.088 76.2224 198.099 60.9944 187.733C45.7663 177.366 30.5081 191.363 30.5081 191.363C30.5081 191.363 31.809 167 8.81574 167L8.82581 167.02Z" fill="#24B2BC"/>
</svg>
