<svg width="1394" height="205" viewBox="0 0 1394 205" fill="none" xmlns="http://www.w3.org/2000/svg">
<g opacity="0.1">
<path d="M102.256 23.0268C62.3631 23.0268 68.5511 66.3562 68.5511 66.3562C68.5511 66.3562 54.4436 48.8124 37.5978 57.4165C20.7519 66.0206 29.2755 85.5108 29.2755 85.5108C29.2755 85.5108 0 79.0812 0 98.6787C0 118.276 65.5981 115.806 110.914 115.806C156.23 115.806 210.029 113.122 210.298 100.048C210.58 86.9739 186.163 85.4974 186.163 85.4974C186.163 85.4974 191.962 64.2757 171.693 50.5171C151.425 36.7585 131.116 55.3359 131.116 55.3359C131.116 55.3359 132.847 23 102.243 23L102.256 23.0268Z" fill="#1D87AC"/>
<path d="M1304.09 0.0222497C1270.9 0.0222497 1276.04 35.9332 1276.04 35.9332C1276.04 35.9332 1264.3 21.393 1250.29 28.5241C1236.27 35.6551 1243.36 51.8083 1243.36 51.8083C1243.36 51.8083 1219 46.4795 1219 62.7218C1219 78.964 1273.59 76.917 1311.3 76.917C1349.01 76.917 1393.77 74.6921 1394 63.8565C1394.23 53.0209 1373.91 51.7972 1373.91 51.7972C1373.91 51.7972 1378.74 34.2088 1361.87 22.8059C1345.01 11.4029 1328.11 26.7997 1328.11 26.7997C1328.11 26.7997 1329.55 0 1304.08 0L1304.09 0.0222497Z" fill="#1D87AC"/>
<path d="M475.344 3C454.767 3 453.357 25.5909 453.357 25.5909C453.357 25.5909 449.438 16.2216 441.814 19.9801C434.19 23.7385 438.458 34.5306 438.458 34.5306C438.458 34.5306 430.713 34.8259 431.008 38.6648C431.29 42.5038 449.438 42.1951 483.881 42.1951C518.325 42.1951 531.224 42.1683 531.184 36.1682C531.13 30.1547 515.278 29.0674 515.278 29.0674C515.278 29.0674 515.882 11.7652 503.385 9.37591C490.888 6.98662 488.66 16.5975 488.66 16.5975C488.66 16.5975 487.68 3.02685 475.331 3.02685L475.344 3Z" fill="#1D87AC"/>
<path d="M1006.34 165C985.767 165 984.357 187.591 984.357 187.591C984.357 187.591 980.438 178.222 972.814 181.98C965.19 185.738 969.458 196.531 969.458 196.531C969.458 196.531 961.713 196.826 962.008 200.665C962.29 204.504 980.438 204.195 1014.88 204.195C1049.32 204.195 1062.22 204.168 1062.18 198.168C1062.13 192.155 1046.28 191.067 1046.28 191.067C1046.28 191.067 1046.88 173.765 1034.38 171.376C1021.89 168.987 1019.66 178.597 1019.66 178.597C1019.66 178.597 1018.68 165.027 1006.33 165.027L1006.34 165Z" fill="#1D87AC"/>
</g>
</svg>
