<svg width="1140" height="434" viewBox="0 0 1140 434" fill="none" xmlns="http://www.w3.org/2000/svg">
<path opacity="0.1" d="M102.256 184.027C62.3631 184.027 68.5511 227.356 68.5511 227.356C68.5511 227.356 54.4436 209.812 37.5978 218.417C20.7519 227.021 29.2755 246.511 29.2755 246.511C29.2755 246.511 0 240.081 0 259.679C0 279.276 65.5981 276.806 110.914 276.806C156.23 276.806 210.029 274.122 210.298 261.048C210.58 247.974 186.163 246.497 186.163 246.497C186.163 246.497 191.962 225.276 171.693 211.517C151.425 197.759 131.116 216.336 131.116 216.336C131.116 216.336 132.847 184 102.243 184L102.256 184.027Z" fill="#24B2BC"/>
<path opacity="0.1" d="M1050.09 0.0222497C1016.9 0.0222497 1022.04 35.9332 1022.04 35.9332C1022.04 35.9332 1010.3 21.393 996.287 28.5241C982.269 35.6551 989.361 51.8083 989.361 51.8083C989.361 51.8083 965 46.4795 965 62.7218C965 78.964 1019.59 76.917 1057.3 76.917C1095.01 76.917 1139.77 74.6921 1140 63.8565C1140.23 53.0209 1119.91 51.7972 1119.91 51.7972C1119.91 51.7972 1124.74 34.2088 1107.87 22.8059C1091.01 11.4029 1074.11 26.7997 1074.11 26.7997C1074.11 26.7997 1075.55 0 1050.08 0L1050.09 0.0222497Z" fill="#24B2BC"/>
<path opacity="0.1" d="M806.344 394C785.767 394 784.357 416.591 784.357 416.591C784.357 416.591 780.438 407.222 772.814 410.98C765.19 414.738 769.458 425.531 769.458 425.531C769.458 425.531 761.713 425.826 762.008 429.665C762.29 433.504 780.438 433.195 814.881 433.195C849.325 433.195 862.224 433.168 862.184 427.168C862.13 421.155 846.278 420.067 846.278 420.067C846.278 420.067 846.882 402.765 834.385 400.376C821.888 397.987 819.66 407.597 819.66 407.597C819.66 407.597 818.68 394.027 806.331 394.027L806.344 394Z" fill="#24B2BC"/>
</svg>
