<svg width="72" height="72" viewBox="0 0 72 72" fill="none" xmlns="http://www.w3.org/2000/svg">
<circle cx="36" cy="36" r="33.5" fill="#234683" stroke="#FFC24F" stroke-width="5"/>
<path d="M31.1015 21.1356C29.704 21.145 28.4921 21.9471 27.7262 23.0362C26.9602 24.1254 26.5595 25.5281 26.5696 27.043C26.5798 28.5578 26.9993 29.9564 27.7797 31.0351C28.5602 32.1139 29.7827 32.8984 31.1802 32.8891C32.5777 32.8797 33.7896 32.0776 34.5555 30.9885C35.3215 29.8993 35.7222 28.4966 35.712 26.9817C35.7019 25.4669 35.2824 24.0683 34.502 22.9896C33.7215 21.9108 32.499 21.1263 31.1015 21.1356ZM35.712 26.9817C35.7222 28.4966 36.1417 29.8952 36.9221 30.9739C37.7026 32.0527 38.9264 32.8372 40.3226 32.8279C41.7201 32.8185 42.932 32.0164 43.6979 30.9272C44.4639 29.8381 44.8646 28.4354 44.8545 26.9205C44.8443 25.4056 44.4248 24.0071 43.6444 22.9284C42.8639 21.8496 41.6414 21.0651 40.2439 21.0744C38.8464 21.0838 37.6345 21.8859 36.8686 22.975C36.1026 24.0641 35.7019 25.4669 35.712 26.9817ZM31.119 23.7475C31.5265 23.7448 31.9771 23.9455 32.3911 24.5147C32.7998 25.0827 33.0932 25.9897 33.0999 26.9992C33.1067 28.0087 32.8254 28.9209 32.4244 29.493C32.0181 30.0677 31.5702 30.2745 31.1627 30.2772C30.7552 30.2799 30.3046 30.0792 29.8906 29.51C29.4819 28.942 29.1885 28.035 29.1818 27.0255C29.175 26.016 29.4562 25.1038 29.8573 24.5317C30.2636 23.957 30.7115 23.7502 31.119 23.7475ZM40.2614 23.6863C40.6689 23.6836 41.1195 23.8843 41.5335 24.4535C41.9422 25.0215 42.2356 25.9285 42.2423 26.938C42.2491 27.9475 41.9679 28.8597 41.5668 29.4318C41.1605 30.0065 40.7126 30.2133 40.3051 30.216C39.8976 30.2187 39.447 30.018 39.033 29.4487C38.6243 28.8808 38.3309 27.9737 38.3242 26.9643C38.3174 25.9548 38.5986 25.0426 38.9997 24.4705C39.406 23.8958 39.8539 23.689 40.2614 23.6863ZM24.6324 30.3209C23.2349 30.3303 22.023 31.1324 21.2571 32.2215C20.4911 33.3106 20.0904 34.7134 20.1005 36.2283C20.1107 37.7431 20.5302 39.1417 21.3106 40.2204C22.0911 41.2992 23.3136 42.0837 24.7111 42.0744C26.1086 42.065 27.3205 41.2629 28.0864 40.1738C28.8524 39.0846 29.2531 37.6819 29.243 36.167C29.2328 34.6522 28.8133 33.2536 28.0329 32.1749C27.2524 31.0961 26.0299 30.3116 24.6324 30.3209ZM46.8354 30.1723C45.4379 30.1816 44.226 30.9838 43.4601 32.0729C42.6941 33.162 42.2934 34.5647 42.3035 36.0796C42.3137 37.5945 42.7332 38.993 43.5136 40.0718C44.2941 41.1505 45.5166 41.9351 46.9141 41.9257C48.3116 41.9164 49.5235 41.1142 50.2894 40.0251C51.0554 38.936 51.4561 37.5333 51.446 36.0184C51.4358 34.5035 51.0163 33.105 50.2359 32.0262C49.4554 30.9475 48.2329 30.1629 46.8354 30.1723ZM24.6499 32.9328C25.0574 32.9301 25.508 33.1308 25.922 33.7C26.3307 34.268 26.6241 35.175 26.6308 36.1845C26.6376 37.194 26.3564 38.1062 25.9553 38.6783C25.549 39.253 25.1011 39.4598 24.6936 39.4625C24.2861 39.4652 23.8355 39.2645 23.4215 38.6952C23.0129 38.1286 22.7194 37.2203 22.7127 36.2108C22.7059 35.2013 22.9871 34.2891 23.3882 33.717C23.7945 33.1423 24.2424 32.9355 24.6499 32.9328ZM46.8529 32.7841C47.2604 32.7814 47.711 32.9821 48.125 33.5514C48.5337 34.1194 48.8271 35.0264 48.8338 36.0359C48.8406 37.0454 48.5594 37.9575 48.1583 38.5296C47.752 39.1044 47.3041 39.3111 46.8966 39.3138C46.4891 39.3166 46.0385 39.1159 45.6245 38.5466C45.2158 37.9786 44.9224 37.0716 44.9157 36.0621C44.9089 35.0526 45.1901 34.1405 45.5912 33.5684C45.9975 32.9936 46.4454 32.7869 46.8529 32.7841ZM35.7689 35.4704C34.0279 35.482 32.8208 36.6198 32.2306 37.6163C31.6443 38.6128 31.2841 39.4406 30.939 39.7877C30.7406 39.994 29.4834 40.4765 28.174 41.1553C27.5193 41.4953 26.8601 41.9477 26.307 42.637C25.75 43.3264 25.3776 44.2757 25.3847 45.3375C25.4015 47.8449 27.4789 49.8944 29.9865 49.8777C31.1175 49.8701 32.2958 49.4965 33.4495 49.1623C34.6083 48.8202 35.8563 48.5298 35.8563 48.5298C35.8563 48.5298 37.1081 48.8035 38.2688 49.1274C39.4281 49.4462 40.6113 49.8039 41.7423 49.7963C44.2499 49.7796 46.2997 47.7024 46.2829 45.1949C46.276 44.158 45.887 43.2125 45.3248 42.5502C44.7653 41.884 44.0938 41.4745 43.4397 41.1327C42.129 40.4493 40.8415 39.9094 40.6548 39.7226C40.3393 39.4152 39.9809 38.5648 39.3735 37.5711C38.7673 36.5734 37.519 35.4586 35.7689 35.4704ZM35.7864 38.0822C36.6484 38.0765 36.7451 38.2848 37.1373 38.9299C37.5335 39.5737 37.8334 40.6701 38.788 41.6131C39.8726 42.6768 41.2351 42.9028 42.2299 43.4237C42.728 43.6842 43.1086 43.9624 43.3377 44.2326C43.5655 44.5014 43.6677 44.7475 43.6708 45.2098C43.6781 46.3068 42.8219 47.1745 41.7248 47.1818C41.3461 47.1844 40.1243 46.9052 38.9858 46.5864C37.8474 46.2714 36.9045 45.9081 35.8388 45.9153C34.7731 45.9224 33.8352 46.2983 32.7011 46.6284C31.567 46.9625 30.349 47.258 29.9703 47.2605C28.8732 47.2679 28.0054 46.4117 27.9981 45.3148C27.9946 44.7885 28.1025 44.5174 28.3175 44.2495C28.5325 43.983 28.9304 43.7178 29.4146 43.4677C30.383 42.965 31.7348 42.76 32.831 41.6491C33.7819 40.6802 34.0616 39.5447 34.4452 38.9022C34.8223 38.2598 34.9126 38.0829 35.785 38.077L35.7864 38.0822Z" fill="#FFC24F"/>
</svg>
