<svg width="60" height="60" viewBox="0 0 60 60" fill="none" xmlns="http://www.w3.org/2000/svg">
<circle cx="30" cy="30" r="30" fill="#234683"/>
<path d="M25.1015 15.1364C23.704 15.1457 22.4921 15.9479 21.7262 17.037C20.9602 18.1261 20.5595 19.5288 20.5696 21.0437C20.5798 22.5586 20.9993 23.9571 21.7797 25.0359C22.5602 26.1146 23.7827 26.8992 25.1802 26.8898C26.5777 26.8805 27.7896 26.0783 28.5555 24.9892C29.3215 23.9001 29.7222 22.4974 29.712 20.9825C29.7019 19.4676 29.2824 18.0691 28.502 16.9903C27.7215 15.9116 26.499 15.127 25.1015 15.1364ZM29.712 20.9825C29.7222 22.4974 30.1417 23.8959 30.9221 24.9747C31.7026 26.0534 32.9264 26.838 34.3226 26.8286C35.7201 26.8193 36.932 26.0171 37.6979 24.928C38.4639 23.8389 38.8646 22.4362 38.8545 20.9213C38.8443 19.4064 38.4248 18.0079 37.6444 16.9291C36.8639 15.8504 35.6414 15.0658 34.2439 15.0752C32.8464 15.0845 31.6345 15.8867 30.8686 16.9758C30.1026 18.0649 29.7019 19.4676 29.712 20.9825ZM25.119 17.7482C25.5265 17.7455 25.9771 17.9462 26.3911 18.5155C26.7998 19.0835 27.0932 19.9905 27.0999 21C27.1067 22.0095 26.8254 22.9216 26.4244 23.4937C26.0181 24.0685 25.5702 24.2752 25.1627 24.2779C24.7552 24.2807 24.3046 24.08 23.8906 23.5107C23.4819 22.9427 23.1885 22.0357 23.1818 21.0262C23.175 20.0167 23.4562 19.1046 23.8573 18.5325C24.2636 17.9577 24.7115 17.751 25.119 17.7482ZM34.2614 17.687C34.6689 17.6843 35.1195 17.885 35.5335 18.4543C35.9422 19.0223 36.2356 19.9293 36.2423 20.9388C36.2491 21.9483 35.9679 22.8604 35.5668 23.4325C35.1605 24.0073 34.7126 24.214 34.3051 24.2167C33.8976 24.2195 33.447 24.0187 33.033 23.4495C32.6243 22.8815 32.3309 21.9745 32.3242 20.965C32.3174 19.9555 32.5986 19.0434 32.9997 18.4712C33.406 17.8965 33.8539 17.6898 34.2614 17.687ZM18.6324 24.3217C17.2349 24.331 16.023 25.1332 15.2571 26.2223C14.4911 27.3114 14.0904 28.7141 14.1005 30.229C14.1107 31.7439 14.5302 33.1424 15.3106 34.2212C16.0911 35.2999 17.3136 36.0845 18.7111 36.0751C20.1086 36.0658 21.3205 35.2636 22.0864 34.1745C22.8524 33.0854 23.2531 31.6827 23.243 30.1678C23.2328 28.6529 22.8133 27.2544 22.0329 26.1756C21.2524 25.0969 20.0299 24.3123 18.6324 24.3217ZM40.8354 24.173C39.4379 24.1824 38.226 24.9845 37.4601 26.0736C36.6941 27.1627 36.2934 28.5655 36.3035 30.0804C36.3137 31.5952 36.7332 32.9938 37.5136 34.0725C38.2941 35.1513 39.5166 35.9358 40.9141 35.9265C42.3116 35.9171 43.5235 35.115 44.2894 34.0259C45.0554 32.9367 45.4561 31.534 45.446 30.0191C45.4358 28.5043 45.0163 27.1057 44.2359 26.027C43.4554 24.9482 42.2329 24.1637 40.8354 24.173ZM18.6499 26.9335C19.0574 26.9308 19.508 27.1315 19.922 27.7008C20.3307 28.2688 20.6241 29.1758 20.6308 30.1853C20.6376 31.1948 20.3564 32.1069 19.9553 32.679C19.549 33.2538 19.1011 33.4605 18.6936 33.4632C18.2861 33.466 17.8355 33.2653 17.4215 32.696C17.0129 32.1293 16.7194 31.221 16.7127 30.2115C16.7059 29.202 16.9871 28.2899 17.3882 27.7178C17.7945 27.143 18.2424 26.9363 18.6499 26.9335ZM40.8529 26.7849C41.2604 26.7822 41.711 26.9829 42.125 27.5521C42.5337 28.1201 42.8271 29.0271 42.8338 30.0366C42.8406 31.0461 42.5594 31.9583 42.1583 32.5304C41.752 33.1051 41.3041 33.3119 40.8966 33.3146C40.4891 33.3173 40.0385 33.1166 39.6245 32.5474C39.2158 31.9794 38.9224 31.0724 38.9157 30.0629C38.9089 29.0534 39.1901 28.1412 39.5912 27.5691C39.9975 26.9944 40.4454 26.7876 40.8529 26.7849ZM29.7689 29.4711C28.0279 29.4828 26.8208 30.6205 26.2306 31.617C25.6443 32.6135 25.2841 33.4413 24.939 33.7884C24.7406 33.9948 23.4834 34.4773 22.174 35.156C21.5193 35.496 20.8601 35.9484 20.307 36.6378C19.75 37.3272 19.3776 38.2765 19.3847 39.3382C19.4015 41.8456 21.4789 43.8952 23.9865 43.8784C25.1175 43.8708 26.2958 43.4973 27.4495 43.163C28.6083 42.821 29.8563 42.5305 29.8563 42.5305C29.8563 42.5305 31.1081 42.8042 32.2688 43.1282C33.4281 43.4469 34.6113 43.8047 35.7423 43.7971C38.2499 43.7803 40.2997 41.7031 40.2829 39.1957C40.276 38.1588 39.887 37.2132 39.3248 36.5509C38.7653 35.8847 38.0938 35.4752 37.4397 35.1335C36.129 34.4501 34.8415 33.9102 34.6548 33.7234C34.3393 33.416 33.9809 32.5655 33.3735 31.5718C32.7673 30.5742 31.519 29.4594 29.7689 29.4711ZM29.7864 32.083C30.6484 32.0772 30.7451 32.2855 31.1373 32.9307C31.5335 33.5745 31.8334 34.6708 32.788 35.6139C33.8726 36.6776 35.2351 36.9035 36.2299 37.4245C36.728 37.6849 37.1086 37.9632 37.3377 38.2333C37.5655 38.5021 37.6677 38.7483 37.6708 39.2106C37.6781 40.3076 36.8219 41.1753 35.7248 41.1826C35.3461 41.1851 34.1243 40.906 32.9858 40.5871C31.8474 40.2722 30.9045 39.9089 29.8388 39.916C28.7731 39.9231 27.8352 40.299 26.7011 40.6292C25.567 40.9633 24.349 41.2588 23.9703 41.2613C22.8732 41.2686 22.0054 40.4125 21.9981 39.3155C21.9946 38.7892 22.1025 38.5181 22.3175 38.2503C22.5325 37.9837 22.9304 37.7186 23.4146 37.4685C24.383 36.9657 25.7348 36.7608 26.831 35.6499C27.7819 34.681 28.0616 33.5455 28.4452 32.903C28.8223 32.2605 28.9126 32.0836 29.785 32.0778L29.7864 32.083Z" fill="#FFC24F"/>
</svg>
