<svg width="136" height="136" viewBox="0 0 136 136" fill="none" xmlns="http://www.w3.org/2000/svg">
<rect width="136" height="136" fill="#F5F5F5"/>
<circle cx="67.6046" cy="68.0811" r="67.9385" fill="white"/>
<mask id="path-2-inside-1_0_1" fill="white">
<path d="M18.4358 30.3216C27.3282 18.9964 39.8723 11.105 53.9309 7.99177C67.9894 4.87859 82.6925 6.73632 95.5348 13.2484C108.377 19.7605 118.564 30.5241 124.36 43.7052C130.156 56.8862 131.203 71.6692 127.321 85.5352C123.44 99.4013 114.87 111.492 103.073 119.749C91.2763 128.005 76.9815 131.915 62.6246 130.813C48.2677 129.711 34.7371 123.666 24.338 113.706C13.939 103.746 7.31508 90.4891 5.59487 76.1931L10.8254 75.5638C12.4 88.6496 18.4632 100.785 27.982 109.901C37.5008 119.018 49.8861 124.552 63.0278 125.56C76.1694 126.569 89.2541 122.99 100.053 115.432C110.851 107.875 118.695 96.8074 122.248 84.1151C125.801 71.4227 124.843 57.8911 119.538 45.8258C114.232 33.7605 104.908 23.908 93.1522 17.9471C81.3969 11.9862 67.9384 10.2858 55.0699 13.1354C42.2014 15.9851 30.7191 23.2086 22.5794 33.5751L18.4358 30.3216Z"/>
</mask>
<path d="M18.4358 30.3216C27.3282 18.9964 39.8723 11.105 53.9309 7.99177C67.9894 4.87859 82.6925 6.73632 95.5348 13.2484C108.377 19.7605 118.564 30.5241 124.36 43.7052C130.156 56.8862 131.203 71.6692 127.321 85.5352C123.44 99.4013 114.87 111.492 103.073 119.749C91.2763 128.005 76.9815 131.915 62.6246 130.813C48.2677 129.711 34.7371 123.666 24.338 113.706C13.939 103.746 7.31508 90.4891 5.59487 76.1931L10.8254 75.5638C12.4 88.6496 18.4632 100.785 27.982 109.901C37.5008 119.018 49.8861 124.552 63.0278 125.56C76.1694 126.569 89.2541 122.99 100.053 115.432C110.851 107.875 118.695 96.8074 122.248 84.1151C125.801 71.4227 124.843 57.8911 119.538 45.8258C114.232 33.7605 104.908 23.908 93.1522 17.9471C81.3969 11.9862 67.9384 10.2858 55.0699 13.1354C42.2014 15.9851 30.7191 23.2086 22.5794 33.5751L18.4358 30.3216Z" stroke="#FFC24F" stroke-width="8" mask="url(#path-2-inside-1_0_1)"/>
<path d="M80.6047 72.334C80.8951 72.334 81.177 72.3426 81.4589 72.3767V54.3959H56.6877C55.2783 54.3959 54.1252 53.2427 54.1252 51.8333V49.2708C54.1252 48.8095 53.7323 48.4166 53.271 48.4166C51.8616 48.4166 50.7084 47.2634 50.7084 45.854C49.6749 46.6314 49.0001 47.8784 49.0001 49.2708V86.0011C49.0001 86.3427 49.1965 86.6417 49.504 86.7784L53.3478 88.4868C53.4589 88.538 53.5785 88.5636 53.6981 88.5636C53.8176 88.5636 53.9287 88.538 54.0397 88.4868L57.5419 86.9321L61.0355 88.4868C61.2576 88.5893 61.5053 88.5893 61.7274 88.4868L65.221 86.9321L68.7146 88.4868C68.9367 88.5893 69.1929 88.5893 69.415 88.4868L70.4827 88.0084C69.8335 86.5905 69.5004 85.0359 69.5004 83.4385C69.5004 77.3141 74.4805 72.334 80.6047 72.334ZM69.5005 65.8766C69.5005 66.6113 69.0051 67.2092 68.3901 67.2092C67.7751 67.2092 67.2797 66.6112 67.2797 65.8766C67.2797 65.1335 67.7751 64.5356 68.3901 64.5356C69.0051 64.5356 69.5005 65.1335 69.5005 65.8766ZM67.6299 58.7786C68.0399 59.0177 68.1765 59.5388 67.9459 59.9488L63.9995 66.7823C63.8372 67.0556 63.5554 67.2094 63.2564 67.2094C63.1112 67.2094 62.966 67.1752 62.8293 67.0983C62.4193 66.8591 62.2826 66.3381 62.5132 65.9281L66.4596 59.0946C66.6988 58.6846 67.2198 58.5479 67.6299 58.7786ZM62.069 58.6675C62.684 58.6675 63.1795 59.2655 63.1795 60C63.1795 60.7432 62.684 61.3326 62.069 61.3326C61.454 61.3326 60.9586 60.7432 60.9586 60C60.9586 59.2654 61.454 58.6675 62.069 58.6675ZM58.396 72.3345C57.9262 72.3345 57.5418 71.9501 57.5418 71.4803C57.5418 71.0105 57.9262 70.6261 58.396 70.6261H72.063C72.5328 70.6261 72.9172 71.0105 72.9172 71.4803C72.9172 71.9501 72.5328 72.3345 72.063 72.3345H58.396Z" fill="#234683"/>
<path d="M53.2704 46.7084C54.6797 46.7084 55.8329 47.8615 55.8329 49.2709V51.8335C55.8329 52.3033 56.2173 52.6877 56.6871 52.6877H84.0211C84.4909 52.6877 84.8753 52.3033 84.8753 51.8335V49.2709C84.8753 46.9134 82.9619 45 80.6043 45H53.2704C52.8005 45 52.4162 45.3844 52.4162 45.8542C52.4162 46.324 52.8005 46.7084 53.2704 46.7084Z" fill="#234683"/>
<path d="M87.2663 76.8696C85.5665 75.0758 83.1321 74.0422 80.6034 74.0422C75.4185 74.0422 71.2071 78.2534 71.2071 83.4386C71.2071 85.9499 72.1808 88.3074 73.9575 90.084C75.7343 91.8606 78.0918 92.8345 80.603 92.8345C85.7879 92.8345 89.9993 88.6233 89.9993 83.4381C89.9993 80.9012 89.017 78.5607 87.2659 76.8692L87.2663 76.8696ZM79.9633 82.584H81.2446C82.7736 82.584 84.0207 83.8311 84.0207 85.3601C84.0207 86.8208 82.8846 87.9996 81.4581 88.1106V88.5633C81.4581 89.0331 81.0737 89.4175 80.6039 89.4175C80.1341 89.4175 79.7497 89.0331 79.7497 88.5633V88.1362H78.0413C77.5715 88.1362 77.1872 87.7518 77.1872 87.282C77.1872 86.8122 77.5715 86.4278 78.0413 86.4278H81.2446C81.8339 86.4278 82.3123 85.9495 82.3123 85.3601C82.3123 84.7708 81.8339 84.2924 81.2446 84.2924H79.9633C78.4342 84.2924 77.1872 83.0453 77.1872 81.5163C77.1872 80.0556 78.3232 78.8769 79.7497 78.7659V78.3131C79.7497 77.8433 80.1341 77.459 80.6039 77.459C81.0737 77.459 81.4581 77.8433 81.4581 78.3131V78.7402H83.1665C83.6363 78.7402 84.0207 79.1246 84.0207 79.5944C84.0207 80.0642 83.6363 80.4486 83.1665 80.4486H79.9633C79.3739 80.4486 78.8955 80.927 78.8955 81.5163C78.8955 82.1057 79.3739 82.584 79.9633 82.584Z" fill="#234683"/>
</svg>
