<svg width="136" height="137" viewBox="0 0 136 137" fill="none" xmlns="http://www.w3.org/2000/svg">
<circle cx="67.9385" cy="68.0811" r="67.9385" fill="white"/>
<mask id="path-2-inside-1_1_402" fill="white">
<path d="M131.628 66.8504C131.628 81.2495 126.636 95.2031 117.501 106.334C108.366 117.464 95.6549 125.083 81.5324 127.893C67.41 130.702 52.7505 128.527 40.0516 121.739C27.3527 114.952 17.4002 103.971 11.8899 90.6678C6.37964 77.3648 5.65245 62.5627 9.83229 48.7836C14.0121 35.0045 22.8404 23.101 34.8128 15.1013C46.7852 7.1016 61.161 3.50064 75.4908 4.912C89.8205 6.32335 103.218 12.6597 113.399 22.8414L109.727 26.5134C100.395 17.1812 88.1159 11.3735 74.9818 10.0799C61.8476 8.78635 48.6713 12.0869 37.6978 19.4191C26.7244 26.7513 18.6327 37.6616 14.8016 50.291C10.9706 62.9204 11.6371 76.4875 16.6876 88.6806C21.7381 100.874 30.8602 110.938 42.4995 117.16C54.1388 123.381 67.5752 125.374 80.5193 122.799C93.4634 120.225 105.114 113.241 113.487 103.039C121.859 92.8374 126.435 80.048 126.435 66.8504H131.628Z"/>
</mask>
<path d="M131.628 66.8504C131.628 81.2495 126.636 95.2031 117.501 106.334C108.366 117.464 95.6549 125.083 81.5324 127.893C67.41 130.702 52.7505 128.527 40.0516 121.739C27.3527 114.952 17.4002 103.971 11.8899 90.6678C6.37964 77.3648 5.65245 62.5627 9.83229 48.7836C14.0121 35.0045 22.8404 23.101 34.8128 15.1013C46.7852 7.1016 61.161 3.50064 75.4908 4.912C89.8205 6.32335 103.218 12.6597 113.399 22.8414L109.727 26.5134C100.395 17.1812 88.1159 11.3735 74.9818 10.0799C61.8476 8.78635 48.6713 12.0869 37.6978 19.4191C26.7244 26.7513 18.6327 37.6616 14.8016 50.291C10.9706 62.9204 11.6371 76.4875 16.6876 88.6806C21.7381 100.874 30.8602 110.938 42.4995 117.16C54.1388 123.381 67.5752 125.374 80.5193 122.799C93.4634 120.225 105.114 113.241 113.487 103.039C121.859 92.8374 126.435 80.048 126.435 66.8504H131.628Z" stroke="#FFC24F" stroke-width="8" mask="url(#path-2-inside-1_1_402)"/>
<path fill-rule="evenodd" clip-rule="evenodd" d="M64.1002 49.7421L60.593 54.5514C58.8558 56.9727 59.3803 61.2513 61.773 62.9761L68.263 67.6527C69.3774 68.4488 69.4758 69.2448 68.9513 70.1072L69.9019 70.8037L73.1796 66.2597C75.2118 63.4404 75.0152 59.6261 72.0324 57.437L65.4769 52.6608C64.6902 52.097 64.6247 51.3009 65.0508 50.4054L64.1002 49.7421ZM69.738 28.4482L64.2969 35.9774C61.7403 39.4932 62.658 45.5297 66.1652 48.1168L75.1135 54.6841C76.9163 56.0108 77.1785 59.3939 75.8346 61.1518L76.5885 61.7157L82.7835 53.0257C85.5696 49.1119 85.4057 43.3738 81.0463 40.1897L71.4752 33.2244C70.1313 32.2626 69.4758 30.6042 70.5902 29.0121L69.738 28.4482ZM55.3814 75.6794H62.5925L63.8708 80.0575H75.6707L76.9491 75.6794H84.1601L83.2096 72.4621H56.2992L55.3814 75.6794ZM55.9059 95.6465H51.5792V92.0312H55.9059C59.0853 92.0312 58.8886 95.6465 55.9059 95.6465ZM70.7213 95.6465H66.3947V92.0312H70.7213C73.9007 92.0312 73.7369 95.6465 70.7213 95.6465ZM85.5696 95.6465H81.2429V92.0312H85.5696C88.749 92.0312 88.5523 95.6465 85.5696 95.6465ZM55.6109 89.1787H51.5792V85.7956H55.447C57.9053 85.7956 57.9708 89.1787 55.6109 89.1787ZM70.4263 89.1787H66.3947V85.7956H70.2624C72.7207 85.7956 72.7863 89.1787 70.4263 89.1787ZM85.2746 89.1787H81.2429V85.7956H85.1107C87.5362 85.7956 87.6345 89.1787 85.2746 89.1787ZM61.5764 93.6232C61.2814 91.5336 60.4292 91.0361 58.7575 90.3064C60.0358 89.5767 60.7897 88.4822 60.7897 86.9896C60.7897 84.0045 58.3314 82.7773 55.6764 82.7773H48.2031V98.6316H55.6109C58.7575 98.6316 62.1008 97.2717 61.5764 93.6232ZM76.3918 93.6232C76.0968 91.5336 75.2446 91.0361 73.573 90.3064C74.8513 89.5767 75.6052 88.4822 75.6052 86.9896C75.6052 84.0045 73.1469 82.7773 70.4919 82.7773H63.0186V98.6316H70.4263C73.573 98.6316 76.9163 97.2717 76.3918 93.6232ZM91.2073 93.6232C90.9123 91.5336 90.0601 91.0361 88.3884 90.3064C89.6668 89.5767 90.4206 88.4822 90.4206 86.9896C90.4206 84.0045 87.9623 82.7773 85.3073 82.7773H77.8668V98.6316H85.2746C88.4212 98.6316 91.7645 97.2717 91.2073 93.6232ZM92.6495 98.1341C92.6495 98.0677 92.6495 98.0014 92.6167 97.9682C92.584 97.9351 92.584 97.8687 92.5184 97.8355C92.4856 97.8024 92.4201 97.736 92.3545 97.7029C92.289 97.6697 92.1906 97.6365 92.0923 97.6034C91.994 97.5702 91.9284 97.537 91.8629 97.5039C91.7973 97.4707 91.7645 97.4375 91.7317 97.4044C91.699 97.3712 91.6662 97.338 91.6662 97.3049C91.6662 97.2717 91.6334 97.2385 91.6334 97.2054C91.6334 97.1722 91.6334 97.139 91.6662 97.1059C91.6662 97.0727 91.699 97.0395 91.7317 97.0063C91.7645 96.9732 91.7973 96.9732 91.8301 96.94C91.8629 96.94 91.9284 96.9069 91.994 96.9069C92.0923 96.9069 92.1578 96.94 92.2234 96.94C92.289 96.9732 92.3545 97.0064 92.4201 97.0727L92.5512 96.9069C92.4856 96.8405 92.3873 96.8073 92.3217 96.7742C92.2234 96.741 92.1251 96.741 91.994 96.741C91.8956 96.741 91.8301 96.741 91.7645 96.7742C91.699 96.8073 91.6334 96.8073 91.5678 96.8737C91.5351 96.9068 91.4695 96.9732 91.4367 97.0063C91.404 97.0727 91.404 97.139 91.404 97.2054C91.404 97.2717 91.404 97.338 91.4367 97.3712C91.4695 97.4044 91.4695 97.4707 91.5351 97.5039C91.5679 97.537 91.6334 97.5702 91.699 97.6034C91.7645 97.6365 91.8629 97.6697 91.9612 97.7029C92.0595 97.736 92.1251 97.7692 92.1579 97.8024C92.2234 97.8355 92.2562 97.8687 92.289 97.9019C92.3217 97.9351 92.3545 97.9682 92.3545 98.0014C92.3545 98.0346 92.3873 98.0677 92.3873 98.1009C92.3873 98.2004 92.3545 98.2667 92.289 98.3331C92.2234 98.3662 92.1251 98.3994 91.994 98.3994C91.8956 98.3994 91.7973 98.3662 91.7317 98.3331C91.6334 98.2999 91.5679 98.2336 91.5023 98.1672L91.3712 98.2999C91.4367 98.3662 91.5351 98.4326 91.6334 98.4657C91.7317 98.4989 91.8629 98.5321 91.994 98.5321C92.0923 98.5321 92.1906 98.5321 92.2562 98.4989C92.3217 98.4657 92.3873 98.4326 92.4528 98.3994C92.5184 98.3662 92.5512 98.2999 92.584 98.2336C92.6495 98.2667 92.6495 98.2004 92.6495 98.1341ZM94.5506 98.5984V96.8073H94.3212L93.8951 97.8687C93.8951 97.9019 93.8623 97.9351 93.8623 97.9682L93.8295 98.0677L93.7967 98.1672L93.764 98.2336L93.7312 98.1672L93.6984 98.0677L93.6656 97.9682L93.6328 97.8687L93.2067 96.8073H92.9773V98.5984H93.174V97.2054L93.2067 97.2717L93.2395 97.338C93.2395 97.3712 93.2723 97.3712 93.2723 97.4044C93.2723 97.4375 93.3051 97.4707 93.3051 97.4707L93.7967 98.6316L94.2884 97.4707L94.3212 97.4044L94.3539 97.338C94.3539 97.3049 94.3867 97.2717 94.3867 97.2717L94.4195 97.2054V98.5984H94.5506Z" fill="#234683"/>
</svg>
