<svg width="136" height="137" viewBox="0 0 136 137" fill="none" xmlns="http://www.w3.org/2000/svg">
<circle cx="67.9385" cy="68.0811" r="67.9385" fill="white"/>
<mask id="path-2-inside-1_1_409" fill="white">
<path d="M131.628 66.8504C131.628 81.2495 126.636 95.2031 117.501 106.334C108.366 117.464 95.6549 125.083 81.5324 127.893C67.41 130.702 52.7505 128.527 40.0516 121.739C27.3527 114.952 17.4002 103.971 11.8899 90.6678C6.37964 77.3648 5.65245 62.5627 9.83229 48.7836C14.0121 35.0045 22.8404 23.101 34.8128 15.1013C46.7852 7.1016 61.161 3.50064 75.4908 4.912C89.8205 6.32335 103.218 12.6597 113.399 22.8414L109.727 26.5134C100.395 17.1812 88.1159 11.3735 74.9818 10.0799C61.8476 8.78635 48.6713 12.0869 37.6978 19.4191C26.7244 26.7513 18.6327 37.6616 14.8016 50.291C10.9706 62.9204 11.6371 76.4875 16.6876 88.6806C21.7381 100.874 30.8602 110.938 42.4995 117.16C54.1388 123.381 67.5752 125.374 80.5193 122.799C93.4634 120.225 105.114 113.241 113.487 103.039C121.859 92.8374 126.435 80.048 126.435 66.8504H131.628Z"/>
</mask>
<path d="M131.628 66.8504C131.628 81.2495 126.636 95.2031 117.501 106.334C108.366 117.464 95.6549 125.083 81.5324 127.893C67.41 130.702 52.7505 128.527 40.0516 121.739C27.3527 114.952 17.4002 103.971 11.8899 90.6678C6.37964 77.3648 5.65245 62.5627 9.83229 48.7836C14.0121 35.0045 22.8404 23.101 34.8128 15.1013C46.7852 7.1016 61.161 3.50064 75.4908 4.912C89.8205 6.32335 103.218 12.6597 113.399 22.8414L109.727 26.5134C100.395 17.1812 88.1159 11.3735 74.9818 10.0799C61.8476 8.78635 48.6713 12.0869 37.6978 19.4191C26.7244 26.7513 18.6327 37.6616 14.8016 50.291C10.9706 62.9204 11.6371 76.4875 16.6876 88.6806C21.7381 100.874 30.8602 110.938 42.4995 117.16C54.1388 123.381 67.5752 125.374 80.5193 122.799C93.4634 120.225 105.114 113.241 113.487 103.039C121.859 92.8374 126.435 80.048 126.435 66.8504H131.628Z" stroke="#FFC24F" stroke-width="8" mask="url(#path-2-inside-1_1_409)"/>
<path d="M68.193 60.8371C67.0842 61.2805 66.9754 61.2161 66.851 61.0438C66.6373 60.7467 66.7897 60.3794 67.2692 60.0361C67.5545 59.832 68.2509 59.4009 68.5558 59.8229L70.1428 58.6844C69.5467 57.8568 68.4301 57.3932 67.0946 57.9173L66.4731 57.0512L64.8836 58.1864L65.4881 59.029C64.5526 60.092 64.6653 61.3475 65.2627 62.1803C66.3428 63.6802 67.9565 63.0333 68.9206 62.6471C70.1147 62.1693 70.2854 62.2245 70.4984 62.5216C70.6346 62.7102 70.6183 62.8058 70.6131 62.8415C70.5994 62.9228 70.5076 63.2225 69.8828 63.6698C69.7063 63.7966 69.1043 64.1769 68.791 63.742L67.2047 64.8817C67.6855 65.5481 68.4021 65.8901 69.178 65.8901C69.533 65.8901 69.8991 65.8095 70.262 65.6645L70.8027 66.4174L72.3916 65.2809L71.8391 64.5124C72.217 64.084 72.4639 63.6328 72.5421 63.1575C72.6417 62.5496 72.4841 61.9359 72.086 61.3832C70.9089 59.75 69.2092 60.4314 68.193 60.8371Z" fill="#234683"/>
<path d="M89.9378 70.8046L77.2579 76.3003L81.7549 78.2202C78.1354 84.071 71.3082 87.8373 64.337 87.4934C54.5053 87.3256 45.7022 79.1136 44.7243 69.1877C43.3472 59.0225 50.3738 48.5336 60.4276 45.6788L60.2166 43.6399C52.9463 45.0475 46.7191 49.7084 43.112 56.444C39.3916 63.3915 38.9877 71.4378 42.0045 78.5187C45.0566 85.9005 51.2767 91.4743 59.0726 93.8155C67.047 96.21 75.5368 94.9383 82.3653 90.3255C85.6141 88.1409 88.403 85.253 90.5091 81.9593L94.7104 83.7531L89.9378 70.8046Z" fill="#234683"/>
<path d="M95.8315 50.7532C95.5397 50.3436 94.9703 50.248 94.5599 50.538C93.4772 51.3052 90.5404 53.3733 89.9547 53.727C89.3241 54.0924 84.0233 55.5871 77.3498 57.2821C76.3029 57.5486 74.9238 57.6507 74.3029 56.6254C74.0261 56.1696 73.944 55.6326 74.0717 55.1144C74.1961 54.6093 74.5055 54.1808 74.944 53.9045L76.7159 53.0567L82.9015 50.3235C83.362 50.12 83.5699 49.5823 83.366 49.1226C83.162 48.663 82.6246 48.4562 82.1627 48.6591L80.6487 49.3281L76.8664 44.0683L71.159 48.1558C72.1017 45.0767 73.0619 43.2257 73.7355 43.0456C75.1016 42.6803 86.5431 42.112 93.9 41.8195C94.4029 41.7993 94.795 41.376 94.7749 40.8735C94.7547 40.3709 94.3508 39.9873 93.827 40.0003C91.9345 40.0751 75.2651 40.7512 73.2645 41.2863C71.2887 41.8155 69.7942 45.8127 68.7688 49.8684L48.7243 64.225L59.9045 79.7689L88.046 59.6122L86.0649 56.8569C88.4154 56.1969 90.3964 55.5884 90.8987 55.2848C91.6616 54.8238 95.455 52.1361 95.6159 52.0223C96.0263 51.731 96.1234 51.1628 95.8315 50.7532ZM73.0144 66.325C70.4724 68.7137 66.4712 68.5928 64.0797 66.0546C61.6856 63.5157 61.8081 59.5238 64.3481 57.1351C66.8927 54.7471 70.8919 54.868 73.2873 57.4056C75.6782 59.9438 75.557 63.937 73.0144 66.325Z" fill="#234683"/>
</svg>
