<svg width="136" height="137" viewBox="0 0 136 137" fill="none" xmlns="http://www.w3.org/2000/svg">
<circle cx="67.9385" cy="68.0811" r="67.9385" fill="white"/>
<mask id="path-2-inside-1_1_426" fill="white">
<path d="M130.734 69.532C130.734 83.9311 125.741 97.8847 116.607 109.015C107.472 120.146 94.7603 127.765 80.6379 130.574C66.5155 133.383 51.8559 131.209 39.1571 124.421C26.4582 117.633 16.5057 106.653 10.9954 93.3495C5.48511 80.0464 4.75792 65.2443 8.93776 51.4652C13.1176 37.6862 21.9458 25.7827 33.9182 17.783C45.8907 9.78324 60.2665 6.18228 74.5963 7.59364C88.926 9.00499 102.323 15.3413 112.505 25.523L108.739 29.289C99.4284 19.9786 87.1778 14.1844 74.0742 12.8939C60.9707 11.6033 47.825 14.8961 36.8771 22.2112C25.9292 29.5264 17.8565 40.4113 14.0343 53.0113C10.2121 65.6112 10.8771 79.1467 15.9159 91.3113C20.9546 103.476 30.0554 113.517 41.6676 119.724C53.2798 125.931 66.6849 127.919 79.5989 125.351C92.5128 122.782 104.137 115.815 112.49 105.637C120.843 95.4585 125.408 82.6989 125.408 69.532H130.734Z"/>
</mask>
<path d="M130.734 69.532C130.734 83.9311 125.741 97.8847 116.607 109.015C107.472 120.146 94.7603 127.765 80.6379 130.574C66.5155 133.383 51.8559 131.209 39.1571 124.421C26.4582 117.633 16.5057 106.653 10.9954 93.3495C5.48511 80.0464 4.75792 65.2443 8.93776 51.4652C13.1176 37.6862 21.9458 25.7827 33.9182 17.783C45.8907 9.78324 60.2665 6.18228 74.5963 7.59364C88.926 9.00499 102.323 15.3413 112.505 25.523L108.739 29.289C99.4284 19.9786 87.1778 14.1844 74.0742 12.8939C60.9707 11.6033 47.825 14.8961 36.8771 22.2112C25.9292 29.5264 17.8565 40.4113 14.0343 53.0113C10.2121 65.6112 10.8771 79.1467 15.9159 91.3113C20.9546 103.476 30.0554 113.517 41.6676 119.724C53.2798 125.931 66.6849 127.919 79.5989 125.351C92.5128 122.782 104.137 115.815 112.49 105.637C120.843 95.4585 125.408 82.6989 125.408 69.532H130.734Z" stroke="#FFC24F" stroke-width="8" mask="url(#path-2-inside-1_1_426)"/>
<path d="M57.1699 54.2978H67.3398C68.7381 54.2978 69.8822 53.106 69.8822 51.6494C69.8822 50.1928 68.7381 49.001 67.3398 49.001H57.1699C55.7715 49.001 54.6274 50.1928 54.6274 51.6494C54.6274 53.106 55.7715 54.2978 57.1699 54.2978ZM59.7123 50.7666H64.7973C65.2634 50.7666 65.6448 51.1639 65.6448 51.6494C65.6448 52.135 65.2634 52.5322 64.7973 52.5322H59.7123C59.2462 52.5322 58.8648 52.135 58.8648 51.6494C58.8648 51.1639 59.2462 50.7666 59.7123 50.7666ZM80.0522 66.6572H86.8321V82.5477C86.8321 85.5846 85.866 88.5949 84.1201 91.0227C83.9591 91.2434 83.7049 91.3758 83.4421 91.3758C83.1794 91.3758 82.9252 91.2434 82.7641 91.0227C81.0183 88.595 80.0522 85.5846 80.0522 82.5477V66.6572ZM74.9672 50.7666H71.4925C71.5518 51.0491 71.5773 51.3492 71.5773 51.6494C71.5773 54.086 69.6789 56.0635 67.3398 56.0635H57.1699C54.8308 56.0635 52.9324 54.086 52.9324 51.6494C52.9324 51.3492 52.9578 51.0491 53.0172 50.7666H49.5425C48.1441 50.7666 47 51.9584 47 53.415V88.7274C47 90.184 48.1441 91.3758 49.5425 91.3758H74.9673C76.3656 91.3758 77.5097 90.184 77.5097 88.7274V53.415C77.5097 51.9584 76.3655 50.7666 74.9672 50.7666ZM59.1108 61.6162C59.4413 61.272 59.9753 61.272 60.3058 61.6162L61.399 62.7551L65.0348 58.9678C65.3653 58.6235 65.8992 58.6235 66.2297 58.9678C66.5602 59.3121 66.5602 59.8683 66.2297 60.2126L61.9922 64.6266C61.8227 64.8032 61.6109 64.8826 61.3905 64.8826C61.1701 64.8826 60.9583 64.7943 60.7888 64.6266L59.0938 62.861C58.7633 62.5167 58.7633 61.9605 59.0938 61.6162H59.1108ZM73.2722 86.9615H51.2374C50.7713 86.9615 50.3899 86.5642 50.3899 86.0787C50.3899 85.5931 50.7713 85.1959 51.2374 85.1959H73.2722C73.7383 85.1959 74.1197 85.5931 74.1197 86.0787C74.1197 86.5642 73.7383 86.9615 73.2722 86.9615ZM73.2722 81.6646H51.2374C50.7713 81.6646 50.3899 81.2674 50.3899 80.7818C50.3899 80.2963 50.7713 79.899 51.2374 79.899H73.2722C73.7383 79.899 74.1197 80.2963 74.1197 80.7818C74.1197 81.2674 73.7383 81.6646 73.2722 81.6646ZM73.2722 75.4847H51.2374C50.7713 75.4847 50.3899 75.0874 50.3899 74.6019C50.3899 74.1163 50.7713 73.7191 51.2374 73.7191H73.2722C73.7383 73.7191 74.1197 74.1163 74.1197 74.6019C74.1197 75.0874 73.7383 75.4847 73.2722 75.4847ZM73.2722 70.1878H51.2374C50.7713 70.1878 50.3899 69.7906 50.3899 69.305C50.3899 68.8195 50.7713 68.4222 51.2374 68.4222H73.2722C73.7383 68.4222 74.1197 68.8195 74.1197 69.305C74.1197 69.7906 73.7383 70.1878 73.2722 70.1878ZM89.3748 64.0079V74.6016C89.3748 75.0871 88.9935 75.4844 88.5274 75.4844C88.0612 75.4844 87.6799 75.0871 87.6799 74.6016V64.8904H80.0527V61.3592C80.0527 59.4082 81.5697 57.8279 83.4427 57.8279C85.3156 57.8279 86.8326 59.4082 86.8326 61.3592V63.1248H88.5276C88.9937 63.1248 89.3748 63.5223 89.3748 64.0079Z" fill="#234683"/>
</svg>
