<svg width="59" height="67" viewBox="0 0 59 67" fill="none" xmlns="http://www.w3.org/2000/svg">
<rect opacity="0.25" width="59" height="67" rx="8" fill="#FFC24F"/>
<path fill-rule="evenodd" clip-rule="evenodd" d="M30.6149 17.4538C30.3242 17.1632 29.9301 17 29.519 17C29.108 17 28.7139 17.1632 28.4232 17.4538L17.5732 28.3039L14.4732 31.404C14.3252 31.547 14.2071 31.718 14.1258 31.9071C14.0446 32.0962 14.0018 32.2996 14.0001 32.5054C13.9983 32.7112 14.0375 32.9153 14.1154 33.1058C14.1934 33.2963 14.3085 33.4694 14.454 33.6149C14.5995 33.7604 14.7726 33.8755 14.9631 33.9535C15.1536 34.0314 15.3577 34.0706 15.5635 34.0688C15.7693 34.0671 15.9727 34.0243 16.1618 33.9431C16.3509 33.8618 16.5219 33.7437 16.6649 33.5957L17.119 33.1415V43.3499C17.119 44.5832 17.609 45.766 18.481 46.638C19.353 47.5101 20.5358 48 21.769 48H37.269C38.5023 48 39.6851 47.5101 40.5571 46.638C41.4291 45.766 41.919 44.5832 41.919 43.3499V33.1415L42.3732 33.5957C42.6655 33.878 43.0571 34.0343 43.4635 34.0307C43.8699 34.0272 44.2586 33.8642 44.546 33.5768C44.8334 33.2894 44.9964 32.9007 44.9999 32.4943C45.0035 32.0878 44.8472 31.6963 44.5649 31.404L30.6149 17.4538Z" fill="#FFC24F"/>
<path d="M36.8256 33.211C36.6521 32.7988 36.3639 32.5017 35.992 32.352L35.987 32.3501C35.8177 32.2839 35.6375 32.25 35.4557 32.2502H35.4357C34.5843 32.263 33.7151 32.9863 33.2732 34.0502C32.9491 34.8282 32.9119 35.665 33.1738 36.2886C33.347 36.7011 33.6357 36.9982 34.0092 37.1479L34.0133 37.1494C34.1826 37.2157 34.3628 37.2496 34.5446 37.2494C35.4041 37.2494 36.2824 36.5261 36.7324 35.4481C37.0525 34.6711 37.0878 33.8349 36.8256 33.211ZM33.4238 37.7997C32.9328 37.5047 32.4687 37.2257 32.1655 36.7245C31.3292 35.3372 30.8241 34.4998 29.4999 34.4998C28.1756 34.4998 27.6693 35.3372 26.8311 36.7245C26.5273 37.2263 26.0622 37.5056 25.5696 37.8019C25.0049 38.1412 24.4214 38.4918 24.1694 39.1817C24.0715 39.4304 24.0222 39.6955 24.0241 39.9628C24.0241 41.0861 24.8992 42 25.9744 42C26.5291 42 27.1195 41.8078 27.7443 41.6044C28.345 41.4088 28.966 41.2067 29.503 41.2067C30.0399 41.2067 30.6594 41.4088 31.2579 41.6044C31.8814 41.8066 32.469 41.9987 33.0254 41.9987C34.0989 41.9987 34.9725 41.0848 34.9725 39.9615C34.9734 39.6941 34.923 39.4289 34.824 39.1804C34.5721 38.4899 33.9883 38.139 33.4238 37.7997ZM26.1869 33.4016C26.5588 33.868 27.0308 34.1249 27.5158 34.1249C27.5821 34.1249 27.6482 34.12 27.7137 34.1102C28.7254 33.9615 29.3558 32.7273 29.1489 31.2981C29.0623 30.6973 28.831 30.1376 28.4997 29.7227C28.1284 29.2572 27.6559 29.0006 27.1711 29.0006C27.1049 29.0006 27.0388 29.0055 26.9733 29.0153C25.9616 29.164 25.3312 30.3982 25.5381 31.8274C25.6243 32.4273 25.8556 32.9863 26.1869 33.4016ZM31.2864 34.1102C31.3519 34.12 31.418 34.1249 31.4842 34.1249C31.9696 34.1249 32.4412 33.868 32.8131 33.4016C33.1441 32.9863 33.3742 32.4273 33.4617 31.8268C33.6686 30.3982 33.0382 29.164 32.0265 29.0147C31.961 29.0049 31.8948 29 31.8286 29C31.3439 29.0006 30.8713 29.2572 30.5 29.7227C30.1687 30.1376 29.9374 30.6973 29.8512 31.2987C29.6443 32.7273 30.2747 33.9615 31.2864 34.1102ZM24.9864 37.1494L24.9908 37.1479C25.3637 36.9982 25.6521 36.7014 25.825 36.2893C26.0869 35.6644 26.05 34.8285 25.7265 34.0505C25.2787 32.9738 24.4007 32.2502 23.5422 32.2502C23.3604 32.2499 23.1801 32.2838 23.0108 32.3501L23.0065 32.3517C22.6345 32.5001 22.3461 32.7982 22.1732 33.2103C21.9113 33.8352 21.9482 34.6711 22.2717 35.4491C22.7196 36.5258 23.5975 37.2494 24.456 37.2494C24.6375 37.2496 24.8174 37.2157 24.9864 37.1494Z" fill="#FFF0D3"/>
</svg>
