<svg width="144" height="22" viewBox="0 0 144 22" fill="none" xmlns="http://www.w3.org/2000/svg">
<g opacity="0.6">
<path opacity="0.2" d="M8.36672 0.102005C7.3135 0.109056 6.40012 0.71361 5.82287 1.53442C5.24562 2.35524 4.94361 3.4124 4.95125 4.55411C4.9589 5.69581 5.27504 6.74982 5.86323 7.56283C6.45142 8.37584 7.3728 8.96713 8.42602 8.96008C9.47925 8.95303 10.3926 8.34847 10.9699 7.52766C11.5471 6.70685 11.8491 5.64968 11.8415 4.50798C11.8338 3.36627 11.5177 2.31226 10.9295 1.49925C10.3413 0.686239 9.41994 0.0949535 8.36672 0.102005ZM11.8415 4.50798C11.8491 5.64968 12.1653 6.70369 12.7535 7.5167C13.3417 8.32971 14.264 8.92099 15.3163 8.91395C16.3695 8.9069 17.2829 8.30234 17.8601 7.48153C18.4374 6.66072 18.7394 5.60355 18.7317 4.46185C18.7241 3.32014 18.4079 2.26613 17.8198 1.45312C17.2316 0.640109 16.3102 0.0488233 15.257 0.0558746C14.2037 0.062926 13.2904 0.66748 12.7131 1.48829C12.1359 2.3091 11.8338 3.36627 11.8415 4.50798ZM8.3799 2.07047C8.687 2.06841 9.02664 2.21968 9.3386 2.64871C9.64662 3.07677 9.86776 3.76035 9.87285 4.52116C9.87794 5.28197 9.66599 5.96942 9.36372 6.40059C9.05753 6.83375 8.71995 6.98956 8.41284 6.99162C8.10574 6.99367 7.7661 6.8424 7.45414 6.41338C7.14612 5.98531 6.92498 5.30174 6.91989 4.54093C6.9148 3.78012 7.12675 3.09266 7.42902 2.66149C7.73521 2.22833 8.07279 2.07252 8.3799 2.07047ZM15.2701 2.02434C15.5772 2.02228 15.9169 2.17355 16.2288 2.60258C16.5369 3.03064 16.758 3.71422 16.7631 4.47503C16.7682 5.23584 16.5562 5.92329 16.254 6.35446C15.9478 6.78762 15.6102 6.94343 15.3031 6.94549C14.996 6.94754 14.6563 6.79627 14.3444 6.36725C14.0364 5.93918 13.8152 5.25561 13.8101 4.4948C13.805 3.73399 14.017 3.04653 14.3193 2.61536C14.6255 2.1822 14.963 2.02639 15.2701 2.02434ZM3.49125 7.02457C2.43802 7.03162 1.52464 7.63617 0.947395 8.45698C0.370147 9.2778 0.0681347 10.335 0.0757784 11.4767C0.0834221 12.6184 0.399569 13.6724 0.987756 14.4854C1.57594 15.2984 2.49733 15.8897 3.55055 15.8826C4.60377 15.8756 5.51715 15.271 6.0944 14.4502C6.67165 13.6294 6.97366 12.5722 6.96602 11.4305C6.95837 10.2888 6.64223 9.23482 6.05404 8.42181C5.46585 7.6088 4.54447 7.01752 3.49125 7.02457ZM20.2247 6.91254C19.1715 6.91959 18.2581 7.52414 17.6808 8.34495C17.1036 9.16577 16.8016 10.2229 16.8092 11.3646C16.8169 12.5063 17.133 13.5604 17.7212 14.3734C18.3094 15.1864 19.2308 15.7777 20.284 15.7706C21.3372 15.7636 22.2506 15.159 22.8278 14.3382C23.4051 13.5174 23.7071 12.4602 23.6995 11.3185C23.6918 10.1768 23.3757 9.12279 22.7875 8.30978C22.1993 7.49677 21.2779 6.90549 20.2247 6.91254ZM3.50442 8.99303C3.81153 8.99097 4.15117 9.14224 4.46313 9.57127C4.77115 9.99933 4.99228 10.6829 4.99738 11.4437C5.00247 12.2045 4.79051 12.892 4.48825 13.3232C4.18206 13.7563 3.84448 13.9121 3.53737 13.9142C3.23026 13.9162 2.89063 13.765 2.57867 13.3359C2.27066 12.9089 2.04951 12.2243 2.04442 11.4635C2.03932 10.7027 2.25128 10.0152 2.55355 9.58405C2.85974 9.15089 3.19732 8.99508 3.50442 8.99303ZM20.2379 8.881C20.545 8.87894 20.8846 9.03021 21.1966 9.45924C21.5046 9.8873 21.7257 10.5709 21.7308 11.3317C21.7359 12.0925 21.5239 12.78 21.2217 13.2111C20.9155 13.6443 20.5779 13.8001 20.2708 13.8021C19.9637 13.8042 19.6241 13.6529 19.3121 13.2239C19.0041 12.7958 18.7829 12.1123 18.7779 11.3515C18.7728 10.5906 18.9847 9.90319 19.287 9.47202C19.5932 9.03886 19.9308 8.88305 20.2379 8.881ZM11.8843 10.9055C10.5722 10.9143 9.6625 11.7717 9.21768 12.5228C8.77581 13.2738 8.50436 13.8977 8.24427 14.1592C8.0947 14.3148 7.14723 14.6784 6.16038 15.19C5.66696 15.4462 5.17017 15.7871 4.75333 16.3067C4.33353 16.8262 4.05286 17.5417 4.05821 18.3419C4.07086 20.2316 5.6365 21.7763 7.52639 21.7636C8.37881 21.7579 9.2668 21.4764 10.1363 21.2245C11.0096 20.9667 11.9502 20.7478 11.9502 20.7478C11.9502 20.7478 12.8936 20.9541 13.7684 21.1982C14.6422 21.4384 15.5338 21.7081 16.3862 21.7024C18.2761 21.6897 19.821 20.1242 19.8083 18.2345C19.8031 17.453 19.5099 16.7404 19.0862 16.2412C18.6645 15.7391 18.1584 15.4305 17.6655 15.173C16.6777 14.6579 15.7073 14.251 15.5666 14.1102C15.3288 13.8785 15.0588 13.2376 14.6009 12.4887C14.1441 11.7368 13.2033 10.8966 11.8843 10.9055ZM11.8975 12.8739C12.5472 12.8696 12.6201 13.0266 12.9157 13.5128C13.2142 13.998 13.4403 14.8243 14.1597 15.535C14.9771 16.3367 16.004 16.507 16.7537 16.8996C17.1291 17.0959 17.416 17.3056 17.5886 17.5092C17.7603 17.7118 17.8373 17.8973 17.8396 18.2457C17.8452 19.0724 17.1999 19.7264 16.3731 19.7319C16.0876 19.7338 15.1668 19.5235 14.3088 19.2831C13.4508 19.0458 12.7402 18.772 11.937 18.7773C11.1338 18.7827 10.427 19.066 9.57224 19.3148C8.71753 19.5666 7.79963 19.7893 7.51417 19.7912C6.68735 19.7968 6.03335 19.1515 6.02781 18.3248C6.02515 17.9281 6.10647 17.7238 6.26853 17.522C6.43059 17.3211 6.73046 17.1212 7.09538 16.9327C7.82521 16.5538 8.84398 16.3994 9.67016 15.5621C10.3868 14.8319 10.5976 13.9762 10.8868 13.4919C11.171 13.0077 11.239 12.8744 11.8965 12.87L11.8975 12.8739Z" fill="white"/>
<path opacity="0.4" d="M48.396 0.102005C47.3428 0.109056 46.4294 0.71361 45.8522 1.53442C45.2749 2.35524 44.9729 3.4124 44.9805 4.55411C44.9882 5.69581 45.3043 6.74982 45.8925 7.56283C46.4807 8.37584 47.4021 8.96713 48.4553 8.96008C49.5085 8.95303 50.4219 8.34847 50.9992 7.52766C51.5764 6.70685 51.8784 5.64968 51.8708 4.50798C51.8631 3.36627 51.547 2.31226 50.9588 1.49925C50.3706 0.686239 49.4492 0.0949535 48.396 0.102005ZM51.8708 4.50798C51.8784 5.64968 52.1946 6.70369 52.7828 7.5167C53.371 8.32971 54.2933 8.92099 55.3456 8.91395C56.3988 8.9069 57.3122 8.30234 57.8894 7.48153C58.4667 6.66072 58.7687 5.60355 58.761 4.46185C58.7534 3.32014 58.4372 2.26613 57.849 1.45312C57.2609 0.640109 56.3395 0.0488233 55.2863 0.0558746C54.233 0.062926 53.3197 0.66748 52.7424 1.48829C52.1652 2.3091 51.8631 3.36627 51.8708 4.50798ZM48.4092 2.07047C48.7163 2.06841 49.0559 2.21968 49.3679 2.64871C49.6759 3.07677 49.8971 3.76035 49.9021 4.52116C49.9072 5.28197 49.6953 5.96942 49.393 6.40059C49.0868 6.83375 48.7492 6.98956 48.4421 6.99162C48.135 6.99367 47.7954 6.8424 47.4834 6.41338C47.1754 5.98531 46.9543 5.30174 46.9492 4.54093C46.9441 3.78012 47.1561 3.09266 47.4583 2.66149C47.7645 2.22833 48.1021 2.07252 48.4092 2.07047ZM55.2994 2.02434C55.6065 2.02228 55.9462 2.17355 56.2581 2.60258C56.5662 3.03064 56.7873 3.71422 56.7924 4.47503C56.7975 5.23584 56.5855 5.92329 56.2833 6.35446C55.9771 6.78762 55.6395 6.94343 55.3324 6.94549C55.0253 6.94754 54.6856 6.79627 54.3737 6.36725C54.0657 5.93918 53.8445 5.25561 53.8394 4.4948C53.8343 3.73399 54.0463 3.04653 54.3486 2.61536C54.6547 2.1822 54.9923 2.02639 55.2994 2.02434ZM43.5205 7.02457C42.4673 7.03162 41.5539 7.63617 40.9767 8.45698C40.3994 9.2778 40.0974 10.335 40.1051 11.4767C40.1127 12.6184 40.4289 13.6724 41.0171 14.4854C41.6052 15.2984 42.5266 15.8897 43.5798 15.8826C44.6331 15.8756 45.5464 15.271 46.1237 14.4502C46.7009 13.6294 47.003 12.5722 46.9953 11.4305C46.9877 10.2888 46.6715 9.23482 46.0833 8.42181C45.4952 7.6088 44.5738 7.01752 43.5205 7.02457ZM60.254 6.91254C59.2008 6.91959 58.2874 7.52414 57.7101 8.34495C57.1329 9.16577 56.8309 10.2229 56.8385 11.3646C56.8462 12.5063 57.1623 13.5604 57.7505 14.3734C58.3387 15.1864 59.2601 15.7777 60.3133 15.7706C61.3665 15.7636 62.2799 15.159 62.8571 14.3382C63.4344 13.5174 63.7364 12.4602 63.7288 11.3185C63.7211 10.1768 63.405 9.12279 62.8168 8.30978C62.2286 7.49677 61.3072 6.90549 60.254 6.91254ZM43.5337 8.99303C43.8408 8.99097 44.1805 9.14224 44.4924 9.57127C44.8004 9.99933 45.0216 10.6829 45.0267 11.4437C45.0318 12.2045 44.8198 12.892 44.5175 13.3232C44.2114 13.7563 43.8738 13.9121 43.5667 13.9142C43.2596 13.9162 42.9199 13.765 42.608 13.3359C42.3 12.9089 42.0788 12.2243 42.0737 11.4635C42.0686 10.7027 42.2806 10.0152 42.5828 9.58405C42.889 9.15089 43.2266 8.99508 43.5337 8.99303ZM60.2672 8.881C60.5743 8.87894 60.9139 9.03021 61.2259 9.45924C61.5339 9.8873 61.755 10.5709 61.7601 11.3317C61.7652 12.0925 61.5532 12.78 61.251 13.2111C60.9448 13.6443 60.6072 13.8001 60.3001 13.8021C59.993 13.8042 59.6534 13.6529 59.3414 13.2239C59.0334 12.7958 58.8122 12.1123 58.8072 11.3515C58.8021 10.5906 59.014 9.90319 59.3163 9.47202C59.6225 9.03886 59.9601 8.88305 60.2672 8.881ZM51.9136 10.9055C50.6015 10.9143 49.6918 11.7717 49.247 12.5228C48.8051 13.2738 48.5337 13.8977 48.2736 14.1592C48.124 14.3148 47.1765 14.6784 46.1897 15.19C45.6963 15.4462 45.1995 15.7871 44.7826 16.3067C44.3628 16.8262 44.0822 17.5417 44.0875 18.3419C44.1002 20.2316 45.6658 21.7763 47.5557 21.7636C48.4081 21.7579 49.2961 21.4764 50.1656 21.2245C51.0389 20.9667 51.9795 20.7478 51.9795 20.7478C51.9795 20.7478 52.9229 20.9541 53.7977 21.1982C54.6714 21.4384 55.5631 21.7081 56.4155 21.7024C58.3054 21.6897 59.8502 20.1242 59.8376 18.2345C59.8324 17.453 59.5392 16.7404 59.1155 16.2412C58.6938 15.7391 58.1877 15.4305 57.6948 15.173C56.707 14.6579 55.7366 14.251 55.5959 14.1102C55.3581 13.8785 55.0881 13.2376 54.6302 12.4887C54.1734 11.7368 53.2326 10.8966 51.9136 10.9055ZM51.9268 12.8739C52.5764 12.8696 52.6494 13.0266 52.945 13.5128C53.2435 13.998 53.4696 14.8243 54.189 15.535C55.0064 16.3367 56.0333 16.507 56.783 16.8996C57.1584 17.0959 57.4453 17.3056 57.6179 17.5092C57.7896 17.7118 57.8666 17.8973 57.8689 18.2457C57.8745 19.0724 57.2292 19.7264 56.4023 19.7319C56.1169 19.7338 55.1961 19.5235 54.3381 19.2831C53.4801 19.0458 52.7695 18.772 51.9663 18.7773C51.1631 18.7827 50.4563 19.066 49.6015 19.3148C48.7468 19.5666 47.8289 19.7893 47.5435 19.7912C46.7166 19.7968 46.0626 19.1515 46.0571 18.3248C46.0545 17.9281 46.1358 17.7238 46.2978 17.522C46.4599 17.3211 46.7598 17.1212 47.1247 16.9327C47.8545 16.5538 48.8733 16.3994 49.6995 15.5621C50.4161 14.8319 50.6269 13.9762 50.9161 13.4919C51.2002 13.0077 51.2683 12.8744 51.9258 12.87L51.9268 12.8739Z" fill="white"/>
<path opacity="0.6" d="M88.4273 0.102005C87.374 0.109056 86.4607 0.71361 85.8834 1.53442C85.3062 2.35524 85.0042 3.4124 85.0118 4.55411C85.0194 5.69581 85.3356 6.74982 85.9238 7.56283C86.512 8.37584 87.4333 8.96713 88.4866 8.96008C89.5398 8.95303 90.4532 8.34847 91.0304 7.52766C91.6077 6.70685 91.9097 5.64968 91.902 4.50798C91.8944 3.36627 91.5782 2.31226 90.9901 1.49925C90.4019 0.686239 89.4805 0.0949535 88.4273 0.102005ZM91.902 4.50798C91.9097 5.64968 92.2258 6.70369 92.814 7.5167C93.4022 8.32971 94.3246 8.92099 95.3768 8.91395C96.43 8.9069 97.3434 8.30234 97.9207 7.48153C98.4979 6.66072 98.7999 5.60355 98.7923 4.46185C98.7846 3.32014 98.4685 2.26613 97.8803 1.45312C97.2921 0.640109 96.3707 0.0488233 95.3175 0.0558746C94.2643 0.062926 93.3509 0.66748 92.7737 1.48829C92.1964 2.3091 91.8944 3.36627 91.902 4.50798ZM88.4404 2.07047C88.7476 2.06841 89.0872 2.21968 89.3991 2.64871C89.7072 3.07677 89.9283 3.76035 89.9334 4.52116C89.9385 5.28197 89.7265 5.96942 89.4243 6.40059C89.1181 6.83375 88.7805 6.98956 88.4734 6.99162C88.1663 6.99367 87.8266 6.8424 87.5147 6.41338C87.2067 5.98531 86.9855 5.30174 86.9804 4.54093C86.9753 3.78012 87.1873 3.09266 87.4896 2.66149C87.7958 2.22833 88.1333 2.07252 88.4404 2.07047ZM95.3307 2.02434C95.6378 2.02228 95.9774 2.17355 96.2894 2.60258C96.5974 3.03064 96.8185 3.71422 96.8236 4.47503C96.8287 5.23584 96.6168 5.92329 96.3145 6.35446C96.0083 6.78762 95.6707 6.94343 95.3636 6.94549C95.0565 6.94754 94.7169 6.79627 94.4049 6.36725C94.0969 5.93918 93.8758 5.25561 93.8707 4.4948C93.8656 3.73399 94.0775 3.04653 94.3798 2.61536C94.686 2.1822 95.0236 2.02639 95.3307 2.02434ZM83.5518 7.02457C82.4986 7.03162 81.5852 7.63617 81.0079 8.45698C80.4307 9.2778 80.1287 10.335 80.1363 11.4767C80.144 12.6184 80.4601 13.6724 81.0483 14.4854C81.6365 15.2984 82.5579 15.8897 83.6111 15.8826C84.6643 15.8756 85.5777 15.271 86.1549 14.4502C86.7322 13.6294 87.0342 12.5722 87.0266 11.4305C87.0189 10.2888 86.7028 9.23482 86.1146 8.42181C85.5264 7.6088 84.605 7.01752 83.5518 7.02457ZM100.285 6.91254C99.232 6.91959 98.3186 7.52414 97.7414 8.34495C97.1641 9.16577 96.8621 10.2229 96.8698 11.3646C96.8774 12.5063 97.1936 13.5604 97.7817 14.3734C98.3699 15.1864 99.2913 15.7777 100.345 15.7706C101.398 15.7636 102.311 15.159 102.888 14.3382C103.466 13.5174 103.768 12.4602 103.76 11.3185C103.752 10.1768 103.436 9.12279 102.848 8.30978C102.26 7.49677 101.338 6.90549 100.285 6.91254ZM83.565 8.99303C83.8721 8.99097 84.2117 9.14224 84.5237 9.57127C84.8317 9.99933 85.0528 10.6829 85.0579 11.4437C85.063 12.2045 84.8511 12.892 84.5488 13.3232C84.2426 13.7563 83.905 13.9121 83.5979 13.9142C83.2908 13.9162 82.9512 13.765 82.6392 13.3359C82.3312 12.9089 82.1101 12.2243 82.105 11.4635C82.0999 10.7027 82.3118 10.0152 82.6141 9.58405C82.9203 9.15089 83.2579 8.99508 83.565 8.99303ZM100.298 8.881C100.606 8.87894 100.945 9.03021 101.257 9.45924C101.565 9.8873 101.786 10.5709 101.791 11.3317C101.796 12.0925 101.584 12.78 101.282 13.2111C100.976 13.6443 100.638 13.8001 100.331 13.8021C100.024 13.8042 99.6846 13.6529 99.3727 13.2239C99.0646 12.7958 98.8435 12.1123 98.8384 11.3515C98.8333 10.5906 99.0453 9.90319 99.3475 9.47202C99.6537 9.03886 99.9913 8.88305 100.298 8.881ZM91.9449 10.9055C90.6328 10.9143 89.7231 11.7717 89.2782 12.5228C88.8364 13.2738 88.5649 13.8977 88.3048 14.1592C88.1553 14.3148 87.2078 14.6784 86.2209 15.19C85.7275 15.4462 85.2307 15.7871 84.8139 16.3067C84.3941 16.8262 84.1134 17.5417 84.1188 18.3419C84.1314 20.2316 85.697 21.7763 87.5869 21.7636C88.4394 21.7579 89.3273 21.4764 90.1968 21.2245C91.0702 20.9667 92.0108 20.7478 92.0108 20.7478C92.0108 20.7478 92.9542 20.9541 93.8289 21.1982C94.7027 21.4384 95.5944 21.7081 96.4468 21.7024C98.3367 21.6897 99.8815 20.1242 99.8688 18.2345C99.8636 17.453 99.5704 16.7404 99.1468 16.2412C98.725 15.7391 98.219 15.4305 97.7261 15.173C96.7382 14.6579 95.7679 14.251 95.6272 14.1102C95.3894 13.8785 95.1193 13.2376 94.6615 12.4887C94.2046 11.7368 93.2639 10.8966 91.9449 10.9055ZM91.958 12.8739C92.6077 12.8696 92.6806 13.0266 92.9762 13.5128C93.2748 13.998 93.5008 14.8243 94.2202 15.535C95.0377 16.3367 96.0645 16.507 96.8143 16.8996C97.1897 17.0959 97.4765 17.3056 97.6492 17.5092C97.8208 17.7118 97.8979 17.8973 97.9002 18.2457C97.9057 19.0724 97.2604 19.7264 96.4336 19.7319C96.1481 19.7338 95.2273 19.5235 94.3693 19.2831C93.5114 19.0458 92.8008 18.772 91.9976 18.7773C91.1944 18.7827 90.4875 19.066 89.6328 19.3148C88.7781 19.5666 87.8602 19.7893 87.5747 19.7912C86.7479 19.7968 86.0939 19.1515 86.0884 18.3248C86.0857 17.9281 86.167 17.7238 86.3291 17.522C86.4911 17.3211 86.791 17.1212 87.1559 16.9327C87.8858 16.5538 88.9045 16.3994 89.7307 15.5621C90.4474 14.8319 90.6582 13.9762 90.9473 13.4919C91.2315 13.0077 91.2995 12.8744 91.957 12.87L91.958 12.8739Z" fill="white"/>
<path opacity="0.8" d="M128.457 0.102005C127.403 0.109056 126.49 0.71361 125.913 1.53442C125.335 2.35524 125.033 3.4124 125.041 4.55411C125.049 5.69581 125.365 6.74982 125.953 7.56283C126.541 8.37584 127.463 8.96713 128.516 8.96008C129.569 8.95303 130.482 8.34847 131.06 7.52766C131.637 6.70685 131.939 5.64968 131.931 4.50798C131.924 3.36627 131.608 2.31226 131.019 1.49925C130.431 0.686239 129.51 0.0949535 128.457 0.102005ZM131.931 4.50798C131.939 5.64968 132.255 6.70369 132.843 7.5167C133.431 8.32971 134.354 8.92099 135.406 8.91395C136.459 8.9069 137.373 8.30234 137.95 7.48153C138.527 6.66072 138.829 5.60355 138.822 4.46185C138.814 3.32014 138.498 2.26613 137.91 1.45312C137.321 0.640109 136.4 0.0488233 135.347 0.0558746C134.294 0.062926 133.38 0.66748 132.803 1.48829C132.226 2.3091 131.924 3.36627 131.931 4.50798ZM128.47 2.07047C128.777 2.06841 129.116 2.21968 129.428 2.64871C129.736 3.07677 129.958 3.76035 129.963 4.52116C129.968 5.28197 129.756 5.96942 129.454 6.40059C129.147 6.83375 128.81 6.98956 128.503 6.99162C128.196 6.99367 127.856 6.8424 127.544 6.41338C127.236 5.98531 127.015 5.30174 127.01 4.54093C127.005 3.78012 127.217 3.09266 127.519 2.66149C127.825 2.22833 128.163 2.07252 128.47 2.07047ZM135.36 2.02434C135.667 2.02228 136.007 2.17355 136.319 2.60258C136.627 3.03064 136.848 3.71422 136.853 4.47503C136.858 5.23584 136.646 5.92329 136.344 6.35446C136.038 6.78762 135.7 6.94343 135.393 6.94549C135.086 6.94754 134.746 6.79627 134.434 6.36725C134.126 5.93918 133.905 5.25561 133.9 4.4948C133.895 3.73399 134.107 3.04653 134.409 2.61536C134.715 2.1822 135.053 2.02639 135.36 2.02434ZM123.581 7.02457C122.528 7.03162 121.614 7.63617 121.037 8.45698C120.46 9.2778 120.158 10.335 120.166 11.4767C120.173 12.6184 120.489 13.6724 121.078 14.4854C121.666 15.2984 122.587 15.8897 123.64 15.8826C124.694 15.8756 125.607 15.271 126.184 14.4502C126.761 13.6294 127.064 12.5722 127.056 11.4305C127.048 10.2888 126.732 9.23482 126.144 8.42181C125.556 7.6088 124.634 7.01752 123.581 7.02457ZM140.315 6.91254C139.261 6.91959 138.348 7.52414 137.771 8.34495C137.193 9.16577 136.891 10.2229 136.899 11.3646C136.907 12.5063 137.223 13.5604 137.811 14.3734C138.399 15.1864 139.321 15.7777 140.374 15.7706C141.427 15.7636 142.34 15.159 142.918 14.3382C143.495 13.5174 143.797 12.4602 143.789 11.3185C143.782 10.1768 143.466 9.12279 142.877 8.30978C142.289 7.49677 141.368 6.90549 140.315 6.91254ZM123.594 8.99303C123.901 8.99097 124.241 9.14224 124.553 9.57127C124.861 9.99933 125.082 10.6829 125.087 11.4437C125.092 12.2045 124.88 12.892 124.578 13.3232C124.272 13.7563 123.934 13.9121 123.627 13.9142C123.32 13.9162 122.98 13.765 122.669 13.3359C122.36 12.9089 122.139 12.2243 122.134 11.4635C122.129 10.7027 122.341 10.0152 122.643 9.58405C122.95 9.15089 123.287 8.99508 123.594 8.99303ZM140.328 8.881C140.635 8.87894 140.974 9.03021 141.286 9.45924C141.594 9.8873 141.816 10.5709 141.821 11.3317C141.826 12.0925 141.614 12.78 141.312 13.2111C141.005 13.6443 140.668 13.8001 140.361 13.8021C140.054 13.8042 139.714 13.6529 139.402 13.2239C139.094 12.7958 138.873 12.1123 138.868 11.3515C138.863 10.5906 139.075 9.90319 139.377 9.47202C139.683 9.03886 140.021 8.88305 140.328 8.881ZM131.974 10.9055C130.662 10.9143 129.752 11.7717 129.308 12.5228C128.866 13.2738 128.594 13.8977 128.334 14.1592C128.185 14.3148 127.237 14.6784 126.25 15.19C125.757 15.4462 125.26 15.7871 124.843 16.3067C124.423 16.8262 124.143 17.5417 124.148 18.3419C124.161 20.2316 125.726 21.7763 127.616 21.7636C128.469 21.7579 129.357 21.4764 130.226 21.2245C131.099 20.9667 132.04 20.7478 132.04 20.7478C132.04 20.7478 132.983 20.9541 133.858 21.1982C134.732 21.4384 135.624 21.7081 136.476 21.7024C138.366 21.6897 139.911 20.1242 139.898 18.2345C139.893 17.453 139.6 16.7404 139.176 16.2412C138.754 15.7391 138.248 15.4305 137.755 15.173C136.768 14.6579 135.797 14.251 135.656 14.1102C135.419 13.8785 135.149 13.2376 134.691 12.4887C134.234 11.7368 133.293 10.8966 131.974 10.9055ZM131.987 12.8739C132.637 12.8696 132.71 13.0266 133.006 13.5128C133.304 13.998 133.53 14.8243 134.25 15.535C135.067 16.3367 136.094 16.507 136.844 16.8996C137.219 17.0959 137.506 17.3056 137.678 17.5092C137.85 17.7118 137.927 17.8973 137.929 18.2457C137.935 19.0724 137.29 19.7264 136.463 19.7319C136.177 19.7338 135.257 19.5235 134.399 19.2831C133.541 19.0458 132.83 18.772 132.027 18.7773C131.224 18.7827 130.517 19.066 129.662 19.3148C128.807 19.5666 127.889 19.7893 127.604 19.7912C126.777 19.7968 126.123 19.1515 126.118 18.3248C126.115 17.9281 126.196 17.7238 126.358 17.522C126.52 17.3211 126.82 17.1212 127.185 16.9327C127.915 16.5538 128.934 16.3994 129.76 15.5621C130.477 14.8319 130.687 13.9762 130.977 13.4919C131.261 13.0077 131.329 12.8744 131.986 12.87L131.987 12.8739Z" fill="white"/>
</g>
</svg>
