<svg width="160" height="23" viewBox="0 0 160 23" fill="none" xmlns="http://www.w3.org/2000/svg">
<path d="M19.0908 22.1277L11.7974 16.9285L4.36319 21.9356L7.1959 13.586L0 8.25996L9.04412 8.29873L12.031 0L14.7879 8.37363L23.8298 8.57071L16.4895 13.7071L19.0908 22.1277Z" fill="#FFC24F"/>
<path d="M53.1338 22.1277L45.8404 16.9285L38.4062 21.9356L41.2389 13.586L34.043 8.25996L43.0871 8.29873L46.074 0L48.8308 8.37363L57.8728 8.57071L50.5325 13.7071L53.1338 22.1277Z" fill="#FFC24F"/>
<path d="M87.1748 22.1277L79.8814 16.9285L72.4472 21.9356L75.2799 13.586L68.084 8.25996L77.1281 8.29873L80.115 0L82.8719 8.37363L91.9138 8.57071L84.5735 13.7071L87.1748 22.1277Z" fill="#FFC24F"/>
<path d="M121.218 22.1277L113.924 16.9285L106.49 21.9356L109.323 13.586L102.127 8.25996L111.171 8.29873L114.158 0L116.915 8.37363L125.957 8.57071L118.616 13.7071L121.218 22.1277Z" fill="#FFC24F"/>
<path d="M155.261 22.1277L147.967 16.9285L140.533 21.9356L143.366 13.586L136.17 8.25996L145.214 8.29873L148.201 0L150.958 8.37363L160 8.57071L152.659 13.7071L155.261 22.1277Z" fill="#FFC24F"/>
</svg>
