<svg width="106" height="15" viewBox="0 0 106 15" fill="none" xmlns="http://www.w3.org/2000/svg">
<path d="M15.2672 5.63025L10.5375 4.97043L8.42325 0.855923C8.3655 0.743271 8.2705 0.652076 8.15314 0.596643C7.85882 0.457169 7.50115 0.573398 7.35399 0.855923L5.2397 4.97043L0.51001 5.63025C0.379613 5.64813 0.260392 5.70714 0.169115 5.79655C0.0587645 5.90542 -0.00204334 6.0519 5.24306e-05 6.20378C0.0021482 6.35567 0.0669761 6.50055 0.180291 6.60658L3.60228 9.80913L2.79382 14.3313C2.77486 14.4365 2.78699 14.5447 2.82883 14.6436C2.87066 14.7426 2.94054 14.8282 3.03053 14.891C3.12051 14.9537 3.22701 14.991 3.33795 14.9986C3.44888 15.0062 3.55982 14.9838 3.65817 14.9339L7.88862 12.7989L12.1191 14.9339C12.2346 14.9929 12.3687 15.0126 12.4972 14.9912C12.8214 14.9375 13.0393 14.6425 12.9834 14.3313L12.175 9.80913L15.597 6.60658C15.6901 6.51896 15.7516 6.40452 15.7702 6.27935C15.8205 5.96642 15.5932 5.67674 15.2672 5.63025Z" fill="#FE9D02"/>
<path d="M37.6168 5.63025L32.8872 4.97043L30.7729 0.855923C30.7151 0.743271 30.6201 0.652076 30.5027 0.596643C30.2084 0.457169 29.8508 0.573398 29.7036 0.855923L27.5893 4.97043L22.8596 5.63025C22.7292 5.64813 22.61 5.70714 22.5187 5.79655C22.4084 5.90542 22.3476 6.0519 22.3497 6.20378C22.3518 6.35567 22.4166 6.50055 22.5299 6.60658L25.9519 9.80913L25.1434 14.3313C25.1245 14.4365 25.1366 14.5447 25.1784 14.6436C25.2203 14.7426 25.2901 14.8282 25.3801 14.891C25.4701 14.9537 25.5766 14.991 25.6876 14.9986C25.7985 15.0062 25.9094 14.9838 26.0078 14.9339L30.2382 12.7989L34.4687 14.9339C34.5842 14.9929 34.7183 15.0126 34.8468 14.9912C35.171 14.9375 35.3889 14.6425 35.333 14.3313L34.5246 9.80913L37.9466 6.60658C38.0397 6.51896 38.1012 6.40452 38.1198 6.27935C38.1701 5.96642 37.9428 5.67674 37.6168 5.63025Z" fill="#FE9D02"/>
<path d="M59.9704 5.63025L55.2407 4.97043L53.1264 0.855923C53.0686 0.743271 52.9736 0.652076 52.8563 0.596643C52.5619 0.457169 52.2043 0.573398 52.0571 0.855923L49.9428 4.97043L45.2131 5.63025C45.0827 5.64813 44.9635 5.70714 44.8722 5.79655C44.7619 5.90542 44.7011 6.0519 44.7032 6.20378C44.7053 6.35567 44.7701 6.50055 44.8834 6.60658L48.3054 9.80913L47.4969 14.3313C47.478 14.4365 47.4901 14.5447 47.532 14.6436C47.5738 14.7426 47.6437 14.8282 47.7337 14.891C47.8236 14.9537 47.9301 14.991 48.0411 14.9986C48.152 15.0062 48.2629 14.9838 48.3613 14.9339L52.5917 12.7989L56.8222 14.9339C56.9377 14.9929 57.0718 15.0126 57.2004 14.9912C57.5245 14.9375 57.7424 14.6425 57.6865 14.3313L56.8781 9.80913L60.3001 6.60658C60.3932 6.51896 60.4547 6.40452 60.4733 6.27935C60.5236 5.96642 60.2963 5.67674 59.9704 5.63025Z" fill="#FE9D02"/>
<path d="M82.32 5.63025L77.5903 4.97043L75.476 0.855923C75.4182 0.743271 75.3232 0.652076 75.2059 0.596643C74.9116 0.457169 74.5539 0.573398 74.4067 0.855923L72.2924 4.97043L67.5627 5.63025C67.4323 5.64813 67.3131 5.70714 67.2218 5.79655C67.1115 5.90542 67.0507 6.0519 67.0528 6.20378C67.0549 6.35567 67.1197 6.50055 67.233 6.60658L70.655 9.80913L69.8466 14.3313C69.8276 14.4365 69.8397 14.5447 69.8816 14.6436C69.9234 14.7426 69.9933 14.8282 70.0833 14.891C70.1732 14.9537 70.2797 14.991 70.3907 14.9986C70.5016 15.0062 70.6126 14.9838 70.7109 14.9339L74.9414 12.7989L79.1718 14.9339C79.2873 14.9929 79.4214 15.0126 79.55 14.9912C79.8741 14.9375 80.092 14.6425 80.0362 14.3313L79.2277 9.80913L82.6497 6.60658C82.7428 6.51896 82.8043 6.40452 82.8229 6.27935C82.8732 5.96642 82.646 5.67674 82.32 5.63025Z" fill="#FE9D02"/>
<path d="M104.672 5.63025L99.9419 4.97043L97.8276 0.855923C97.7699 0.743271 97.6749 0.652076 97.5575 0.596643C97.2632 0.457169 96.9055 0.573398 96.7584 0.855923L94.6441 4.97043L89.9144 5.63025C89.784 5.64813 89.6648 5.70714 89.5735 5.79655C89.4631 5.90542 89.4023 6.0519 89.4044 6.20378C89.4065 6.35567 89.4713 6.50055 89.5846 6.60658L93.0066 9.80913L92.1982 14.3313C92.1792 14.4365 92.1913 14.5447 92.2332 14.6436C92.275 14.7426 92.3449 14.8282 92.4349 14.891C92.5249 14.9537 92.6314 14.991 92.7423 14.9986C92.8532 15.0062 92.9642 14.9838 93.0625 14.9339L97.293 12.7989L101.523 14.9339C101.639 14.9929 101.773 15.0126 101.902 14.9912C102.226 14.9375 102.444 14.6425 102.388 14.3313L101.579 9.80913L105.001 6.60658C105.094 6.51896 105.156 6.40452 105.175 6.27935C105.225 5.96642 104.998 5.67674 104.672 5.63025Z" fill="#FE9D02"/>
</svg>
