<svg width="143" height="126" viewBox="0 0 143 126" fill="none" xmlns="http://www.w3.org/2000/svg">
<path d="M93.9 25.1C89.4 20.7 79.5 23.8 72.4 22.7C72.1 22.6 71.8 22.6 71.5 22.5C71.4 22.6 71.4 22.8 71.3 22.9C71.2 22.7 71.1 22.5 71 22.3C64.7 20.3 60.6 12.4 47.1 11.9C32.6 11.4 22.8 11.6 11 31.5C9.50001 33.9 0.500008 41.7 2.40001 55C3.60001 59 5.40001 62.8 7.80001 66.6C17.2 65.5 22.4 52.9 23.3 45.7C24.2 38.2 26.4 33.3 27.4 32.9C28.4 32.5 32 42.4 36.3 42.5C40.6 42.6 47.9 40.6 52.8 44.2C57.7 47.8 59.2 49.3 61.3 49.5C63.4 49.7 66.1 53.5 64.8 55.9C63.5 58.4 65.1 61 63.2 62.7C61.3 64.5 52.2 69.2 50.4 76.2C49 81 42.7 90.4 36.5 97.5C41.1 101.5 46 105.7 51.2 110.1C51.7 110.5 52.2 110.9 52.7 111.4C52.8 110.6 52.9 109.7 53 108.8C54.3 97.5 60.8 76.1 70.7 72.2C89.8 64.7 103 33.8 93.9 25.1ZM61.2 25.7C61 27.9 59 29.5 56.8 29.3C54.6 29.1 53 27.1 53.2 24.9C53.4 22.7 55.4 21.1 57.6 21.3C59.8 21.5 61.4 23.5 61.2 25.7Z" fill="#23B3BB"/>
<path d="M57.6 21.3C59.8 21.5 61.4 23.5 61.2 25.7C61 27.9 59 29.5 56.8 29.3C54.6 29.1 53 27.1 53.2 24.9C53.5 22.7 55.4 21.1 57.6 21.3Z" fill="white"/>
<path d="M64.8 56C63.5 58.5 65.1 61.1 63.2 62.8C61.3 64.6 52.2 69.3 50.4 76.3C49 81 42.7 90.4 36.5 97.5C23.9 86.5 14 76.7 7.79999 66.6C17.2 65.5 22.4 52.9 23.3 45.7C24.2 38.2 26.4 33.3 27.4 32.9C28.4 32.5 32 42.4 36.3 42.5C40.6 42.6 47.9 40.6 52.8 44.2C57.7 47.8 59.2 49.3 61.3 49.5C63.3 49.7 66.1 53.5 64.8 56Z" fill="white"/>
<path d="M2.39999 55C1.09999 50.8 0.399994 46.4 0.399994 41.7C0.399994 18.5 16.6 0.899994 38 0.899994C45.7 0.899994 52.7 3.29999 59 8.09999C64.7 12.5 68.6 18.1 71 22.3C64.7 20.3 60.6 12.4 47.1 11.9C32.6 11.4 22.8 11.6 11 31.5C9.49999 33.9 0.499994 41.7 2.39999 55Z" fill="#234683"/>
<path d="M48.6 46.8C49.8 46.9 50.7 48 50.5 49.2C50.4 50.4 49.3 51.3 48.1 51.1C46.9 51 46 49.9 46.2 48.7C46.4 47.5 47.4 46.6 48.6 46.8Z" fill="#23B3BB"/>
<path fill-rule="evenodd" clip-rule="evenodd" d="M142.1 41.8C142.1 66.9 121.9 84.1 91.4 110.2C86.2 114.6 80.3 119.6 74.2 125C73.4 125.7 72.4 126.1 71.3 126.1C70.2 126.1 69.2 125.7 68.4 125C66.7 123.5 65 122 63.3 120.6C59.6 117.4 56 114.3 52.7 111.5C52.8 110.7 52.9 109.8 53 108.9C54.3 97.6 60.8 76.2 70.7 72.3C89.9 64.8 103.1 33.8 94.1 25.2C89.6 20.8 79.7 23.9 72.6 22.8C72.3 22.7 72 22.7 71.7 22.6C74.1 18.4 78 12.7 83.7 8.3C89.4 3.9 95.9 1.4 102.9 1.1C103.5 1.1 104.1 1.1 104.7 1.1C125.9 0.9 142.1 18.5 142.1 41.8Z" fill="#234683"/>
</svg>
