<svg width="1360" height="222" viewBox="0 0 1360 222" fill="none" xmlns="http://www.w3.org/2000/svg">
<path opacity="0.12" d="M102.256 0.026846C62.3631 0.026846 68.5511 43.3562 68.5511 43.3562C68.5511 43.3562 54.4436 25.8124 37.5978 34.4165C20.7519 43.0206 29.2755 62.5108 29.2755 62.5108C29.2755 62.5108 0 56.0812 0 75.6787C0 95.2763 65.5981 92.8064 110.914 92.8064C156.23 92.8064 210.029 90.1219 210.298 77.0479C210.58 63.9739 186.163 62.4974 186.163 62.4974C186.163 62.4974 191.962 41.2757 171.693 27.5171C151.425 13.7585 131.116 32.3359 131.116 32.3359C131.116 32.3359 132.847 0 102.243 0L102.256 0.026846Z" fill="#E5DCB7"/>
<path opacity="0.12" d="M1270.09 17.0222C1236.9 17.0222 1242.04 52.9332 1242.04 52.9332C1242.04 52.9332 1230.3 38.393 1216.29 45.5241C1202.27 52.6551 1209.36 68.8083 1209.36 68.8083C1209.36 68.8083 1185 63.4795 1185 79.7218C1185 95.964 1239.59 93.917 1277.3 93.917C1315.01 93.917 1359.77 91.6921 1360 80.8565C1360.23 70.0209 1339.91 68.7972 1339.91 68.7972C1339.91 68.7972 1344.74 51.2088 1327.87 39.8059C1311.01 28.4029 1294.11 43.7997 1294.11 43.7997C1294.11 43.7997 1295.55 17 1270.08 17L1270.09 17.0222Z" fill="#E5DCB7"/>
<path opacity="0.12" d="M972.344 182C951.767 182 950.357 204.591 950.357 204.591C950.357 204.591 946.438 195.222 938.814 198.98C931.19 202.738 935.458 213.531 935.458 213.531C935.458 213.531 927.713 213.826 928.008 217.665C928.29 221.504 946.438 221.195 980.881 221.195C1015.32 221.195 1028.22 221.168 1028.18 215.168C1028.13 209.155 1012.28 208.067 1012.28 208.067C1012.28 208.067 1012.88 190.765 1000.38 188.376C987.888 185.987 985.66 195.597 985.66 195.597C985.66 195.597 984.68 182.027 972.331 182.027L972.344 182Z" fill="#E5DCB7"/>
</svg>
