<?xml version="1.0" encoding="utf-8"?>
<!-- Generator: Adobe Illustrator 25.0.0, SVG Export Plug-In . SVG Version: 6.00 Build 0)  -->
<svg version="1.1" id="Layer_1" xmlns="http://www.w3.org/2000/svg" xmlns:xlink="http://www.w3.org/1999/xlink" x="0px" y="0px"
	 viewBox="0 0 640 126" style="enable-background:new 0 0 640 126;" xml:space="preserve">
<style type="text/css">
	.st0{fill:#234683;}
	.st1{fill:#23B3BB;}
	.st2{fill:#E6E6E6;}
	.st3{fill:#FFFFFF;}
	.st4{fill-rule:evenodd;clip-rule:evenodd;fill:#234683;}
</style>
<g>
	<path class="st0" d="M179.3,35.3v46.4h-12.1V35.3H179.3z M203.5,53.6v9.3h-30.3v-9.3H203.5z M209.1,35.3v46.4H197V35.3H209.1z"/>
	<path class="st0" d="M233.3,82.3c-3.9,0-7.2-0.7-10.1-2.2c-2.8-1.5-5-3.5-6.6-6.3c-1.5-2.7-2.3-6-2.3-9.8c0-3.8,0.8-7.1,2.3-9.8
		c1.5-2.7,3.7-4.8,6.5-6.3c2.8-1.5,6-2.2,9.6-2.2c3.7,0,6.8,0.7,9.4,2.1c2.6,1.4,4.6,3.4,5.9,5.9c1.4,2.5,2,5.4,2,8.6
		c0,0.8,0,1.7-0.1,2.5c0,0.8-0.1,1.5-0.2,2.1h-27.8v-6.4h22.5l-5.7,2.2c0-2.8-0.5-5-1.5-6.5c-1-1.5-2.6-2.2-4.7-2.2
		c-1.5,0-2.8,0.4-3.8,1.1c-1.1,0.7-1.9,1.8-2.4,3.3c-0.5,1.5-0.8,3.4-0.8,5.8c0,2.3,0.3,4.2,0.9,5.6c0.6,1.4,1.5,2.5,2.6,3.1
		c1.1,0.6,2.5,0.9,4.1,0.9c1.8,0,3.2-0.4,4.2-1.1c1.1-0.7,1.8-1.7,2.4-2.9l9.6,3.2c-0.7,2-1.8,3.7-3.4,5.1c-1.6,1.4-3.5,2.4-5.8,3.1
		C238.1,82,235.8,82.3,233.3,82.3z"/>
	<path class="st0" d="M266.5,31.6v38.1c0,1.5,0.3,2.6,0.8,3.3c0.5,0.7,1.4,1,2.6,1c0.7,0,1.3,0,1.8-0.1c0.5-0.1,6.6-3,7.3-3.2
		l-0.8,7.2c-0.8,0.5-7.6,3.7-8.9,4.1c-1.4,0.3-2.7,0.5-4,0.5c-3.7,0-6.5-0.9-8.1-2.6c-1.7-1.7-2.5-4.6-2.5-8.5V31.6H266.5z"/>
	<path class="st0" d="M275.6,96.4V46.5h10.7l0.6,12.7l-1.4-1.5c0.3-2.3,1.1-4.4,2.2-6.2c1.1-1.8,2.6-3.2,4.4-4.2
		c1.8-1,3.8-1.5,6.1-1.5c2.9,0,5.4,0.7,7.6,2.1c2.2,1.4,3.8,3.5,5,6.2c1.2,2.7,1.8,6,1.8,9.8c0,3.8-0.6,7.1-1.8,9.9
		c-1.2,2.8-2.9,4.9-5.1,6.3c-2.2,1.5-4.7,2.2-7.6,2.2c-3.2,0-5.8-0.9-7.7-2.8c-2-1.9-3.3-4.3-3.9-7.2l1.1-1.7v25.8H275.6z"/>
	<path class="st0" d="M347.2,46.5V55H314v-8.5H347.2z M333.6,30.6c1.9,0,3.6,0.2,5.1,0.6c1.5,0.4,2.5,0.9,3.2,1.4l-1.2,7.4
		c-0.5-0.3-1.1-0.6-1.8-0.8c-0.7-0.2-1.5-0.3-2.5-0.3c-1.6,0-3,0.4-4,1.1s-1.6,2.1-1.6,3.9v4.6l0.7,2v31h-11.9V43.3
		c0-2.2,0.4-4.2,1.1-5.8c0.7-1.6,1.7-2.9,3.1-3.9c1.3-1,2.8-1.8,4.5-2.2C330,30.9,331.7,30.6,333.6,30.6z"/>
	<path class="st0" d="M356.2,82.3c-2.4,0-4.5-0.4-6.3-1.2c-1.8-0.8-3.2-2.1-4.2-4c-1-1.8-1.5-4.2-1.5-7.2V46.5H356v20.6
		c0,2.2,0.4,3.8,1.3,4.7c0.9,0.9,2.2,1.3,3.8,1.3c0.8,0,1.6-0.2,2.4-0.5c0.7-0.3,1.4-0.8,2-1.4c0.6-0.6,1-1.5,1.3-2.5
		c0.3-1,0.5-2.2,0.5-3.5V46.5h11.9v35.1h-10.7l-0.4-6.6c-1.1,2.5-2.7,4.3-4.7,5.5C361.5,81.7,359,82.3,356.2,82.3z"/>
	<path class="st0" d="M395.4,31.6v38.1c0,1.5,0.3,2.6,0.8,3.3c0.5,0.7,1.4,1,2.6,1c0.7,0,1.3,0,1.8-0.1c0.5-0.1,9.5-4.4,10.1-4.6
		l-0.8,7.2c-0.8,0.5-10.4,5.2-11.7,5.5c-1.4,0.3-2.7,0.5-4,0.5c-3.7,0-6.5-0.9-8.1-2.6c-1.7-1.7-2.5-4.6-2.5-8.5V31.6H395.4z"/>
	<g>
		<path class="st1" d="M426.6,35.3c3.8,0,7,0.6,9.7,1.8c2.7,1.2,4.7,3,6.1,5.3c1.4,2.3,2.1,5.1,2.1,8.4c0,3.3-0.7,6.1-2.1,8.4
			c-1.4,2.3-3.4,4.1-6.1,5.3c-2.7,1.2-5.9,1.8-9.7,1.8h-9.2v15.5h-12.1V35.3H426.6z M424.7,57.1c2.5,0,4.4-0.5,5.7-1.6
			c1.3-1.1,1.9-2.7,1.9-4.8c0-2.2-0.6-3.8-1.9-4.8c-1.3-1.1-3.2-1.6-5.7-1.6h-7.3v12.8H424.7z"/>
	</g>
	<g>
		<path class="st1" d="M465.3,82.3c-3.9,0-7.2-0.7-10.1-2.2c-2.8-1.5-5-3.5-6.6-6.3c-1.5-2.7-2.3-6-2.3-9.8c0-3.8,0.8-7.1,2.3-9.8
			c1.5-2.7,3.7-4.8,6.5-6.3c2.8-1.5,6-2.2,9.6-2.2c3.7,0,6.8,0.7,9.4,2.1c2.6,1.4,4.6,3.4,5.9,5.9c1.4,2.5,2,5.4,2,8.6
			c0,0.8,0,1.7-0.1,2.5c0,0.8-0.1,1.5-0.2,2.1H454v-6.4h22.5l-5.7,2.2c0-2.8-0.5-5-1.5-6.5c-1-1.5-2.6-2.2-4.7-2.2
			c-1.5,0-2.8,0.4-3.8,1.1c-1.1,0.7-1.9,1.8-2.4,3.3c-0.5,1.5-0.8,3.4-0.8,5.8c0,2.3,0.3,4.2,0.9,5.6c0.6,1.4,1.5,2.5,2.6,3.1
			c1.1,0.6,2.5,0.9,4.1,0.9c1.8,0,3.2-0.4,4.2-1.1c1.1-0.7,1.8-1.7,2.4-2.9l9.6,3.2c-0.7,2-1.8,3.7-3.4,5.1
			c-1.6,1.4-3.5,2.4-5.8,3.1C470,82,467.7,82.3,465.3,82.3z"/>
	</g>
	<g>
		<path class="st1" d="M511.4,46.5V55H483v-8.5H511.4z M501,35.3v33.8c0,1.7,0.4,2.9,1.2,3.6c0.8,0.7,2,1.1,3.4,1.1
			c1.1,0,2.1-0.1,2.9-0.4c0.8-0.3,1.6-0.6,2.2-1.2l1.3,7.4c-1.2,0.8-2.6,1.5-4.4,2c-1.8,0.5-3.6,0.7-5.5,0.7c-2.7,0-5-0.4-6.9-1.1
			c-1.9-0.7-3.4-1.9-4.5-3.6c-1.1-1.6-1.6-3.8-1.7-6.5V38.6L501,35.3z"/>
	</g>
	<g>
		<path class="st1" d="M529.6,82.3c-3.5,0-6.8-0.6-9.8-1.7c-3-1.1-5.5-2.8-7.5-5l5.6-6.6c1.2,1.5,2.7,2.8,4.7,3.8
			c1.9,1,4.1,1.5,6.5,1.5c1.4,0,2.6-0.2,3.6-0.6c0.9-0.4,1.4-1.1,1.4-2c0-0.7-0.2-1.2-0.7-1.6c-0.5-0.4-1.4-0.7-2.8-1l-4.9-1
			c-4.4-0.9-7.5-2.2-9.4-4c-1.9-1.8-2.8-4.1-2.8-6.9c0-1.9,0.6-3.8,1.8-5.5s3-3.2,5.4-4.3c2.4-1.1,5.5-1.7,9.3-1.7
			c3.6,0,6.7,0.5,9.4,1.5c2.7,1,4.9,2.5,6.5,4.5l-5.7,6.5c-1.1-1.4-2.6-2.5-4.4-3.3c-1.8-0.8-3.6-1.2-5.3-1.2
			c-1.1,0-2.1,0.1-2.8,0.3c-0.8,0.2-1.3,0.5-1.7,0.9c-0.4,0.4-0.6,0.8-0.6,1.4c0,0.6,0.3,1.1,0.9,1.6c0.6,0.4,1.7,0.8,3.3,1.2
			l6.4,1.3c3.6,0.7,6.2,1.9,7.8,3.6c1.6,1.7,2.4,3.8,2.4,6.3c0,2.3-0.6,4.4-1.8,6.2c-1.2,1.8-3,3.3-5.5,4.3S533.3,82.3,529.6,82.3z"
			/>
	</g>
	<path class="st2" d="M552,74.4c1.3,0,2.4,0.3,3.1,1c0.7,0.7,1.1,1.6,1.1,2.8c0,1.2-0.4,2.1-1.1,2.8c-0.7,0.7-1.8,1-3.1,1
		c-1.3,0-2.3-0.3-3.1-1c-0.8-0.7-1.1-1.6-1.1-2.8c0-1.2,0.4-2.1,1.1-2.8C549.7,74.7,550.7,74.4,552,74.4z"/>
	<path class="st2" d="M568.7,60.1c2.1,0,3.9,0.3,5.3,0.9c1.4,0.6,2.5,1.4,3.3,2.4c0.8,1,1.3,2.1,1.5,3.2l-6.6,2.2
		c-0.2-1.2-0.6-2.1-1.1-2.7c-0.5-0.6-1.3-0.9-2.3-0.9c-0.9,0-1.7,0.2-2.3,0.6c-0.6,0.4-1.1,1.1-1.4,1.9s-0.5,2-0.5,3.4
		s0.2,2.5,0.5,3.3c0.3,0.9,0.8,1.5,1.4,1.9c0.6,0.4,1.3,0.6,2.2,0.6c0.7,0,1.3-0.1,1.7-0.4c0.5-0.3,0.8-0.7,1.2-1.2
		c0.3-0.5,0.5-1.1,0.6-1.9l6.4,2.1c-0.2,1.2-0.7,2.3-1.6,3.3c-0.9,1-2,1.7-3.4,2.3c-1.4,0.6-3,0.8-4.9,0.8c-2.3,0-4.3-0.4-6-1.3
		c-1.7-0.9-3-2.1-4-3.8c-0.9-1.6-1.4-3.6-1.4-5.9c0-2.3,0.5-4.3,1.4-5.9c0.9-1.6,2.2-2.9,3.9-3.8C564.6,60.5,566.5,60.1,568.7,60.1z
		"/>
	<path class="st2" d="M591.4,60.1c2.2,0,4.2,0.4,5.8,1.3c1.7,0.9,3,2.1,3.9,3.8c0.9,1.6,1.4,3.6,1.4,5.9c0,2.3-0.5,4.3-1.4,5.9
		c-0.9,1.6-2.2,2.9-3.9,3.8c-1.7,0.9-3.6,1.3-5.8,1.3c-2.2,0-4.1-0.4-5.8-1.3c-1.7-0.9-3-2.1-3.9-3.8c-0.9-1.6-1.4-3.6-1.4-5.9
		c0-2.3,0.5-4.3,1.4-5.9c0.9-1.6,2.3-2.9,3.9-3.8C587.3,60.5,589.2,60.1,591.4,60.1z M591.4,65.2c-0.8,0-1.5,0.2-2.1,0.6
		c-0.6,0.4-1,1-1.3,1.9c-0.3,0.9-0.5,2-0.5,3.4c0,1.4,0.2,2.5,0.5,3.3c0.3,0.9,0.8,1.5,1.3,1.9c0.6,0.4,1.3,0.6,2.1,0.6
		c0.8,0,1.6-0.2,2.1-0.6c0.6-0.4,1-1,1.3-1.9c0.3-0.9,0.5-2,0.5-3.3c0-1.4-0.2-2.5-0.5-3.4c-0.3-0.9-0.8-1.5-1.3-1.9
		C593,65.4,592.3,65.2,591.4,65.2z"/>
	<path class="st2" d="M605.4,81.6V60.5h6.4l0.2,4.1c0.7-1.5,1.6-2.6,2.8-3.4c1.2-0.8,2.6-1.1,4.2-1.1c1.6,0,2.9,0.4,4.1,1.1
		c1.2,0.7,2,1.7,2.6,3.1c0.4-0.9,1-1.7,1.7-2.3c0.7-0.6,1.5-1.1,2.5-1.4c0.9-0.3,1.9-0.5,2.9-0.5c1.4,0,2.6,0.3,3.7,0.8
		c1.1,0.5,1.9,1.4,2.6,2.5c0.6,1.1,0.9,2.5,0.9,4.2v14h-7.2V69.2c0-1.3-0.3-2.3-0.8-2.8c-0.5-0.5-1.2-0.8-2.1-0.8
		c-0.7,0-1.3,0.2-1.9,0.5c-0.6,0.4-1,0.9-1.3,1.6c-0.3,0.7-0.5,1.6-0.5,2.7v11.3h-7.2V69.2c0-1.3-0.3-2.3-0.8-2.8
		c-0.5-0.5-1.2-0.8-2.1-0.8c-0.6,0-1.3,0.2-1.8,0.5c-0.6,0.3-1,0.9-1.4,1.6c-0.3,0.7-0.5,1.7-0.5,2.8v11.1H605.4z"/>
	<path class="st3" d="M294.5,75.1c-2.4-2.5-5.6-4.7-8.5-6.9c-2.3-1.8-5.3-3.9-4.4-6.6c0.4-1.2,1.8-2.4,3.5-2.9
		c4.9-1.3,6.8,2.5,8.8,4.4c0-1.9,0.5-3.8,1.5-5.6c0.5-0.9,1.1-1.8,2.3-2.3c1.7-0.8,4.1-0.6,5.5,0.3c1.4,0.9,2,2.2,2.1,3.5
		c0.2,2.9-1.6,5.8-3.8,8.4C299.2,70,296.5,72.4,294.5,75.1"/>
</g>
<g>
	<g>
		<path class="st1" d="M93.9,25.1c-4.5-4.4-14.4-1.3-21.5-2.4c-0.3-0.1-0.6-0.1-0.9-0.2c-0.1,0.1-0.1,0.3-0.2,0.4
			c-0.1-0.2-0.2-0.4-0.3-0.6c-6.3-2-10.4-9.9-23.9-10.4c-14.5-0.5-24.3-0.3-36.1,19.6C9.5,33.9,0.5,41.7,2.4,55
			c1.2,4,3,7.8,5.4,11.6c9.4-1.1,14.6-13.7,15.5-20.9c0.9-7.5,3.1-12.4,4.1-12.8c1-0.4,4.6,9.5,8.9,9.6c4.3,0.1,11.6-1.9,16.5,1.7
			c4.9,3.6,6.4,5.1,8.5,5.3c2.1,0.2,4.8,4,3.5,6.4c-1.3,2.5,0.3,5.1-1.6,6.8c-1.9,1.8-11,6.5-12.8,13.5C49,81,42.7,90.4,36.5,97.5
			c4.6,4,9.5,8.2,14.7,12.6c0.5,0.4,1,0.8,1.5,1.3c0.1-0.8,0.2-1.7,0.3-2.6c1.3-11.3,7.8-32.7,17.7-36.6
			C89.8,64.7,103,33.8,93.9,25.1z M61.2,25.7c-0.2,2.2-2.2,3.8-4.4,3.6c-2.2-0.2-3.8-2.2-3.6-4.4c0.2-2.2,2.2-3.8,4.4-3.6
			C59.8,21.5,61.4,23.5,61.2,25.7z"/>
	</g>
	<path class="st3" d="M57.6,21.3c2.2,0.2,3.8,2.2,3.6,4.4c-0.2,2.2-2.2,3.8-4.4,3.6c-2.2-0.2-3.8-2.2-3.6-4.4
		C53.5,22.7,55.4,21.1,57.6,21.3z"/>
	<path class="st3" d="M64.8,56c-1.3,2.5,0.3,5.1-1.6,6.8c-1.9,1.8-11,6.5-12.8,13.5C49,81,42.7,90.4,36.5,97.5
		C23.9,86.5,14,76.7,7.8,66.6c9.4-1.1,14.6-13.7,15.5-20.9c0.9-7.5,3.1-12.4,4.1-12.8c1-0.4,4.6,9.5,8.9,9.6
		c4.3,0.1,11.6-1.9,16.5,1.7c4.9,3.6,6.4,5.1,8.5,5.3C63.3,49.7,66.1,53.5,64.8,56z"/>
	<path class="st0" d="M2.4,55c-1.3-4.2-2-8.6-2-13.3C0.4,18.5,16.6,0.9,38,0.9c7.7,0,14.7,2.4,21,7.2c5.7,4.4,9.6,10,12,14.2
		c-6.3-2-10.4-9.9-23.9-10.4c-14.5-0.5-24.3-0.3-36.1,19.6C9.5,33.9,0.5,41.7,2.4,55z"/>
	<g>
		<path class="st1" d="M48.6,46.8c1.2,0.1,2.1,1.2,1.9,2.4c-0.1,1.2-1.2,2.1-2.4,1.9c-1.2-0.1-2.1-1.2-1.9-2.4
			C46.4,47.5,47.4,46.6,48.6,46.8z"/>
	</g>
	<path class="st4" d="M142.1,41.8c0,25.1-20.2,42.3-50.7,68.4c-5.2,4.4-11.1,9.4-17.2,14.8c-0.8,0.7-1.8,1.1-2.9,1.1
		c-1.1,0-2.1-0.4-2.9-1.1c-1.7-1.5-3.4-3-5.1-4.4c-3.7-3.2-7.3-6.3-10.6-9.1c0.1-0.8,0.2-1.7,0.3-2.6c1.3-11.3,7.8-32.7,17.7-36.6
		c19.2-7.5,32.4-38.5,23.4-47.1c-4.5-4.4-14.4-1.3-21.5-2.4c-0.3-0.1-0.6-0.1-0.9-0.2c2.4-4.2,6.3-9.9,12-14.3
		c5.7-4.4,12.2-6.9,19.2-7.2c0.6,0,1.2,0,1.8,0C125.9,0.9,142.1,18.5,142.1,41.8z"/>
</g>
</svg>
