<?xml version="1.0" encoding="utf-8"?>
<!-- Generator: Adobe Illustrator 25.0.0, SVG Export Plug-In . SVG Version: 6.00 Build 0)  -->
<svg version="1.1" id="Layer_1" xmlns="http://www.w3.org/2000/svg" xmlns:xlink="http://www.w3.org/1999/xlink" x="0px" y="0px"
	 viewBox="0 0 640 126" style="enable-background:new 0 0 640 126;" xml:space="preserve">
<style type="text/css">
	.st0{fill:#FFFFFF;}
	.st1{fill:#CCCCCC;}
	.st2{fill:#E6E6E6;}
	.st3{fill-rule:evenodd;clip-rule:evenodd;fill:#FFFFFF;}
</style>
<g>
	<g>
		<path class="st0" d="M197,35v46.4H209V35H197z M173.1,53.4v9.3h30.3v-9.3H173.1z M167.2,35v46.4h12.1V35H167.2z"/>
		<path class="st0" d="M248.1,53.6c-1.4-2.5-3.3-4.5-5.9-5.9c-2.6-1.4-5.8-2.1-9.5-2.1c-3.6,0-6.8,0.7-9.6,2.2
			c-2.8,1.5-5,3.5-6.5,6.2c-1.5,2.7-2.3,6-2.3,9.8c0,3.8,0.8,7.1,2.3,9.8c1.5,2.7,3.7,4.8,6.6,6.2c2.8,1.5,6.2,2.2,10.1,2.2
			c2.4,0,4.8-0.3,7-1s4.1-1.8,5.8-3.1c1.6-1.4,2.8-3.1,3.4-5.1l-9.5-3.2c-0.5,1.3-1.3,2.2-2.3,3s-2.5,1-4.2,1c-1.6,0-3-0.3-4.1-0.9
			c-1.1-0.6-2-1.7-2.6-3.1c-0.3-0.8-0.6-1.7-0.7-2.8h24c0.1-0.6,0.2-1.3,0.2-2.1c0-0.9,0.1-1.7,0.1-2.5
			C250.1,59,249.4,56.1,248.1,53.6z M226,60.5c0.1-0.8,0.3-1.5,0.5-2.2c0.5-1.5,1.3-2.6,2.4-3.3c1.1-0.7,2.3-1,3.8-1
			c2.1,0,3.7,0.8,4.7,2.2c0.7,1.1,1.2,2.5,1.4,4.3H226z"/>
		<path class="st0" d="M275.5,71.8c-1.8,0.8-3.7,1.7-3.9,1.7c-0.5,0.1-1.1,0.1-1.8,0.1c-1.2,0-2.1-0.3-2.6-1
			c-0.5-0.7-0.8-1.8-0.8-3.3V31.4h-11.9V71c0,3.9,0.8,6.8,2.5,8.5c1.7,1.7,4.4,2.6,8.1,2.6c1.3,0,2.6-0.2,4-0.5
			c0.9-0.2,4-1.6,6.3-2.8c1.3-0.6,2.3-1.1,2.6-1.3l0.8-7.2C278.6,70.5,277.1,71.1,275.5,71.8z"/>
		<path class="st0" d="M310.8,53.9c-1.2-2.7-2.9-4.8-5-6.2c-2.1-1.4-4.7-2.1-7.6-2.1c-2.3,0-4.3,0.5-6.1,1.5c-1.8,1-3.2,2.4-4.3,4.2
			c-0.4,0.6-0.8,1.3-1.1,2l-0.3-7.1h-10.7v49.9h11.9V75.3c0.7,1.5,1.6,2.8,2.8,4c2,1.9,4.5,2.8,7.7,2.8c2.9,0,5.4-0.7,7.6-2.2
			c2.2-1.5,3.9-3.5,5.1-6.3c1.2-2.8,1.8-6.1,1.8-9.9C312.5,59.8,312,56.6,310.8,53.9z M301.4,67.2c-2.2,2.6-5,5.1-6.9,7.8
			c-2.4-2.5-5.6-4.7-8.5-6.9c-2.3-1.8-5.3-3.9-4.4-6.6c0.4-1.2,1.8-2.4,3.5-2.9c0.4-0.1,0.8-0.2,1.2-0.2l0.7,0.7l0-0.8
			c3.6-0.1,5.2,3,7,4.7c0-1.9,0.5-3.8,1.5-5.6c0.5-0.9,1.1-1.8,2.3-2.3c1.7-0.8,4.1-0.6,5.5,0.3c1.4,0.9,2,2.2,2.1,3.5
			C305.4,61.6,303.6,64.5,301.4,67.2z"/>
		<path class="st0" d="M338.6,31c-1.4-0.4-3.1-0.6-5.1-0.6c-1.9,0-3.6,0.2-5.3,0.7c-1.7,0.5-3.2,1.2-4.5,2.2s-2.3,2.3-3.1,3.9
			c-0.7,1.6-1.1,3.5-1.1,5.8v38.3h11.9v-31l-0.7-2v-4.6c0-1.9,0.5-3.2,1.6-3.9c1.1-0.8,2.4-1.1,4-1.1c1,0,1.8,0.1,2.5,0.3
			c0.7,0.2,1.2,0.5,1.8,0.8l1.2-7.5C341.1,31.9,340,31.4,338.6,31z M314,46.3v8.5h33.1v-8.5H314z"/>
		<path class="st0" d="M367.2,46.3v18.8c0,1.4-0.2,2.5-0.5,3.5c-0.3,1-0.7,1.8-1.3,2.5s-1.2,1.1-2,1.4c-0.8,0.3-1.6,0.4-2.4,0.4
			c-1.6,0-2.9-0.4-3.8-1.3c-0.9-0.9-1.3-2.5-1.3-4.7V46.3H344v23.5c0,3,0.5,5.3,1.5,7.2c1,1.8,2.4,3.1,4.2,4
			c1.8,0.8,3.9,1.2,6.3,1.2c2.9,0,5.3-0.6,7.3-1.8c2-1.2,3.6-3,4.7-5.5l0.3,6.6h10.7V46.3H367.2z"/>
		<path class="st0" d="M405.2,71.4c-2.3,1.1-4.5,2.1-4.8,2.2c-0.5,0.1-1.1,0.1-1.8,0.1c-1.2,0-2.1-0.3-2.6-1
			c-0.5-0.7-0.8-1.8-0.8-3.3V31.4h-11.9V71c0,3.9,0.9,6.8,2.5,8.5c1.7,1.7,4.4,2.6,8.1,2.6c1.3,0,2.6-0.2,4-0.5
			c0.8-0.2,4.2-1.8,7.2-3.2c2.2-1.1,4.2-2.1,4.6-2.3l0.8-7.2C410.2,69.1,407.7,70.3,405.2,71.4z"/>
		<g>
			<path class="st0" d="M442.3,42.1c-1.4-2.3-3.4-4.1-6.1-5.3c-2.7-1.2-5.9-1.8-9.7-1.8h-21.3v46.4h12.1V65.9h9.2
				c3.8,0,7-0.6,9.7-1.8c2.7-1.2,4.7-3,6.1-5.3c1.4-2.3,2.1-5.1,2.1-8.4C444.4,47.2,443.7,44.4,442.3,42.1z M430.3,55.3
				c-1.3,1-3.2,1.6-5.7,1.6h-7.3V44.1h7.3c2.5,0,4.4,0.5,5.7,1.6s1.9,2.7,1.9,4.8S431.6,54.2,430.3,55.3z"/>
		</g>
		<g>
			<path class="st0" d="M480,53.6c-1.4-2.5-3.3-4.5-5.9-5.9c-2.6-1.4-5.8-2.1-9.5-2.1c-3.6,0-6.8,0.7-9.6,2.2
				c-2.8,1.5-5,3.5-6.5,6.2c-1.5,2.7-2.3,6-2.3,9.8c0,3.8,0.8,7.1,2.3,9.8c1.5,2.7,3.7,4.8,6.6,6.2c2.8,1.5,6.2,2.2,10.1,2.2
				c2.4,0,4.8-0.3,7-1c2.2-0.7,4.1-1.8,5.8-3.1c1.6-1.4,2.8-3.1,3.4-5.1l-9.5-3.2c-0.5,1.3-1.3,2.2-2.4,3c-1,0.7-2.5,1-4.2,1
				c-1.6,0-2.9-0.3-4.1-0.9c-1.1-0.6-2-1.7-2.6-3.1c-0.3-0.8-0.6-1.7-0.7-2.8h24c0.1-0.6,0.2-1.3,0.2-2.1c0-0.9,0.1-1.7,0.1-2.5
				C482,59,481.3,56.1,480,53.6z M457.9,60.5c0.1-0.8,0.3-1.5,0.5-2.2c0.5-1.5,1.3-2.6,2.4-3.3c1.1-0.7,2.3-1,3.8-1
				c2.1,0,3.7,0.8,4.7,2.2c0.7,1.1,1.2,2.5,1.4,4.3H457.9z"/>
		</g>
		<g>
			<path class="st0" d="M510.6,72c-0.7,0.5-1.4,0.9-2.2,1.2c-0.8,0.3-1.8,0.4-2.9,0.4c-1.4,0-2.6-0.4-3.4-1.1
				c-0.8-0.7-1.2-1.9-1.2-3.6V35.1l-11.9,3.3v32.5c0.1,2.7,0.6,4.9,1.7,6.5c1,1.6,2.5,2.8,4.5,3.6c2,0.8,4.2,1.1,6.9,1.1
				c1.9,0,3.7-0.2,5.5-0.7c1.8-0.5,3.2-1.1,4.4-2L510.6,72z M482.9,46.3v8.5h28.4v-8.5H482.9z"/>
		</g>
		<g>
			<path class="st0" d="M543.6,63.8c-1.6-1.7-4.2-2.9-7.8-3.6l-6.4-1.3c-1.6-0.3-2.7-0.7-3.3-1.2c-0.6-0.5-0.9-1-0.9-1.6
				c0-0.6,0.2-1,0.6-1.4c0.4-0.4,1-0.7,1.7-0.9c0.8-0.2,1.7-0.3,2.8-0.3c1.8,0,3.6,0.4,5.3,1.2c1.8,0.8,3.2,1.9,4.3,3.3l5.7-6.5
				c-1.6-2-3.8-3.5-6.5-4.5c-2.7-1-5.9-1.5-9.4-1.5c-3.8,0-6.9,0.6-9.3,1.6c-2.4,1.1-4.2,2.5-5.4,4.3c-1.2,1.8-1.8,3.6-1.8,5.5
				c0,2.9,0.9,5.2,2.8,6.9c1.8,1.8,5,3.1,9.4,4l4.9,1c1.4,0.3,2.3,0.6,2.8,1c0.5,0.4,0.7,0.9,0.7,1.6c0,0.9-0.5,1.5-1.4,2
				c-0.9,0.4-2.1,0.6-3.6,0.6c-2.4,0-4.6-0.5-6.5-1.5c-1.9-1-3.5-2.3-4.7-3.8l-5.6,6.6c2,2.2,4.5,3.8,7.5,5c3,1.1,6.3,1.7,9.8,1.7
				c3.7,0,6.8-0.5,9.2-1.6c2.4-1.1,4.3-2.5,5.5-4.3c1.2-1.8,1.8-3.9,1.8-6.2C546,67.6,545.2,65.5,543.6,63.8z"/>
		</g>
		<path class="st0" d="M555,75.1c-0.8-0.7-1.8-1-3.1-1c-1.3,0-2.3,0.3-3.1,1c-0.8,0.7-1.1,1.6-1.1,2.8c0,1.2,0.4,2.1,1.1,2.8
			c0.8,0.7,1.8,1,3.1,1c1.3,0,2.3-0.3,3.1-1c0.7-0.7,1.1-1.6,1.1-2.8C556.1,76.8,555.7,75.8,555,75.1z"/>
		<path class="st0" d="M572.4,73.3c-0.1,0.7-0.3,1.3-0.6,1.8c-0.3,0.5-0.7,0.9-1.2,1.2c-0.5,0.3-1,0.4-1.8,0.4
			c-0.8,0-1.6-0.2-2.2-0.6c-0.6-0.4-1.1-1-1.4-1.9c-0.3-0.9-0.5-2-0.5-3.3s0.2-2.5,0.5-3.4c0.3-0.9,0.8-1.5,1.4-1.9
			c0.6-0.4,1.4-0.6,2.3-0.6c1,0,1.7,0.3,2.2,0.9c0.5,0.6,0.9,1.5,1.1,2.7l6.6-2.2c-0.2-1.2-0.7-2.2-1.5-3.2c-0.8-1-1.9-1.8-3.3-2.4
			c-1.4-0.6-3.2-0.9-5.3-0.9c-2.2,0-4.1,0.4-5.8,1.3c-1.7,0.8-3,2.1-3.9,3.8c-0.9,1.6-1.4,3.6-1.4,5.9c0,2.3,0.5,4.3,1.4,5.9
			c0.9,1.7,2.2,2.9,4,3.8c1.7,0.9,3.7,1.3,6,1.3c1.9,0,3.5-0.3,4.9-0.8c1.4-0.6,2.5-1.3,3.4-2.3c0.9-1,1.4-2.1,1.6-3.3L572.4,73.3z"
			/>
		<path class="st0" d="M601,64.9c-0.9-1.7-2.2-2.9-3.9-3.8c-1.7-0.9-3.6-1.3-5.8-1.3c-2.2,0-4.1,0.4-5.8,1.3c-1.7,0.8-3,2.1-3.9,3.8
			c-0.9,1.6-1.4,3.6-1.4,5.9c0,2.3,0.5,4.3,1.4,5.9c0.9,1.7,2.3,2.9,3.9,3.8c1.7,0.9,3.6,1.3,5.8,1.3c2.2,0,4.2-0.4,5.8-1.3
			c1.7-0.8,3-2.1,3.9-3.8c0.9-1.6,1.4-3.6,1.4-5.9C602.5,68.5,602,66.6,601,64.9z M594.8,74.2c-0.3,0.9-0.8,1.5-1.3,1.9
			c-0.6,0.4-1.3,0.6-2.2,0.6c-0.8,0-1.5-0.2-2.1-0.6c-0.6-0.4-1-1-1.3-1.9c-0.3-0.9-0.5-2-0.5-3.3c0-1.4,0.2-2.5,0.5-3.4
			c0.3-0.9,0.8-1.5,1.3-1.9c0.6-0.4,1.3-0.6,2.1-0.6c0.9,0,1.6,0.2,2.2,0.6c0.6,0.4,1,1,1.3,1.9c0.3,0.9,0.5,2,0.5,3.4
			C595.2,72.2,595.1,73.3,594.8,74.2z"/>
		<path class="st0" d="M638.9,63.2c-0.6-1.1-1.5-1.9-2.5-2.5s-2.3-0.8-3.7-0.8c-1,0-1.9,0.2-2.9,0.5c-0.9,0.3-1.8,0.8-2.5,1.4
			c-0.7,0.6-1.3,1.4-1.8,2.3c-0.6-1.4-1.4-2.4-2.6-3.1c-1.2-0.7-2.5-1.1-4.1-1.1c-1.6,0-3,0.4-4.2,1.1c-1.2,0.8-2.2,1.9-2.8,3.4
			l-0.2-4.1h-6.4v21.1h7.2V70.3c0-1.2,0.2-2.1,0.5-2.8c0.3-0.7,0.8-1.2,1.4-1.6c0.6-0.3,1.2-0.5,1.8-0.5c0.8,0,1.5,0.3,2.1,0.8
			c0.5,0.5,0.8,1.5,0.8,2.8v12.4h7.2V70.1c0-1.1,0.1-2,0.5-2.7c0.3-0.7,0.8-1.2,1.3-1.6c0.6-0.3,1.2-0.5,1.9-0.5
			c0.9,0,1.6,0.3,2.1,0.8c0.5,0.5,0.8,1.5,0.8,2.8v12.4h7.2v-14C639.9,65.7,639.6,64.3,638.9,63.2z"/>
		<path class="st0" d="M286.9,59l-0.7-0.7c0.2,0,0.4,0,0.6,0L286.9,59z"/>
	</g>
	<g>
		<path class="st1" d="M93.9,24.9c-4.5-4.3-14.4-1.3-21.5-2.4c-0.3-0.1-0.6-0.1-0.9-0.2c-0.1,0.1-0.1,0.3-0.2,0.4
			c-0.1-0.2-0.2-0.4-0.3-0.6c-6.3-2-10.4-9.9-23.9-10.4c-14.5-0.5-24.3-0.3-36.1,19.6C9.5,33.7,0.4,41.5,2.4,54.8
			c1.2,4,3,7.8,5.4,11.6c9.4-1.1,14.6-13.7,15.5-20.9c0.9-7.5,3.1-12.4,4.1-12.8c1-0.3,4.6,9.5,8.9,9.6c4.3,0.1,11.6-1.9,16.5,1.7
			c4.9,3.6,6.4,5.1,8.5,5.3c2.1,0.2,4.8,4,3.5,6.4c-1.3,2.5,0.3,5.1-1.6,6.8c-1.9,1.8-11,6.5-12.8,13.5c-1.3,4.7-7.6,14.1-13.8,21.2
			c4.6,4,9.5,8.2,14.7,12.6c0.5,0.4,1,0.8,1.5,1.3c0.1-0.8,0.2-1.7,0.3-2.6c1.3-11.3,7.8-32.7,17.7-36.6
			C89.7,64.5,102.9,33.5,93.9,24.9z M61.2,25.5c-0.2,2.2-2.2,3.8-4.4,3.6c-2.2-0.2-3.8-2.2-3.6-4.4c0.2-2.2,2.2-3.8,4.4-3.6
			C59.8,21.3,61.4,23.3,61.2,25.5z"/>
	</g>
	<path class="st2" d="M57.6,21.1c2.2,0.2,3.8,2.2,3.6,4.4c-0.2,2.2-2.2,3.8-4.4,3.6c-2.2-0.2-3.8-2.2-3.6-4.4
		C53.4,22.5,55.4,20.9,57.6,21.1z"/>
	<path class="st0" d="M64.7,55.7c-1.3,2.5,0.3,5.1-1.6,6.8c-1.9,1.8-11,6.5-12.8,13.5c-1.3,4.7-7.6,14.1-13.8,21.2
		C23.9,86.3,14,76.5,7.7,66.4c9.4-1.1,14.6-13.7,15.5-20.9c0.9-7.5,3.1-12.4,4.1-12.8c1-0.3,4.6,9.5,8.9,9.6
		c4.3,0.1,11.6-1.9,16.5,1.7c4.9,3.6,6.4,5.1,8.5,5.3C63.2,49.5,66,53.3,64.7,55.7z"/>
	<path class="st0" d="M2.4,54.8c-1.3-4.2-2-8.6-2-13.3C0.4,18.3,16.6,0.7,38,0.7C45.7,0.7,52.7,3.2,59,8c5.7,4.4,9.6,10,11.9,14.2
		c-6.3-2-10.4-9.9-23.9-10.4c-14.5-0.5-24.3-0.3-36.1,19.6C9.5,33.7,0.4,41.5,2.4,54.8z"/>
	<g>
		<path class="st2" d="M48.6,46.5c1.2,0.1,2.1,1.2,1.9,2.4c-0.1,1.2-1.2,2.1-2.4,1.9c-1.2-0.1-2.1-1.2-1.9-2.4
			C46.4,47.3,47.4,46.4,48.6,46.5z"/>
	</g>
	<path class="st3" d="M142,41.6c0,25.1-20.2,42.3-50.7,68.4c-5.2,4.4-11.1,9.4-17.2,14.8c-0.8,0.7-1.8,1.1-2.9,1.1
		c-1.1,0-2.1-0.4-2.9-1.1c-1.7-1.5-3.4-3-5.1-4.4c-3.7-3.2-7.3-6.3-10.6-9.1c0.1-0.8,0.2-1.7,0.3-2.6c1.3-11.3,7.8-32.7,17.7-36.6
		c19.2-7.5,32.4-38.4,23.4-47.1c-4.5-4.3-14.4-1.3-21.5-2.4c-0.3-0.1-0.6-0.1-0.9-0.2c2.4-4.2,6.3-9.9,12-14.3
		c5.7-4.4,12.2-6.9,19.2-7.2c0.6,0,1.2,0,1.8,0C125.9,0.7,142,18.3,142,41.6z"/>
</g>
</svg>
