<svg width="219" height="43" viewBox="0 0 219 43" fill="none" xmlns="http://www.w3.org/2000/svg">
<path d="M25.1086 3.61043V31.6904H18.2686V20.1304H7.62859V31.6904H0.788594V3.61043H7.62859V14.6104H18.2686V3.61043H25.1086ZM51.0864 20.1704C51.0864 20.8104 51.0464 21.4771 50.9664 22.1704H35.4864C35.5931 23.5571 36.0331 24.6238 36.8064 25.3704C37.6064 26.0904 38.5797 26.4504 39.7264 26.4504C41.4331 26.4504 42.6197 25.7304 43.2864 24.2904H50.5664C50.1931 25.7571 49.5131 27.0771 48.5264 28.2504C47.5664 29.4238 46.3531 30.3438 44.8864 31.0104C43.4197 31.6771 41.7797 32.0104 39.9664 32.0104C37.7797 32.0104 35.8331 31.5438 34.1264 30.6104C32.4197 29.6771 31.0864 28.3438 30.1264 26.6104C29.1664 24.8771 28.6864 22.8504 28.6864 20.5304C28.6864 18.2104 29.1531 16.1838 30.0864 14.4504C31.0464 12.7171 32.3797 11.3838 34.0864 10.4504C35.7931 9.51709 37.7531 9.05043 39.9664 9.05043C42.1264 9.05043 44.0464 9.50376 45.7264 10.4104C47.4064 11.3171 48.7131 12.6104 49.6464 14.2904C50.6064 15.9704 51.0864 17.9304 51.0864 20.1704ZM44.0864 18.3704C44.0864 17.1971 43.6864 16.2638 42.8864 15.5704C42.0864 14.8771 41.0864 14.5304 39.8864 14.5304C38.7397 14.5304 37.7664 14.8638 36.9664 15.5304C36.1931 16.1971 35.7131 17.1438 35.5264 18.3704H44.0864ZM61.5348 12.5304C62.2015 11.4904 63.1215 10.6504 64.2948 10.0104C65.4682 9.37043 66.8415 9.05043 68.4148 9.05043C70.2548 9.05043 71.9215 9.51709 73.4148 10.4504C74.9082 11.3838 76.0815 12.7171 76.9348 14.4504C77.8148 16.1838 78.2548 18.1971 78.2548 20.4904C78.2548 22.7838 77.8148 24.8104 76.9348 26.5704C76.0815 28.3038 74.9082 29.6504 73.4148 30.6104C71.9215 31.5438 70.2548 32.0104 68.4148 32.0104C66.8682 32.0104 65.4948 31.6904 64.2948 31.0504C63.1215 30.4104 62.2015 29.5838 61.5348 28.5704V42.3304H54.6948V9.37043H61.5348V12.5304ZM71.2948 20.4904C71.2948 18.7838 70.8148 17.4504 69.8548 16.4904C68.9215 15.5038 67.7615 15.0104 66.3748 15.0104C65.0148 15.0104 63.8548 15.5038 62.8948 16.4904C61.9615 17.4771 61.4948 18.8238 61.4948 20.5304C61.4948 22.2371 61.9615 23.5838 62.8948 24.5704C63.8548 25.5571 65.0148 26.0504 66.3748 26.0504C67.7348 26.0504 68.8948 25.5571 69.8548 24.5704C70.8148 23.5571 71.2948 22.1971 71.2948 20.4904ZM93.0433 15.0504H89.3633V31.6904H82.5233V15.0504H80.0433V9.37043H82.5233V8.73043C82.5233 5.98376 83.3099 3.90376 84.8833 2.49043C86.4566 1.05043 88.7633 0.330428 91.8033 0.330428C92.3099 0.330428 92.6833 0.343761 92.9233 0.370428V6.17043C91.6166 6.09043 90.6966 6.2771 90.1633 6.73043C89.6299 7.18376 89.3633 7.99709 89.3633 9.17043V9.37043H93.0433V15.0504ZM118.297 9.37043V31.6904H111.457V28.6504C110.764 29.6371 109.817 30.4371 108.617 31.0504C107.444 31.6371 106.137 31.9304 104.697 31.9304C102.991 31.9304 101.484 31.5571 100.177 30.8104C98.8707 30.0371 97.8573 28.9304 97.1373 27.4904C96.4173 26.0504 96.0573 24.3571 96.0573 22.4104V9.37043H102.857V21.4904C102.857 22.9838 103.244 24.1438 104.017 24.9704C104.791 25.7971 105.831 26.2104 107.137 26.2104C108.471 26.2104 109.524 25.7971 110.297 24.9704C111.071 24.1438 111.457 22.9838 111.457 21.4904V9.37043H118.297ZM130.05 2.09043V31.6904H123.21V2.09043H130.05ZM156.407 12.6504C156.407 14.2771 156.034 15.7704 155.287 17.1304C154.541 18.4638 153.394 19.5438 151.847 20.3704C150.301 21.1971 148.381 21.6104 146.087 21.6104H141.847V31.6904H135.007V3.61043H146.087C148.327 3.61043 150.221 3.9971 151.767 4.77043C153.314 5.54376 154.474 6.61043 155.247 7.97043C156.021 9.33043 156.407 10.8904 156.407 12.6504ZM145.567 16.1704C146.874 16.1704 147.847 15.8638 148.487 15.2504C149.127 14.6371 149.447 13.7704 149.447 12.6504C149.447 11.5304 149.127 10.6638 148.487 10.0504C147.847 9.4371 146.874 9.13043 145.567 9.13043H141.847V16.1704H145.567ZM181.008 20.1704C181.008 20.8104 180.968 21.4771 180.888 22.1704H165.408C165.515 23.5571 165.955 24.6238 166.728 25.3704C167.528 26.0904 168.502 26.4504 169.648 26.4504C171.355 26.4504 172.542 25.7304 173.208 24.2904H180.488C180.115 25.7571 179.435 27.0771 178.448 28.2504C177.488 29.4238 176.275 30.3438 174.808 31.0104C173.342 31.6771 171.702 32.0104 169.888 32.0104C167.702 32.0104 165.755 31.5438 164.048 30.6104C162.342 29.6771 161.008 28.3438 160.048 26.6104C159.088 24.8771 158.608 22.8504 158.608 20.5304C158.608 18.2104 159.075 16.1838 160.008 14.4504C160.968 12.7171 162.302 11.3838 164.008 10.4504C165.715 9.51709 167.675 9.05043 169.888 9.05043C172.048 9.05043 173.968 9.50376 175.648 10.4104C177.328 11.3171 178.635 12.6104 179.568 14.2904C180.528 15.9704 181.008 17.9304 181.008 20.1704ZM174.008 18.3704C174.008 17.1971 173.608 16.2638 172.808 15.5704C172.008 14.8771 171.008 14.5304 169.808 14.5304C168.662 14.5304 167.688 14.8638 166.888 15.5304C166.115 16.1971 165.635 17.1438 165.448 18.3704H174.008ZM197.057 25.8904V31.6904H193.577C191.097 31.6904 189.163 31.0904 187.777 29.8904C186.39 28.6638 185.697 26.6771 185.697 23.9304V15.0504H182.977V9.37043H185.697V3.93043H192.537V9.37043H197.017V15.0504H192.537V24.0104C192.537 24.6771 192.697 25.1571 193.017 25.4504C193.337 25.7438 193.87 25.8904 194.617 25.8904H197.057ZM209.947 32.0104C208 32.0104 206.267 31.6771 204.747 31.0104C203.227 30.3438 202.027 29.4371 201.147 28.2904C200.267 27.1171 199.773 25.8104 199.667 24.3704H206.427C206.507 25.1438 206.867 25.7704 207.507 26.2504C208.147 26.7304 208.933 26.9704 209.867 26.9704C210.72 26.9704 211.373 26.8104 211.827 26.4904C212.307 26.1438 212.547 25.7038 212.547 25.1704C212.547 24.5304 212.213 24.0638 211.547 23.7704C210.88 23.4504 209.8 23.1038 208.307 22.7304C206.707 22.3571 205.373 21.9704 204.307 21.5704C203.24 21.1438 202.32 20.4904 201.547 19.6104C200.773 18.7038 200.387 17.4904 200.387 15.9704C200.387 14.6904 200.733 13.5304 201.427 12.4904C202.147 11.4238 203.187 10.5838 204.547 9.97043C205.933 9.35709 207.573 9.05043 209.467 9.05043C212.267 9.05043 214.467 9.74376 216.067 11.1304C217.693 12.5171 218.627 14.3571 218.867 16.6504H212.547C212.44 15.8771 212.093 15.2638 211.507 14.8104C210.947 14.3571 210.2 14.1304 209.267 14.1304C208.467 14.1304 207.853 14.2904 207.427 14.6104C207 14.9038 206.787 15.3171 206.787 15.8504C206.787 16.4904 207.12 16.9704 207.787 17.2904C208.48 17.6104 209.547 17.9304 210.987 18.2504C212.64 18.6771 213.987 19.1038 215.027 19.5304C216.067 19.9304 216.973 20.5971 217.747 21.5304C218.547 22.4371 218.96 23.6638 218.987 25.2104C218.987 26.5171 218.613 27.6904 217.867 28.7304C217.147 29.7438 216.093 30.5438 214.707 31.1304C213.347 31.7171 211.76 32.0104 209.947 32.0104Z" fill="white"/>
</svg>
