<svg width="219" height="43" viewBox="0 0 219 43" fill="none" xmlns="http://www.w3.org/2000/svg">
<path d="M25.1086 3.91998V32H18.2686V20.44H7.62859V32H0.788594V3.91998H7.62859V14.92H18.2686V3.91998H25.1086ZM51.0864 20.48C51.0864 21.12 51.0464 21.7867 50.9664 22.48H35.4864C35.5931 23.8667 36.0331 24.9333 36.8064 25.68C37.6064 26.4 38.5797 26.76 39.7264 26.76C41.4331 26.76 42.6197 26.04 43.2864 24.6H50.5664C50.1931 26.0667 49.5131 27.3867 48.5264 28.56C47.5664 29.7333 46.3531 30.6533 44.8864 31.32C43.4197 31.9867 41.7797 32.32 39.9664 32.32C37.7797 32.32 35.8331 31.8533 34.1264 30.92C32.4197 29.9867 31.0864 28.6533 30.1264 26.92C29.1664 25.1867 28.6864 23.16 28.6864 20.84C28.6864 18.52 29.1531 16.4933 30.0864 14.76C31.0464 13.0267 32.3797 11.6933 34.0864 10.76C35.7931 9.82665 37.7531 9.35998 39.9664 9.35998C42.1264 9.35998 44.0464 9.81332 45.7264 10.72C47.4064 11.6267 48.7131 12.92 49.6464 14.6C50.6064 16.28 51.0864 18.24 51.0864 20.48ZM44.0864 18.68C44.0864 17.5067 43.6864 16.5733 42.8864 15.88C42.0864 15.1867 41.0864 14.84 39.8864 14.84C38.7397 14.84 37.7664 15.1733 36.9664 15.84C36.1931 16.5067 35.7131 17.4533 35.5264 18.68H44.0864ZM61.5348 12.84C62.2015 11.8 63.1215 10.96 64.2948 10.32C65.4682 9.67998 66.8415 9.35998 68.4148 9.35998C70.2548 9.35998 71.9215 9.82665 73.4148 10.76C74.9082 11.6933 76.0815 13.0267 76.9348 14.76C77.8148 16.4933 78.2548 18.5067 78.2548 20.8C78.2548 23.0933 77.8148 25.12 76.9348 26.88C76.0815 28.6133 74.9082 29.96 73.4148 30.92C71.9215 31.8533 70.2548 32.32 68.4148 32.32C66.8682 32.32 65.4948 32 64.2948 31.36C63.1215 30.72 62.2015 29.8933 61.5348 28.88V42.64H54.6948V9.67998H61.5348V12.84ZM71.2948 20.8C71.2948 19.0933 70.8148 17.76 69.8548 16.8C68.9215 15.8133 67.7615 15.32 66.3748 15.32C65.0148 15.32 63.8548 15.8133 62.8948 16.8C61.9615 17.7867 61.4948 19.1333 61.4948 20.84C61.4948 22.5467 61.9615 23.8933 62.8948 24.88C63.8548 25.8667 65.0148 26.36 66.3748 26.36C67.7348 26.36 68.8948 25.8667 69.8548 24.88C70.8148 23.8667 71.2948 22.5067 71.2948 20.8ZM93.0433 15.36H89.3633V32H82.5233V15.36H80.0433V9.67998H82.5233V9.03998C82.5233 6.29332 83.3099 4.21332 84.8833 2.79998C86.4566 1.35998 88.7633 0.639983 91.8033 0.639983C92.3099 0.639983 92.6833 0.653316 92.9233 0.679983V6.47998C91.6166 6.39998 90.6966 6.58665 90.1633 7.03998C89.6299 7.49332 89.3633 8.30665 89.3633 9.47998V9.67998H93.0433V15.36ZM118.297 9.67998V32H111.457V28.96C110.764 29.9467 109.817 30.7467 108.617 31.36C107.444 31.9467 106.137 32.24 104.697 32.24C102.991 32.24 101.484 31.8667 100.177 31.12C98.8707 30.3467 97.8573 29.24 97.1373 27.8C96.4173 26.36 96.0573 24.6667 96.0573 22.72V9.67998H102.857V21.8C102.857 23.2933 103.244 24.4533 104.017 25.28C104.791 26.1067 105.831 26.52 107.137 26.52C108.471 26.52 109.524 26.1067 110.297 25.28C111.071 24.4533 111.457 23.2933 111.457 21.8V9.67998H118.297ZM130.05 2.39998V32H123.21V2.39998H130.05ZM156.407 12.96C156.407 14.5867 156.034 16.08 155.287 17.44C154.541 18.7733 153.394 19.8533 151.847 20.68C150.301 21.5067 148.381 21.92 146.087 21.92H141.847V32H135.007V3.91998H146.087C148.327 3.91998 150.221 4.30665 151.767 5.07998C153.314 5.85332 154.474 6.91998 155.247 8.27998C156.021 9.63998 156.407 11.2 156.407 12.96ZM145.567 16.48C146.874 16.48 147.847 16.1733 148.487 15.56C149.127 14.9467 149.447 14.08 149.447 12.96C149.447 11.84 149.127 10.9733 148.487 10.36C147.847 9.74665 146.874 9.43998 145.567 9.43998H141.847V16.48H145.567ZM181.008 20.48C181.008 21.12 180.968 21.7867 180.888 22.48H165.408C165.515 23.8667 165.955 24.9333 166.728 25.68C167.528 26.4 168.502 26.76 169.648 26.76C171.355 26.76 172.542 26.04 173.208 24.6H180.488C180.115 26.0667 179.435 27.3867 178.448 28.56C177.488 29.7333 176.275 30.6533 174.808 31.32C173.342 31.9867 171.702 32.32 169.888 32.32C167.702 32.32 165.755 31.8533 164.048 30.92C162.342 29.9867 161.008 28.6533 160.048 26.92C159.088 25.1867 158.608 23.16 158.608 20.84C158.608 18.52 159.075 16.4933 160.008 14.76C160.968 13.0267 162.302 11.6933 164.008 10.76C165.715 9.82665 167.675 9.35998 169.888 9.35998C172.048 9.35998 173.968 9.81332 175.648 10.72C177.328 11.6267 178.635 12.92 179.568 14.6C180.528 16.28 181.008 18.24 181.008 20.48ZM174.008 18.68C174.008 17.5067 173.608 16.5733 172.808 15.88C172.008 15.1867 171.008 14.84 169.808 14.84C168.662 14.84 167.688 15.1733 166.888 15.84C166.115 16.5067 165.635 17.4533 165.448 18.68H174.008ZM197.057 26.2V32H193.577C191.097 32 189.163 31.4 187.777 30.2C186.39 28.9733 185.697 26.9867 185.697 24.24V15.36H182.977V9.67998H185.697V4.23998H192.537V9.67998H197.017V15.36H192.537V24.32C192.537 24.9867 192.697 25.4667 193.017 25.76C193.337 26.0533 193.87 26.2 194.617 26.2H197.057ZM209.947 32.32C208 32.32 206.267 31.9867 204.747 31.32C203.227 30.6533 202.027 29.7467 201.147 28.6C200.267 27.4267 199.773 26.12 199.667 24.68H206.427C206.507 25.4533 206.867 26.08 207.507 26.56C208.147 27.04 208.933 27.28 209.867 27.28C210.72 27.28 211.373 27.12 211.827 26.8C212.307 26.4533 212.547 26.0133 212.547 25.48C212.547 24.84 212.213 24.3733 211.547 24.08C210.88 23.76 209.8 23.4133 208.307 23.04C206.707 22.6667 205.373 22.28 204.307 21.88C203.24 21.4533 202.32 20.8 201.547 19.92C200.773 19.0133 200.387 17.8 200.387 16.28C200.387 15 200.733 13.84 201.427 12.8C202.147 11.7333 203.187 10.8933 204.547 10.28C205.933 9.66665 207.573 9.35998 209.467 9.35998C212.267 9.35998 214.467 10.0533 216.067 11.44C217.693 12.8267 218.627 14.6667 218.867 16.96H212.547C212.44 16.1867 212.093 15.5733 211.507 15.12C210.947 14.6667 210.2 14.44 209.267 14.44C208.467 14.44 207.853 14.6 207.427 14.92C207 15.2133 206.787 15.6267 206.787 16.16C206.787 16.8 207.12 17.28 207.787 17.6C208.48 17.92 209.547 18.24 210.987 18.56C212.64 18.9867 213.987 19.4133 215.027 19.84C216.067 20.24 216.973 20.9067 217.747 21.84C218.547 22.7467 218.96 23.9733 218.987 25.52C218.987 26.8267 218.613 28 217.867 29.04C217.147 30.0533 216.093 30.8533 214.707 31.44C213.347 32.0267 211.76 32.32 209.947 32.32Z" fill="#234683"/>
</svg>
