<svg width="24" height="14" viewBox="0 0 24 14" fill="none" xmlns="http://www.w3.org/2000/svg">
<path d="M13.5673 0.502349C13.8449 0.214089 14.2143 0.0547278 14.5976 0.0578909C14.9808 0.061054 15.348 0.226495 15.6216 0.519303C15.8951 0.812111 16.0537 1.20938 16.0638 1.62729C16.074 2.0452 15.9349 2.45106 15.6759 2.75923L7.81301 13.4848C7.67781 13.6436 7.51463 13.7711 7.33322 13.8596C7.15182 13.948 6.95592 13.9957 6.75724 13.9997C6.55856 14.0037 6.36118 13.964 6.1769 13.8829C5.99262 13.8018 5.82522 13.681 5.68472 13.5278L0.470408 7.84043C0.325198 7.69285 0.208729 7.51487 0.127948 7.31713C0.0471678 7.11939 0.00373142 6.90592 0.000230015 6.68947C-0.00327139 6.47302 0.033234 6.25801 0.107569 6.05728C0.181903 5.85656 0.292544 5.67421 0.43289 5.52114C0.573237 5.36806 0.740414 5.24738 0.924448 5.1663C1.10848 5.08522 1.3056 5.04541 1.50405 5.04922C1.7025 5.05304 1.89821 5.10042 2.07951 5.18853C2.26081 5.27664 2.42398 5.40367 2.55929 5.56206L6.68581 10.0608L13.5279 0.549636L13.5673 0.502349ZM11.7543 11.5503L13.5673 13.5278C13.7078 13.6807 13.875 13.8012 14.0591 13.8821C14.2432 13.963 14.4404 14.0026 14.6388 13.9986C14.8372 13.9946 15.0329 13.947 15.2141 13.8588C15.3954 13.7705 15.5584 13.6433 15.6936 13.4848L23.5604 2.75923C23.7017 2.60705 23.8135 2.42538 23.889 2.22505C23.9645 2.02472 24.0022 1.80985 23.9999 1.59326C23.9976 1.37668 23.9553 1.16282 23.8755 0.964468C23.7957 0.766114 23.6801 0.587329 23.5356 0.438789C23.3911 0.29025 23.2206 0.175002 23.0343 0.0999279C22.848 0.0248542 22.6498 -0.00850602 22.4514 0.00184019C22.2531 0.0121864 22.0587 0.0660272 21.8798 0.160146C21.7009 0.254265 21.5413 0.386731 21.4104 0.549636L14.5664 10.0608L13.6106 9.01615L11.7543 11.5503Z" fill="#24B2BC"/>
</svg>
