<svg width="1360" height="326" viewBox="0 0 1360 326" fill="none" xmlns="http://www.w3.org/2000/svg">
<g opacity="0.1">
<path d="M102.256 104.027C62.3631 104.027 68.5511 147.356 68.5511 147.356C68.5511 147.356 54.4436 129.812 37.5978 138.417C20.7519 147.021 29.2755 166.511 29.2755 166.511C29.2755 166.511 0 160.081 0 179.679C0 199.276 65.5981 196.806 110.914 196.806C156.23 196.806 210.029 194.122 210.298 181.048C210.58 167.974 186.163 166.497 186.163 166.497C186.163 166.497 191.962 145.276 171.693 131.517C151.425 117.759 131.116 136.336 131.116 136.336C131.116 136.336 132.847 104 102.243 104L102.256 104.027Z" fill="#E5DCB7"/>
<path d="M1270.09 121.022C1236.9 121.022 1242.04 156.933 1242.04 156.933C1242.04 156.933 1230.3 142.393 1216.29 149.524C1202.27 156.655 1209.36 172.808 1209.36 172.808C1209.36 172.808 1185 167.48 1185 183.722C1185 199.964 1239.59 197.917 1277.3 197.917C1315.01 197.917 1359.77 195.692 1360 184.856C1360.23 174.021 1339.91 172.797 1339.91 172.797C1339.91 172.797 1344.74 155.209 1327.87 143.806C1311.01 132.403 1294.11 147.8 1294.11 147.8C1294.11 147.8 1295.55 121 1270.08 121L1270.09 121.022Z" fill="#E5DCB7"/>
<path d="M481.344 0C460.767 0 459.357 22.5909 459.357 22.5909C459.357 22.5909 455.438 13.2216 447.814 16.9801C440.19 20.7385 444.458 31.5306 444.458 31.5306C444.458 31.5306 436.713 31.8259 437.008 35.6648C437.29 39.5038 455.438 39.1951 489.881 39.1951C524.325 39.1951 537.224 39.1683 537.184 33.1682C537.13 27.1547 521.278 26.0674 521.278 26.0674C521.278 26.0674 521.882 8.7652 509.385 6.37591C496.888 3.98662 494.66 13.5975 494.66 13.5975C494.66 13.5975 493.68 0.0268517 481.331 0.0268517L481.344 0Z" fill="#E5DCB7"/>
<path d="M972.344 286C951.767 286 950.357 308.591 950.357 308.591C950.357 308.591 946.438 299.222 938.814 302.98C931.19 306.738 935.458 317.531 935.458 317.531C935.458 317.531 927.713 317.826 928.008 321.665C928.29 325.504 946.438 325.195 980.881 325.195C1015.32 325.195 1028.22 325.168 1028.18 319.168C1028.13 313.155 1012.28 312.067 1012.28 312.067C1012.28 312.067 1012.88 294.765 1000.38 292.376C987.888 289.987 985.66 299.597 985.66 299.597C985.66 299.597 984.68 286.027 972.331 286.027L972.344 286Z" fill="#E5DCB7"/>
</g>
</svg>
