<svg width="184" height="28" viewBox="0 0 184 28" fill="none" xmlns="http://www.w3.org/2000/svg">
<path opacity="0.2" d="M10.6696 0.128457C9.32648 0.137449 8.1617 0.908402 7.42557 1.95514C6.68944 3.00187 6.3043 4.35001 6.31404 5.80596C6.32379 7.26192 6.72696 8.60603 7.47704 9.64282C8.22712 10.6796 9.40211 11.4336 10.7452 11.4246C12.0883 11.4157 13.2531 10.6447 13.9892 9.59796C14.7254 8.55123 15.1105 7.20309 15.1008 5.74714C15.091 4.29118 14.6879 2.94707 13.9378 1.91028C13.1877 0.873497 12.0127 0.119465 10.6696 0.128457ZM15.1008 5.74714C15.1105 7.20309 15.5137 8.54721 16.2638 9.58399C17.0138 10.6208 18.1901 11.3748 19.5319 11.3658C20.8751 11.3568 22.0398 10.5859 22.776 9.53914C23.5121 8.4924 23.8972 7.14426 23.8875 5.68831C23.8777 4.23236 23.4746 2.88824 22.7245 1.85145C21.9744 0.81467 20.7994 0.0606379 19.4563 0.06963C18.1132 0.0786222 16.9484 0.849575 16.2123 1.89631C15.4762 2.94304 15.091 4.29118 15.1008 5.74714ZM10.6864 2.63872C11.078 2.6361 11.5111 2.82901 11.909 3.37612C12.3018 3.922 12.5838 4.79373 12.5903 5.76394C12.5968 6.73416 12.3265 7.61084 11.941 8.16068C11.5505 8.71307 11.12 8.91176 10.7284 8.91438C10.3368 8.917 9.90366 8.72409 9.50583 8.17698C9.11303 7.6311 8.83103 6.75937 8.82454 5.78916C8.81804 4.81894 9.08834 3.94226 9.4738 3.39242C9.86427 2.84003 10.2948 2.64134 10.6864 2.63872ZM19.4731 2.57989C19.8648 2.57727 20.2979 2.77018 20.6957 3.31729C21.0885 3.86318 21.3705 4.7349 21.377 5.70512C21.3835 6.67533 21.1132 7.55201 20.7277 8.10185C20.3373 8.65424 19.9068 8.85293 19.5151 8.85555C19.1235 8.85817 18.6904 8.66526 18.2926 8.11816C17.8998 7.57227 17.6178 6.70055 17.6113 5.73033C17.6048 4.76011 17.8751 3.88344 18.2605 3.33359C18.651 2.78121 19.0815 2.58252 19.4731 2.57989ZM4.45218 8.9564C3.10907 8.96539 1.94429 9.73634 1.20816 10.7831C0.472027 11.8298 0.0868882 13.178 0.0966358 14.6339C0.106383 16.0899 0.509547 17.434 1.25963 18.4708C2.00971 19.5075 3.1847 20.2616 4.52781 20.2526C5.87092 20.2436 7.0357 19.4726 7.77183 18.4259C8.50797 17.3792 8.89311 16.031 8.88336 14.5751C8.87361 13.1191 8.47045 11.775 7.72037 10.7382C6.97029 9.70144 5.7953 8.94741 4.45218 8.9564ZM25.7914 8.81353C24.4483 8.82252 23.2835 9.59348 22.5473 10.6402C21.8112 11.6869 21.4261 13.0351 21.4358 14.491C21.4456 15.947 21.8487 17.2911 22.5988 18.3279C23.3489 19.3647 24.5239 20.1187 25.867 20.1097C27.2101 20.1007 28.3749 19.3298 29.111 18.283C29.8471 17.2363 30.2323 15.8882 30.2225 14.4322C30.2128 12.9763 29.8096 11.6321 29.0595 10.5954C28.3095 9.55857 27.1345 8.80454 25.7914 8.81353ZM4.46899 11.4667C4.86063 11.464 5.29374 11.657 5.69157 12.2041C6.08437 12.7499 6.36637 13.6217 6.37287 14.5919C6.37936 15.5621 6.10906 16.4388 5.7236 16.9886C5.33314 17.541 4.90264 17.7397 4.511 17.7423C4.11937 17.7449 3.68625 17.552 3.28842 17.0049C2.89563 16.4603 2.61362 15.5873 2.60713 14.6171C2.60063 13.6469 2.87093 12.7702 3.25639 12.2204C3.64686 11.668 4.07735 11.4693 4.46899 11.4667ZM25.8082 11.3238C26.1998 11.3212 26.6329 11.5141 27.0307 12.0612C27.4235 12.6071 27.7056 13.4788 27.712 14.449C27.7185 15.4192 27.4482 16.2959 27.0628 16.8458C26.6723 17.3981 26.2418 17.5968 25.8502 17.5995C25.4585 17.6021 25.0254 17.4092 24.6276 16.8621C24.2348 16.3162 23.9528 15.4444 23.9463 14.4742C23.9398 13.504 24.2101 12.6273 24.5956 12.0775C24.986 11.5251 25.4165 11.3264 25.8082 11.3238ZM15.1554 13.9055C13.4821 13.9167 12.322 15.0102 11.7548 15.9679C11.1913 16.9257 10.8451 17.7213 10.5134 18.0548C10.3227 18.2532 9.11445 18.7169 7.85598 19.3692C7.22675 19.696 6.59322 20.1308 6.06164 20.7933C5.5263 21.4559 5.16837 22.3683 5.1752 23.3887C5.19134 25.7986 7.1879 27.7684 9.59797 27.7523C10.685 27.745 11.8174 27.386 12.9262 27.0647C14.04 26.736 15.2394 26.4568 15.2394 26.4568C15.2394 26.4568 16.4425 26.7199 17.558 27.0312C18.6723 27.3376 19.8094 27.6814 20.8964 27.6741C23.3065 27.658 25.2765 25.6616 25.2604 23.2517C25.2537 22.2552 24.8798 21.3464 24.3395 20.7099C23.8018 20.0696 23.1564 19.676 22.5278 19.3476C21.2681 18.6908 20.0307 18.1719 19.8512 17.9923C19.548 17.6969 19.2036 16.8795 18.6197 15.9245C18.0371 14.9657 16.8374 13.8942 15.1554 13.9055ZM15.1722 16.4158C16.0007 16.4102 16.0936 16.6104 16.4706 17.2305C16.8513 17.8492 17.1396 18.9029 18.057 19.8093C19.0995 20.8316 20.4089 21.0487 21.3651 21.5494C21.8438 21.7998 22.2096 22.0672 22.4298 22.3268C22.6487 22.5852 22.7469 22.8217 22.7499 23.266C22.7569 24.3204 21.934 25.1543 20.8796 25.1614C20.5156 25.1638 19.3413 24.8955 18.2472 24.589C17.153 24.2863 16.2469 23.9372 15.2226 23.944C14.1983 23.9509 13.2969 24.3121 12.2069 24.6295C11.117 24.9506 9.94641 25.2345 9.58239 25.237C8.52798 25.244 7.69397 24.4212 7.68692 23.3669C7.68353 22.8611 7.78723 22.6006 7.99389 22.3431C8.20055 22.0869 8.58297 21.8321 9.04833 21.5917C9.97904 21.1085 11.2782 20.9116 12.3318 19.8439C13.2457 18.9127 13.5146 17.8214 13.8833 17.2039C14.2457 16.5864 14.3324 16.4164 15.1709 16.4107L15.1722 16.4158Z" fill="white"/>
<path opacity="0.4" d="M61.7165 0.128457C60.3734 0.137449 59.2086 0.908402 58.4724 1.95514C57.7363 3.00187 57.3512 4.35001 57.3609 5.80596C57.3707 7.26192 57.7738 8.60603 58.5239 9.64282C59.274 10.6796 60.449 11.4336 61.7921 11.4246C63.1352 11.4157 64.3 10.6447 65.0361 9.59796C65.7722 8.55123 66.1574 7.20309 66.1476 5.74714C66.1379 4.29118 65.7347 2.94707 64.9846 1.91028C64.2346 0.873497 63.0596 0.119465 61.7165 0.128457ZM66.1476 5.74714C66.1574 7.20309 66.5606 8.54721 67.3106 9.58399C68.0607 10.6208 69.237 11.3748 70.5788 11.3658C71.9219 11.3568 73.0867 10.5859 73.8228 9.53914C74.559 8.4924 74.9441 7.14426 74.9344 5.68831C74.9246 4.23236 74.5215 2.88824 73.7714 1.85145C73.0213 0.81467 71.8463 0.0606379 70.5032 0.06963C69.1601 0.0786222 67.9953 0.849575 67.2592 1.89631C66.523 2.94304 66.1379 4.29118 66.1476 5.74714ZM61.7333 2.63872C62.1249 2.6361 62.558 2.82901 62.9559 3.37612C63.3487 3.922 63.6307 4.79373 63.6371 5.76394C63.6436 6.73416 63.3733 7.61084 62.9879 8.16068C62.5974 8.71307 62.1669 8.91176 61.7753 8.91438C61.3837 8.917 60.9505 8.72409 60.5527 8.17698C60.1599 7.6311 59.8779 6.75937 59.8714 5.78916C59.8649 4.81894 60.1352 3.94226 60.5207 3.39242C60.9111 2.84003 61.3416 2.64134 61.7333 2.63872ZM70.52 2.57989C70.9116 2.57727 71.3447 2.77018 71.7426 3.31729C72.1354 3.86318 72.4174 4.7349 72.4239 5.70512C72.4304 6.67533 72.1601 7.55201 71.7746 8.10185C71.3841 8.65424 70.9536 8.85293 70.562 8.85555C70.1704 8.85817 69.7373 8.66526 69.3394 8.11816C68.9466 7.57227 68.6646 6.70055 68.6581 5.73033C68.6516 4.76011 68.9219 3.88344 69.3074 3.33359C69.6979 2.78121 70.1284 2.58252 70.52 2.57989ZM55.4991 8.9564C54.1559 8.96539 52.9912 9.73634 52.255 10.7831C51.5189 11.8298 51.1338 13.178 51.1435 14.6339C51.1533 16.0899 51.5564 17.434 52.3065 18.4708C53.0566 19.5075 54.2316 20.2616 55.5747 20.2526C56.9178 20.2436 58.0826 19.4726 58.8187 18.4259C59.5548 17.3792 59.94 16.031 59.9302 14.5751C59.9205 13.1191 59.5173 11.775 58.7672 10.7382C58.0172 9.70144 56.8422 8.94741 55.4991 8.9564ZM76.8382 8.81353C75.4951 8.82252 74.3303 9.59348 73.5942 10.6402C72.8581 11.6869 72.4729 13.0351 72.4827 14.491C72.4924 15.947 72.8956 17.2911 73.6457 18.3279C74.3958 19.3647 75.5708 20.1187 76.9139 20.1097C78.257 20.1007 79.4218 19.3298 80.1579 18.283C80.894 17.2363 81.2792 15.8882 81.2694 14.4322C81.2597 12.9763 80.8565 11.6321 80.1064 10.5954C79.3563 9.55857 78.1814 8.80454 76.8382 8.81353ZM55.5159 11.4667C55.9075 11.464 56.3406 11.657 56.7384 12.2041C57.1312 12.7499 57.4132 13.6217 57.4197 14.5919C57.4262 15.5621 57.1559 16.4388 56.7705 16.9886C56.38 17.541 55.9495 17.7397 55.5579 17.7423C55.1662 17.7449 54.7331 17.552 54.3353 17.0049C53.9425 16.4603 53.6605 15.5873 53.654 14.6171C53.6475 13.6469 53.9178 12.7702 54.3033 12.2204C54.6937 11.668 55.1242 11.4693 55.5159 11.4667ZM76.855 11.3238C77.2467 11.3212 77.6798 11.5141 78.0776 12.0612C78.4704 12.6071 78.7524 13.4788 78.7589 14.449C78.7654 15.4192 78.4951 16.2959 78.1097 16.8458C77.7192 17.3981 77.2887 17.5968 76.8971 17.5995C76.5054 17.6021 76.0723 17.4092 75.6745 16.8621C75.2817 16.3162 74.9997 15.4444 74.9932 14.4742C74.9867 13.504 75.257 12.6273 75.6424 12.0775C76.0329 11.5251 76.4634 11.3264 76.855 11.3238ZM66.2023 13.9055C64.529 13.9167 63.3689 15.0102 62.8016 15.9679C62.2382 16.9257 61.892 17.7213 61.5603 18.0548C61.3696 18.2532 60.1613 18.7169 58.9029 19.3692C58.2736 19.696 57.6401 20.1308 57.1085 20.7933C56.5732 21.4559 56.2152 22.3683 56.2221 23.3887C56.2382 25.7986 58.2348 27.7684 60.6448 27.7523C61.7319 27.745 62.8643 27.386 63.9731 27.0647C65.0868 26.736 66.2863 26.4568 66.2863 26.4568C66.2863 26.4568 67.4894 26.7199 68.6049 27.0312C69.7192 27.3376 70.8563 27.6814 71.9433 27.6741C74.3534 27.658 76.3234 25.6616 76.3073 23.2517C76.3006 22.2552 75.9267 21.3464 75.3864 20.7099C74.8486 20.0696 74.2033 19.676 73.5747 19.3476C72.315 18.6908 71.0775 18.1719 70.8981 17.9923C70.5948 17.6969 70.2504 16.8795 69.6666 15.9245C69.084 14.9657 67.8843 13.8942 66.2023 13.9055ZM66.2191 16.4158C67.0475 16.4102 67.1405 16.6104 67.5175 17.2305C67.8982 17.8492 68.1865 18.9029 69.1039 19.8093C70.1463 20.8316 71.4558 21.0487 72.412 21.5494C72.8906 21.7998 73.2565 22.0672 73.4766 22.3268C73.6955 22.5852 73.7938 22.8217 73.7967 23.266C73.8038 24.3204 72.9809 25.1543 71.9265 25.1614C71.5625 25.1638 70.3882 24.8955 69.294 24.589C68.1999 24.2863 67.2937 23.9372 66.2695 23.944C65.2452 23.9509 64.3438 24.3121 63.2538 24.6295C62.1638 24.9506 60.9933 25.2345 60.6293 25.237C59.5749 25.244 58.7408 24.4212 58.7338 23.3669C58.7304 22.8611 58.8341 22.6006 59.0408 22.3431C59.2474 22.0869 59.6298 21.8321 60.0952 21.5917C61.0259 21.1085 62.3251 20.9116 63.3787 19.8439C64.2926 18.9127 64.5614 17.8214 64.9301 17.2039C65.2925 16.5864 65.3793 16.4164 66.2178 16.4107L66.2191 16.4158Z" fill="white"/>
<path opacity="0.6" d="M112.765 0.128457C111.422 0.137449 110.257 0.908402 109.521 1.95514C108.785 3.00187 108.4 4.35001 108.41 5.80596C108.419 7.26192 108.823 8.60603 109.573 9.64282C110.323 10.6796 111.498 11.4336 112.841 11.4246C114.184 11.4157 115.349 10.6447 116.085 9.59796C116.821 8.55123 117.206 7.20309 117.196 5.74714C117.187 4.29118 116.784 2.94707 116.033 1.91028C115.283 0.873497 114.108 0.119465 112.765 0.128457ZM117.196 5.74714C117.206 7.20309 117.609 8.54721 118.359 9.58399C119.11 10.6208 120.286 11.3748 121.628 11.3658C122.971 11.3568 124.136 10.5859 124.872 9.53914C125.608 8.4924 125.993 7.14426 125.983 5.68831C125.973 4.23236 125.57 2.88824 124.82 1.85145C124.07 0.81467 122.895 0.0606379 121.552 0.06963C120.209 0.0786222 119.044 0.849575 118.308 1.89631C117.572 2.94304 117.187 4.29118 117.196 5.74714ZM112.782 2.63872C113.174 2.6361 113.607 2.82901 114.005 3.37612C114.397 3.922 114.679 4.79373 114.686 5.76394C114.692 6.73416 114.422 7.61084 114.037 8.16068C113.646 8.71307 113.216 8.91176 112.824 8.91438C112.432 8.917 111.999 8.72409 111.602 8.17698C111.209 7.6311 110.927 6.75937 110.92 5.78916C110.914 4.81894 111.184 3.94226 111.57 3.39242C111.96 2.84003 112.39 2.64134 112.782 2.63872ZM121.569 2.57989C121.96 2.57727 122.394 2.77018 122.791 3.31729C123.184 3.86318 123.466 4.7349 123.473 5.70512C123.479 6.67533 123.209 7.55201 122.823 8.10185C122.433 8.65424 122.002 8.85293 121.611 8.85555C121.219 8.85817 120.786 8.66526 120.388 8.11816C119.995 7.57227 119.713 6.70055 119.707 5.73033C119.7 4.76011 119.971 3.88344 120.356 3.33359C120.747 2.78121 121.177 2.58252 121.569 2.57989ZM106.548 8.9564C105.205 8.96539 104.04 9.73634 103.304 10.7831C102.568 11.8298 102.183 13.178 102.192 14.6339C102.202 16.0899 102.605 17.434 103.355 18.4708C104.105 19.5075 105.28 20.2616 106.624 20.2526C107.967 20.2436 109.131 19.4726 109.868 18.4259C110.604 17.3792 110.989 16.031 110.979 14.5751C110.969 13.1191 110.566 11.775 109.816 10.7382C109.066 9.70144 107.891 8.94741 106.548 8.9564ZM127.887 8.81353C126.544 8.82252 125.379 9.59348 124.643 10.6402C123.907 11.6869 123.522 13.0351 123.532 14.491C123.541 15.947 123.944 17.2911 124.695 18.3279C125.445 19.3647 126.62 20.1187 127.963 20.1097C129.306 20.1007 130.471 19.3298 131.207 18.283C131.943 17.2363 132.328 15.8882 132.318 14.4322C132.308 12.9763 131.905 11.6321 131.155 10.5954C130.405 9.55857 129.23 8.80454 127.887 8.81353ZM106.565 11.4667C106.956 11.464 107.389 11.657 107.787 12.2041C108.18 12.7499 108.462 13.6217 108.469 14.5919C108.475 15.5621 108.205 16.4388 107.819 16.9886C107.429 17.541 106.998 17.7397 106.607 17.7423C106.215 17.7449 105.782 17.552 105.384 17.0049C104.991 16.4603 104.709 15.5873 104.703 14.6171C104.696 13.6469 104.967 12.7702 105.352 12.2204C105.743 11.668 106.173 11.4693 106.565 11.4667ZM127.904 11.3238C128.296 11.3212 128.729 11.5141 129.126 12.0612C129.519 12.6071 129.801 13.4788 129.808 14.449C129.814 15.4192 129.544 16.2959 129.158 16.8458C128.768 17.3981 128.338 17.5968 127.946 17.5995C127.554 17.6021 127.121 17.4092 126.723 16.8621C126.331 16.3162 126.049 15.4444 126.042 14.4742C126.036 13.504 126.306 12.6273 126.691 12.0775C127.082 11.5251 127.512 11.3264 127.904 11.3238ZM117.251 13.9055C115.578 13.9167 114.418 15.0102 113.85 15.9679C113.287 16.9257 112.941 17.7213 112.609 18.0548C112.418 18.2532 111.21 18.7169 109.952 19.3692C109.322 19.696 108.689 20.1308 108.157 20.7933C107.622 21.4559 107.264 22.3683 107.271 23.3887C107.287 25.7986 109.284 27.7684 111.694 27.7523C112.781 27.745 113.913 27.386 115.022 27.0647C116.136 26.736 117.335 26.4568 117.335 26.4568C117.335 26.4568 118.538 26.7199 119.654 27.0312C120.768 27.3376 121.905 27.6814 122.992 27.6741C125.402 27.658 127.372 25.6616 127.356 23.2517C127.349 22.2552 126.976 21.3464 126.435 20.7099C125.897 20.0696 125.252 19.676 124.624 19.3476C123.364 18.6908 122.126 18.1719 121.947 17.9923C121.644 17.6969 121.299 16.8795 120.715 15.9245C120.133 14.9657 118.933 13.8942 117.251 13.9055ZM117.268 16.4158C118.096 16.4102 118.189 16.6104 118.566 17.2305C118.947 17.8492 119.235 18.9029 120.153 19.8093C121.195 20.8316 122.505 21.0487 123.461 21.5494C123.939 21.7998 124.305 22.0672 124.525 22.3268C124.744 22.5852 124.843 22.8217 124.846 23.266C124.853 24.3204 124.03 25.1543 122.975 25.1614C122.611 25.1638 121.437 24.8955 120.343 24.589C119.249 24.2863 118.343 23.9372 117.318 23.944C116.294 23.9509 115.393 24.3121 114.303 24.6295C113.213 24.9506 112.042 25.2345 111.678 25.237C110.624 25.244 109.79 24.4212 109.783 23.3669C109.779 22.8611 109.883 22.6006 110.09 22.3431C110.296 22.0869 110.679 21.8321 111.144 21.5917C112.075 21.1085 113.374 20.9116 114.428 19.8439C115.341 18.9127 115.61 17.8214 115.979 17.2039C116.341 16.5864 116.428 16.4164 117.267 16.4107L117.268 16.4158Z" fill="white"/>
<path opacity="0.8" d="M163.814 0.128457C162.471 0.137449 161.306 0.908402 160.57 1.95514C159.834 3.00187 159.449 4.35001 159.459 5.80596C159.468 7.26192 159.871 8.60603 160.622 9.64282C161.372 10.6796 162.547 11.4336 163.89 11.4246C165.233 11.4157 166.398 10.6447 167.134 9.59796C167.87 8.55123 168.255 7.20309 168.245 5.74714C168.236 4.29118 167.832 2.94707 167.082 1.91028C166.332 0.873497 165.157 0.119465 163.814 0.128457ZM168.245 5.74714C168.255 7.20309 168.658 8.54721 169.408 9.58399C170.158 10.6208 171.335 11.3748 172.676 11.3658C174.02 11.3568 175.184 10.5859 175.92 9.53914C176.657 8.4924 177.042 7.14426 177.032 5.68831C177.022 4.23236 176.619 2.88824 175.869 1.85145C175.119 0.81467 173.944 0.0606379 172.601 0.06963C171.258 0.0786222 170.093 0.849575 169.357 1.89631C168.621 2.94304 168.236 4.29118 168.245 5.74714ZM163.831 2.63872C164.223 2.6361 164.656 2.82901 165.054 3.37612C165.446 3.922 165.728 4.79373 165.735 5.76394C165.741 6.73416 165.471 7.61084 165.086 8.16068C164.695 8.71307 164.265 8.91176 163.873 8.91438C163.481 8.917 163.048 8.72409 162.65 8.17698C162.258 7.6311 161.976 6.75937 161.969 5.78916C161.963 4.81894 162.233 3.94226 162.618 3.39242C163.009 2.84003 163.439 2.64134 163.831 2.63872ZM172.618 2.57989C173.009 2.57727 173.442 2.77018 173.84 3.31729C174.233 3.86318 174.515 4.7349 174.522 5.70512C174.528 6.67533 174.258 7.55201 173.872 8.10185C173.482 8.65424 173.051 8.85293 172.66 8.85555C172.268 8.85817 171.835 8.66526 171.437 8.11816C171.044 7.57227 170.762 6.70055 170.756 5.73033C170.749 4.76011 171.02 3.88344 171.405 3.33359C171.796 2.78121 172.226 2.58252 172.618 2.57989ZM157.597 8.9564C156.254 8.96539 155.089 9.73634 154.353 10.7831C153.617 11.8298 153.231 13.178 153.241 14.6339C153.251 16.0899 153.654 17.434 154.404 18.4708C155.154 19.5075 156.329 20.2616 157.672 20.2526C159.015 20.2436 160.18 19.4726 160.916 18.4259C161.652 17.3792 162.038 16.031 162.028 14.5751C162.018 13.1191 161.615 11.775 160.865 10.7382C160.115 9.70144 158.94 8.94741 157.597 8.9564ZM178.936 8.81353C177.593 8.82252 176.428 9.59348 175.692 10.6402C174.956 11.6869 174.571 13.0351 174.58 14.491C174.59 15.947 174.993 17.2911 175.743 18.3279C176.493 19.3647 177.668 20.1187 179.012 20.1097C180.355 20.1007 181.519 19.3298 182.256 18.283C182.992 17.2363 183.377 15.8882 183.367 14.4322C183.357 12.9763 182.954 11.6321 182.204 10.5954C181.454 9.55857 180.279 8.80454 178.936 8.81353ZM157.614 11.4667C158.005 11.464 158.438 11.657 158.836 12.2041C159.229 12.7499 159.511 13.6217 159.517 14.5919C159.524 15.5621 159.254 16.4388 158.868 16.9886C158.478 17.541 158.047 17.7397 157.656 17.7423C157.264 17.7449 156.831 17.552 156.433 17.0049C156.04 16.4603 155.758 15.5873 155.752 14.6171C155.745 13.6469 156.015 12.7702 156.401 12.2204C156.791 11.668 157.222 11.4693 157.614 11.4667ZM178.953 11.3238C179.344 11.3212 179.777 11.5141 180.175 12.0612C180.568 12.6071 180.85 13.4788 180.857 14.449C180.863 15.4192 180.593 16.2959 180.207 16.8458C179.817 17.3981 179.386 17.5968 178.995 17.5995C178.603 17.6021 178.17 17.4092 177.772 16.8621C177.379 16.3162 177.097 15.4444 177.091 14.4742C177.084 13.504 177.355 12.6273 177.74 12.0775C178.131 11.5251 178.561 11.3264 178.953 11.3238ZM168.3 13.9055C166.627 13.9167 165.467 15.0102 164.899 15.9679C164.336 16.9257 163.99 17.7213 163.658 18.0548C163.467 18.2532 162.259 18.7169 161.001 19.3692C160.371 19.696 159.738 20.1308 159.206 20.7933C158.671 21.4559 158.313 22.3683 158.32 23.3887C158.336 25.7986 160.332 27.7684 162.743 27.7523C163.83 27.745 164.962 27.386 166.071 27.0647C167.184 26.736 168.384 26.4568 168.384 26.4568C168.384 26.4568 169.587 26.7199 170.703 27.0312C171.817 27.3376 172.954 27.6814 174.041 27.6741C176.451 27.658 178.421 25.6616 178.405 23.2517C178.398 22.2552 178.024 21.3464 177.484 20.7099C176.946 20.0696 176.301 19.676 175.672 19.3476C174.413 18.6908 173.175 18.1719 172.996 17.9923C172.692 17.6969 172.348 16.8795 171.764 15.9245C171.182 14.9657 169.982 13.8942 168.3 13.9055ZM168.317 16.4158C169.145 16.4102 169.238 16.6104 169.615 17.2305C169.996 17.8492 170.284 18.9029 171.202 19.8093C172.244 20.8316 173.553 21.0487 174.51 21.5494C174.988 21.7998 175.354 22.0672 175.574 22.3268C175.793 22.5852 175.891 22.8217 175.894 23.266C175.901 24.3204 175.079 25.1543 174.024 25.1614C173.66 25.1638 172.486 24.8955 171.392 24.589C170.298 24.2863 169.391 23.9372 168.367 23.944C167.343 23.9509 166.441 24.3121 165.351 24.6295C164.261 24.9506 163.091 25.2345 162.727 25.237C161.673 25.244 160.839 24.4212 160.831 23.3669C160.828 22.8611 160.932 22.6006 161.138 22.3431C161.345 22.0869 161.728 21.8321 162.193 21.5917C163.124 21.1085 164.423 20.9116 165.476 19.8439C166.39 18.9127 166.659 17.8214 167.028 17.2039C167.39 16.5864 167.477 16.4164 168.315 16.4107L168.317 16.4158Z" fill="white"/>
</svg>
