<svg width="194" height="28" viewBox="0 0 194 28" fill="none" xmlns="http://www.w3.org/2000/svg">
<path d="M10.6696 0.132485C9.32648 0.141478 8.1617 0.91243 7.42557 1.95916C6.68944 3.0059 6.3043 4.35404 6.31404 5.80999C6.32379 7.26595 6.72696 8.61006 7.47704 9.64685C8.22712 10.6836 9.40211 11.4377 10.7452 11.4287C12.0883 11.4197 13.2531 10.6487 13.9892 9.60199C14.7254 8.55526 15.1105 7.20712 15.1008 5.75117C15.091 4.29521 14.6879 2.95109 13.9378 1.91431C13.1877 0.877526 12.0127 0.123493 10.6696 0.132485ZM15.1008 5.75117C15.1105 7.20712 15.5137 8.55124 16.2638 9.58802C17.0138 10.6248 18.1901 11.3788 19.5319 11.3698C20.8751 11.3609 22.0398 10.5899 22.776 9.54317C23.5121 8.49643 23.8972 7.14829 23.8875 5.69234C23.8777 4.23639 23.4746 2.89227 22.7245 1.85548C21.9744 0.818699 20.7994 0.0646662 19.4563 0.0736584C18.1132 0.0826505 16.9484 0.853603 16.2123 1.90034C15.4762 2.94707 15.091 4.29521 15.1008 5.75117ZM10.6864 2.64275C11.078 2.64013 11.5112 2.83304 11.909 3.38015C12.3018 3.92603 12.5838 4.79776 12.5903 5.76797C12.5968 6.73819 12.3265 7.61487 11.941 8.16471C11.5505 8.71709 11.1201 8.91579 10.7284 8.91841C10.3368 8.92103 9.90366 8.72812 9.50583 8.18101C9.11304 7.63512 8.83103 6.7634 8.82454 5.79318C8.81804 4.82297 9.08834 3.94629 9.4738 3.39645C9.86427 2.84406 10.2948 2.64537 10.6864 2.64275ZM19.4731 2.58392C19.8648 2.5813 20.2979 2.77421 20.6957 3.32132C21.0885 3.86721 21.3705 4.73893 21.377 5.70915C21.3835 6.67936 21.1132 7.55604 20.7277 8.10588C20.3373 8.65827 19.9068 8.85696 19.5151 8.85958C19.1235 8.8622 18.6904 8.66929 18.2926 8.12218C17.8998 7.5763 17.6178 6.70457 17.6113 5.73436C17.6048 4.76414 17.8751 3.88746 18.2605 3.33762C18.651 2.78524 19.0815 2.58654 19.4731 2.58392ZM4.45218 8.96043C3.10907 8.96942 1.94429 9.74037 1.20816 10.7871C0.472027 11.8338 0.0868882 13.182 0.0966358 14.6379C0.106383 16.0939 0.509547 17.438 1.25963 18.4748C2.00971 19.5116 3.1847 20.2656 4.52781 20.2566C5.87092 20.2476 7.0357 19.4767 7.77184 18.4299C8.50797 17.3832 8.89311 16.0351 8.88336 14.5791C8.87361 13.1232 8.47045 11.779 7.72037 10.7423C6.97029 9.70547 5.7953 8.95143 4.45218 8.96043ZM25.7914 8.81756C24.4483 8.82655 23.2835 9.59751 22.5473 10.6442C21.8112 11.691 21.4261 13.0391 21.4358 14.4951C21.4456 15.951 21.8487 17.2951 22.5988 18.3319C23.3489 19.3687 24.5239 20.1227 25.867 20.1137C27.2101 20.1048 28.3749 19.3338 29.111 18.2871C29.8472 17.2403 30.2323 15.8922 30.2225 14.4362C30.2128 12.9803 29.8096 11.6362 29.0596 10.5994C28.3095 9.5626 27.1345 8.80857 25.7914 8.81756ZM4.46899 11.4707C4.86063 11.4681 5.29374 11.661 5.69157 12.2081C6.08437 12.754 6.36637 13.6257 6.37287 14.5959C6.37936 15.5661 6.10907 16.4428 5.7236 16.9927C5.33314 17.545 4.90264 17.7437 4.51101 17.7463C4.11937 17.749 3.68625 17.5561 3.28843 17.009C2.89564 16.4643 2.61362 15.5913 2.60713 14.6211C2.60063 13.6509 2.87093 12.7742 3.25639 12.2244C3.64686 11.672 4.07735 11.4733 4.46899 11.4707ZM25.8082 11.3278C26.1998 11.3252 26.6329 11.5181 27.0308 12.0652C27.4236 12.6111 27.7056 13.4828 27.7121 14.453C27.7185 15.4233 27.4482 16.2999 27.0628 16.8498C26.6723 17.4022 26.2418 17.6009 25.8502 17.6035C25.4586 17.6061 25.0254 17.4132 24.6276 16.8661C24.2348 16.3202 23.9528 15.4485 23.9463 14.4783C23.9398 13.508 24.2101 12.6314 24.5956 12.0815C24.986 11.5291 25.4165 11.3304 25.8082 11.3278ZM15.1554 13.9095C13.4821 13.9207 12.322 15.0142 11.7548 15.972C11.1913 16.9297 10.8451 17.7253 10.5134 18.0589C10.3227 18.2572 9.11445 18.7209 7.85598 19.3733C7.22675 19.7001 6.59322 20.1348 6.06164 20.7974C5.5263 21.4599 5.16837 22.3723 5.1752 23.3928C5.19134 25.8026 7.1879 27.7724 9.59798 27.7563C10.685 27.749 11.8174 27.39 12.9262 27.0688C14.04 26.74 15.2394 26.4608 15.2394 26.4608C15.2394 26.4608 16.4425 26.7239 17.558 27.0353C18.6723 27.3416 19.8094 27.6854 20.8964 27.6782C23.3065 27.662 25.2765 25.6656 25.2604 23.2558C25.2537 22.2592 24.8798 21.3504 24.3395 20.7139C23.8018 20.0736 23.1564 19.68 22.5278 19.3516C21.2681 18.6948 20.0307 18.1759 19.8512 17.9964C19.548 17.7009 19.2036 16.8836 18.6197 15.9285C18.0371 14.9697 16.8374 13.8983 15.1554 13.9095ZM15.1722 16.4198C16.0007 16.4142 16.0936 16.6144 16.4706 17.2345C16.8513 17.8533 17.1396 18.9069 18.057 19.8133C19.0995 20.8356 20.409 21.0528 21.3651 21.5535C21.8438 21.8038 22.2096 22.0712 22.4298 22.3308C22.6487 22.5892 22.7469 22.8258 22.7499 23.2701C22.7569 24.3244 21.934 25.1583 20.8796 25.1654C20.5156 25.1678 19.3413 24.8995 18.2472 24.5931C17.153 24.2904 16.2469 23.9412 15.2226 23.9481C14.1983 23.9549 13.2969 24.3162 12.2069 24.6335C11.117 24.9546 9.94641 25.2386 9.58239 25.241C8.52799 25.2481 7.69398 24.4252 7.68692 23.3709C7.68353 22.8651 7.78723 22.6046 7.99389 22.3471C8.20055 22.091 8.58297 21.8361 9.04833 21.5958C9.97904 21.1126 11.2782 20.9156 12.3318 19.8479C13.2457 18.9167 13.5146 17.8254 13.8833 17.2079C14.2457 16.5904 14.3324 16.4204 15.1709 16.4148L15.1722 16.4198Z" fill="white"/>
<path opacity="0.6" d="M61.7165 0.132486C60.3734 0.141478 59.2086 0.91243 58.4724 1.95916C57.7363 3.0059 57.3512 4.35404 57.3609 5.80999C57.3707 7.26595 57.7738 8.61006 58.5239 9.64685C59.274 10.6836 60.449 11.4377 61.7921 11.4287C63.1352 11.4197 64.3 10.6487 65.0361 9.60199C65.7722 8.55526 66.1574 7.20712 66.1476 5.75117C66.1379 4.29521 65.7347 2.95109 64.9846 1.91431C64.2346 0.877526 63.0596 0.123493 61.7165 0.132486ZM66.1476 5.75117C66.1574 7.20712 66.5606 8.55123 67.3106 9.58802C68.0607 10.6248 69.237 11.3788 70.5788 11.3698C71.9219 11.3609 73.0867 10.5899 73.8228 9.54317C74.559 8.49643 74.9441 7.14829 74.9344 5.69234C74.9246 4.23639 74.5215 2.89227 73.7714 1.85548C73.0213 0.818699 71.8463 0.0646662 70.5032 0.0736584C69.1601 0.0826505 67.9953 0.853603 67.2592 1.90034C66.523 2.94707 66.1379 4.29521 66.1476 5.75117ZM61.7333 2.64275C62.1249 2.64013 62.558 2.83304 62.9559 3.38015C63.3487 3.92603 63.6307 4.79776 63.6371 5.76797C63.6436 6.73819 63.3733 7.61487 62.9879 8.16471C62.5974 8.71709 62.1669 8.91579 61.7753 8.91841C61.3837 8.92103 60.9505 8.72812 60.5527 8.18101C60.1599 7.63512 59.8779 6.7634 59.8714 5.79318C59.8649 4.82297 60.1352 3.94629 60.5207 3.39645C60.9111 2.84406 61.3416 2.64537 61.7333 2.64275ZM70.52 2.58392C70.9116 2.5813 71.3447 2.77421 71.7426 3.32132C72.1354 3.86721 72.4174 4.73893 72.4239 5.70915C72.4304 6.67936 72.1601 7.55604 71.7746 8.10588C71.3841 8.65827 70.9536 8.85696 70.562 8.85958C70.1704 8.8622 69.7373 8.66929 69.3394 8.12218C68.9466 7.5763 68.6646 6.70457 68.6581 5.73436C68.6516 4.76414 68.9219 3.88746 69.3074 3.33762C69.6979 2.78524 70.1284 2.58654 70.52 2.58392ZM55.4991 8.96043C54.1559 8.96942 52.9912 9.74037 52.255 10.7871C51.5189 11.8338 51.1338 13.182 51.1435 14.6379C51.1533 16.0939 51.5564 17.438 52.3065 18.4748C53.0566 19.5116 54.2316 20.2656 55.5747 20.2566C56.9178 20.2476 58.0826 19.4767 58.8187 18.4299C59.5548 17.3832 59.94 16.0351 59.9302 14.5791C59.9205 13.1232 59.5173 11.779 58.7672 10.7423C58.0172 9.70547 56.8422 8.95143 55.4991 8.96043ZM76.8382 8.81756C75.4951 8.82655 74.3303 9.59751 73.5942 10.6442C72.8581 11.691 72.4729 13.0391 72.4827 14.4951C72.4924 15.951 72.8956 17.2951 73.6457 18.3319C74.3958 19.3687 75.5708 20.1227 76.9139 20.1137C78.257 20.1048 79.4218 19.3338 80.1579 18.2871C80.894 17.2403 81.2792 15.8922 81.2694 14.4362C81.2597 12.9803 80.8565 11.6362 80.1064 10.5994C79.3563 9.5626 78.1814 8.80857 76.8382 8.81756ZM55.5159 11.4707C55.9075 11.4681 56.3406 11.661 56.7384 12.2081C57.1312 12.754 57.4132 13.6257 57.4197 14.5959C57.4262 15.5661 57.1559 16.4428 56.7705 16.9927C56.38 17.545 55.9495 17.7437 55.5579 17.7463C55.1662 17.749 54.7331 17.5561 54.3353 17.009C53.9425 16.4643 53.6605 15.5913 53.654 14.6211C53.6475 13.6509 53.9178 12.7742 54.3033 12.2244C54.6937 11.672 55.1242 11.4733 55.5159 11.4707ZM76.855 11.3278C77.2467 11.3252 77.6798 11.5181 78.0776 12.0652C78.4704 12.6111 78.7524 13.4828 78.7589 14.453C78.7654 15.4233 78.4951 16.2999 78.1097 16.8498C77.7192 17.4022 77.2887 17.6009 76.8971 17.6035C76.5054 17.6061 76.0723 17.4132 75.6745 16.8661C75.2817 16.3202 74.9997 15.4485 74.9932 14.4783C74.9867 13.508 75.257 12.6314 75.6424 12.0815C76.0329 11.5291 76.4634 11.3304 76.855 11.3278ZM66.2023 13.9095C64.529 13.9207 63.3689 15.0142 62.8016 15.972C62.2382 16.9297 61.892 17.7253 61.5603 18.0589C61.3696 18.2572 60.1613 18.7209 58.9029 19.3733C58.2736 19.7001 57.6401 20.1348 57.1085 20.7974C56.5732 21.4599 56.2152 22.3723 56.2221 23.3928C56.2382 25.8026 58.2348 27.7724 60.6448 27.7563C61.7319 27.749 62.8643 27.39 63.9731 27.0688C65.0868 26.74 66.2863 26.4608 66.2863 26.4608C66.2863 26.4608 67.4894 26.7239 68.6049 27.0353C69.7192 27.3416 70.8563 27.6854 71.9433 27.6782C74.3534 27.662 76.3234 25.6656 76.3073 23.2558C76.3006 22.2592 75.9267 21.3504 75.3864 20.7139C74.8486 20.0736 74.2033 19.68 73.5747 19.3516C72.315 18.6948 71.0775 18.1759 70.8981 17.9964C70.5948 17.7009 70.2504 16.8836 69.6666 15.9285C69.084 14.9697 67.8843 13.8983 66.2023 13.9095ZM66.2191 16.4198C67.0475 16.4142 67.1405 16.6144 67.5175 17.2345C67.8982 17.8533 68.1865 18.9069 69.1039 19.8133C70.1463 20.8356 71.4558 21.0528 72.412 21.5535C72.8906 21.8038 73.2565 22.0712 73.4766 22.3308C73.6955 22.5892 73.7938 22.8258 73.7967 23.2701C73.8038 24.3244 72.9809 25.1583 71.9265 25.1654C71.5625 25.1678 70.3882 24.8995 69.294 24.5931C68.1999 24.2904 67.2937 23.9412 66.2695 23.9481C65.2452 23.9549 64.3438 24.3162 63.2538 24.6335C62.1638 24.9546 60.9933 25.2386 60.6293 25.241C59.5749 25.2481 58.7408 24.4252 58.7338 23.3709C58.7304 22.8651 58.8341 22.6046 59.0408 22.3471C59.2474 22.091 59.6298 21.8361 60.0952 21.5958C61.0259 21.1126 62.3251 20.9156 63.3787 19.8479C64.2926 18.9167 64.5614 17.8254 64.9301 17.2079C65.2925 16.5904 65.3793 16.4204 66.2178 16.4148L66.2191 16.4198Z" fill="white"/>
<path opacity="0.4" d="M112.765 0.132486C111.422 0.141478 110.257 0.91243 109.521 1.95916C108.785 3.0059 108.4 4.35404 108.41 5.80999C108.419 7.26595 108.823 8.61006 109.573 9.64685C110.323 10.6836 111.498 11.4377 112.841 11.4287C114.184 11.4197 115.349 10.6487 116.085 9.60199C116.821 8.55526 117.206 7.20712 117.196 5.75117C117.187 4.29521 116.784 2.95109 116.033 1.91431C115.283 0.877526 114.108 0.123493 112.765 0.132486ZM117.196 5.75117C117.206 7.20712 117.609 8.55123 118.359 9.58802C119.11 10.6248 120.286 11.3788 121.628 11.3698C122.971 11.3609 124.136 10.5899 124.872 9.54317C125.608 8.49643 125.993 7.14829 125.983 5.69234C125.973 4.23639 125.57 2.89227 124.82 1.85548C124.07 0.818699 122.895 0.0646662 121.552 0.0736584C120.209 0.0826505 119.044 0.853603 118.308 1.90034C117.572 2.94707 117.187 4.29521 117.196 5.75117ZM112.782 2.64275C113.174 2.64013 113.607 2.83304 114.005 3.38015C114.397 3.92603 114.679 4.79776 114.686 5.76797C114.692 6.73819 114.422 7.61487 114.037 8.16471C113.646 8.71709 113.216 8.91579 112.824 8.91841C112.432 8.92103 111.999 8.72812 111.602 8.18101C111.209 7.63512 110.927 6.7634 110.92 5.79318C110.914 4.82297 111.184 3.94629 111.57 3.39645C111.96 2.84406 112.39 2.64537 112.782 2.64275ZM121.569 2.58392C121.96 2.5813 122.394 2.77421 122.791 3.32132C123.184 3.86721 123.466 4.73893 123.473 5.70915C123.479 6.67936 123.209 7.55604 122.823 8.10588C122.433 8.65827 122.002 8.85696 121.611 8.85958C121.219 8.8622 120.786 8.66929 120.388 8.12218C119.995 7.5763 119.713 6.70457 119.707 5.73436C119.7 4.76414 119.971 3.88746 120.356 3.33762C120.747 2.78524 121.177 2.58654 121.569 2.58392ZM106.548 8.96043C105.205 8.96942 104.04 9.74037 103.304 10.7871C102.568 11.8338 102.183 13.182 102.192 14.6379C102.202 16.0939 102.605 17.438 103.355 18.4748C104.105 19.5116 105.28 20.2656 106.624 20.2566C107.967 20.2476 109.131 19.4767 109.868 18.4299C110.604 17.3832 110.989 16.0351 110.979 14.5791C110.969 13.1232 110.566 11.779 109.816 10.7423C109.066 9.70547 107.891 8.95143 106.548 8.96043ZM127.887 8.81756C126.544 8.82655 125.379 9.59751 124.643 10.6442C123.907 11.691 123.522 13.0391 123.532 14.4951C123.541 15.951 123.944 17.2951 124.695 18.3319C125.445 19.3687 126.62 20.1227 127.963 20.1137C129.306 20.1048 130.471 19.3338 131.207 18.2871C131.943 17.2403 132.328 15.8922 132.318 14.4362C132.308 12.9803 131.905 11.6362 131.155 10.5994C130.405 9.5626 129.23 8.80857 127.887 8.81756ZM106.565 11.4707C106.956 11.4681 107.389 11.661 107.787 12.2081C108.18 12.754 108.462 13.6257 108.469 14.5959C108.475 15.5661 108.205 16.4428 107.819 16.9927C107.429 17.545 106.998 17.7437 106.607 17.7463C106.215 17.749 105.782 17.5561 105.384 17.009C104.991 16.4643 104.709 15.5913 104.703 14.6211C104.696 13.6509 104.967 12.7742 105.352 12.2244C105.743 11.672 106.173 11.4733 106.565 11.4707ZM127.904 11.3278C128.296 11.3252 128.729 11.5181 129.126 12.0652C129.519 12.6111 129.801 13.4828 129.808 14.453C129.814 15.4233 129.544 16.2999 129.158 16.8498C128.768 17.4022 128.338 17.6009 127.946 17.6035C127.554 17.6061 127.121 17.4132 126.723 16.8661C126.331 16.3202 126.049 15.4485 126.042 14.4783C126.036 13.508 126.306 12.6314 126.691 12.0815C127.082 11.5291 127.512 11.3304 127.904 11.3278ZM117.251 13.9095C115.578 13.9207 114.418 15.0142 113.85 15.972C113.287 16.9297 112.941 17.7253 112.609 18.0589C112.418 18.2572 111.21 18.7209 109.952 19.3733C109.322 19.7001 108.689 20.1348 108.157 20.7974C107.622 21.4599 107.264 22.3723 107.271 23.3928C107.287 25.8026 109.284 27.7724 111.694 27.7563C112.781 27.749 113.913 27.39 115.022 27.0688C116.136 26.74 117.335 26.4608 117.335 26.4608C117.335 26.4608 118.538 26.7239 119.654 27.0353C120.768 27.3416 121.905 27.6854 122.992 27.6782C125.402 27.662 127.372 25.6656 127.356 23.2558C127.349 22.2592 126.976 21.3504 126.435 20.7139C125.897 20.0736 125.252 19.68 124.624 19.3516C123.364 18.6948 122.126 18.1759 121.947 17.9964C121.644 17.7009 121.299 16.8836 120.715 15.9285C120.133 14.9697 118.933 13.8983 117.251 13.9095ZM117.268 16.4198C118.096 16.4142 118.189 16.6144 118.566 17.2345C118.947 17.8533 119.235 18.9069 120.153 19.8133C121.195 20.8356 122.505 21.0528 123.461 21.5535C123.939 21.8038 124.305 22.0712 124.525 22.3308C124.744 22.5892 124.843 22.8258 124.846 23.2701C124.853 24.3244 124.03 25.1583 122.975 25.1654C122.611 25.1678 121.437 24.8995 120.343 24.5931C119.249 24.2904 118.343 23.9412 117.318 23.9481C116.294 23.9549 115.393 24.3162 114.303 24.6335C113.213 24.9546 112.042 25.2386 111.678 25.241C110.624 25.2481 109.79 24.4252 109.783 23.3709C109.779 22.8651 109.883 22.6046 110.09 22.3471C110.296 22.091 110.679 21.8361 111.144 21.5958C112.075 21.1126 113.374 20.9156 114.428 19.8479C115.341 18.9167 115.61 17.8254 115.979 17.2079C116.341 16.5904 116.428 16.4204 117.267 16.4148L117.268 16.4198Z" fill="white"/>
<path opacity="0.2" d="M173.814 0.131265C172.471 0.140257 171.306 0.91121 170.57 1.95794C169.834 3.00468 169.449 4.35282 169.459 5.80877C169.468 7.26472 169.871 8.60884 170.622 9.64563C171.372 10.6824 172.547 11.4364 173.89 11.4275C175.233 11.4185 176.398 10.6475 177.134 9.60077C177.87 8.55404 178.255 7.2059 178.245 5.74994C178.236 4.29399 177.832 2.94987 177.082 1.91309C176.332 0.876305 175.157 0.122273 173.814 0.131265ZM178.245 5.74994C178.255 7.2059 178.658 8.55001 179.408 9.5868C180.158 10.6236 181.335 11.3776 182.676 11.3686C184.02 11.3596 185.184 10.5887 185.92 9.54194C186.657 8.49521 187.042 7.14707 187.032 5.69112C187.022 4.23516 186.619 2.89105 185.869 1.85426C185.119 0.817478 183.944 0.0634455 182.601 0.0724377C181.258 0.0814298 180.093 0.852383 179.357 1.89912C178.621 2.94585 178.236 4.29399 178.245 5.74994ZM173.831 2.64153C174.223 2.63891 174.656 2.83182 175.054 3.37892C175.446 3.92481 175.728 4.79654 175.735 5.76675C175.741 6.73697 175.471 7.61364 175.086 8.16349C174.695 8.71587 174.265 8.91456 173.873 8.91719C173.481 8.91981 173.048 8.7269 172.65 8.17979C172.258 7.6339 171.976 6.76218 171.969 5.79196C171.963 4.82175 172.233 3.94507 172.618 3.39523C173.009 2.84284 173.439 2.64415 173.831 2.64153ZM182.618 2.5827C183.009 2.58008 183.442 2.77299 183.84 3.3201C184.233 3.86598 184.515 4.73771 184.522 5.70792C184.528 6.67814 184.258 7.55482 183.872 8.10466C183.482 8.65705 183.051 8.85574 182.66 8.85836C182.268 8.86098 181.835 8.66807 181.437 8.12096C181.044 7.57508 180.762 6.70335 180.756 5.73314C180.749 4.76292 181.02 3.88624 181.405 3.3364C181.796 2.78401 182.226 2.58532 182.618 2.5827ZM167.597 8.95921C166.254 8.9682 165.089 9.73915 164.353 10.7859C163.617 11.8326 163.231 13.1808 163.241 14.6367C163.251 16.0927 163.654 17.4368 164.404 18.4736C165.154 19.5104 166.329 20.2644 167.672 20.2554C169.015 20.2464 170.18 19.4754 170.916 18.4287C171.652 17.382 172.038 16.0338 172.028 14.5779C172.018 13.1219 171.615 11.7778 170.865 10.741C170.115 9.70425 168.94 8.95021 167.597 8.95921ZM188.936 8.81634C187.593 8.82533 186.428 9.59628 185.692 10.643C184.956 11.6898 184.571 13.0379 184.58 14.4938C184.59 15.9498 184.993 17.2939 185.743 18.3307C186.493 19.3675 187.668 20.1215 189.012 20.1125C190.355 20.1035 191.519 19.3326 192.256 18.2858C192.992 17.2391 193.377 15.891 193.367 14.435C193.357 12.9791 192.954 11.635 192.204 10.5982C191.454 9.56138 190.279 8.80735 188.936 8.81634ZM167.614 11.4695C168.005 11.4668 168.438 11.6598 168.836 12.2069C169.229 12.7528 169.511 13.6245 169.517 14.5947C169.524 15.5649 169.254 16.4416 168.868 16.9914C168.478 17.5438 168.047 17.7425 167.656 17.7451C167.264 17.7478 166.831 17.5548 166.433 17.0077C166.04 16.4631 165.758 15.5901 165.752 14.6199C165.745 13.6497 166.015 12.773 166.401 12.2232C166.791 11.6708 167.222 11.4721 167.614 11.4695ZM188.953 11.3266C189.344 11.324 189.777 11.5169 190.175 12.064C190.568 12.6099 190.85 13.4816 190.857 14.4518C190.863 15.422 190.593 16.2987 190.207 16.8486C189.817 17.4009 189.386 17.5996 188.995 17.6023C188.603 17.6049 188.17 17.412 187.772 16.8649C187.379 16.319 187.097 15.4473 187.091 14.477C187.084 13.5068 187.355 12.6301 187.74 12.0803C188.131 11.5279 188.561 11.3292 188.953 11.3266ZM178.3 13.9083C176.627 13.9195 175.467 15.013 174.899 15.9707C174.336 16.9285 173.99 17.7241 173.658 18.0577C173.467 18.256 172.259 18.7197 171.001 19.3721C170.371 19.6988 169.738 20.1336 169.206 20.7961C168.671 21.4587 168.313 22.3711 168.32 23.3915C168.336 25.8014 170.332 27.7712 172.743 27.7551C173.83 27.7478 174.962 27.3888 176.071 27.0676C177.184 26.7388 178.384 26.4596 178.384 26.4596C178.384 26.4596 179.587 26.7227 180.703 27.034C181.817 27.3404 182.954 27.6842 184.041 27.6769C186.451 27.6608 188.421 25.6644 188.405 23.2546C188.398 22.258 188.024 21.3492 187.484 20.7127C186.946 20.0724 186.301 19.6788 185.672 19.3504C184.413 18.6936 183.175 18.1747 182.996 17.9951C182.692 17.6997 182.348 16.8824 181.764 15.9273C181.182 14.9685 179.982 13.897 178.3 13.9083ZM178.317 16.4186C179.145 16.413 179.238 16.6132 179.615 17.2333C179.996 17.852 180.284 18.9057 181.202 19.8121C182.244 20.8344 183.553 21.0515 184.51 21.5522C184.988 21.8026 185.354 22.07 185.574 22.3296C185.793 22.588 185.891 22.8245 185.894 23.2689C185.901 24.3232 185.079 25.1571 184.024 25.1642C183.66 25.1666 182.486 24.8983 181.392 24.5918C180.298 24.2891 179.391 23.94 178.367 23.9468C177.343 23.9537 176.441 24.315 175.351 24.6323C174.261 24.9534 173.091 25.2374 172.727 25.2398C171.673 25.2469 170.839 24.424 170.831 23.3697C170.828 22.8639 170.932 22.6034 171.138 22.3459C171.345 22.0897 171.728 21.8349 172.193 21.5945C173.124 21.1113 174.423 20.9144 175.476 19.8467C176.39 18.9155 176.659 17.8242 177.028 17.2067C177.39 16.5892 177.477 16.4192 178.315 16.4136L178.317 16.4186Z" fill="white"/>
</svg>
