<svg width="214" height="214" viewBox="0 0 214 214" fill="none" xmlns="http://www.w3.org/2000/svg">
<g opacity="0.4">
<mask id="mask0_1_27" style="mask-type:alpha" maskUnits="userSpaceOnUse" x="14" y="14" width="186" height="186">
<circle cx="106.895" cy="107.312" r="92.4469" transform="rotate(9.42023 106.895 107.312)" fill="#C4C4C4"/>
</mask>
<g mask="url(#mask0_1_27)">
<path d="M-0.89888 41.0211C-0.89888 41.0211 38.0443 40.2908 51.8566 17.4126C65.0754 -4.52225 104.526 -4.46239 104.526 -4.46239" stroke="url(#paint0_linear_1_27)" stroke-width="2.7" stroke-miterlimit="10"/>
<path d="M-2.8522 52.7944C-2.8522 52.7944 44.8406 52.407 61.6855 24.8234C77.7519 -1.51174 126.018 -0.89669 126.018 -0.89669" stroke="url(#paint1_linear_1_27)" stroke-width="2.7" stroke-miterlimit="10"/>
<path d="M-4.81101 64.6007C-4.81101 64.6007 51.6041 64.5178 71.4708 32.2941C90.4338 1.46619 147.51 2.66905 147.51 2.66905" stroke="url(#paint2_linear_1_27)" stroke-width="2.7" stroke-miterlimit="10"/>
<path d="M-6.76438 76.3743C-6.76438 76.3743 58.4002 76.6341 81.2997 39.7048C103.11 4.47671 169.001 6.23475 169.001 6.23475" stroke="url(#paint3_linear_1_27)" stroke-width="2.7" stroke-miterlimit="10"/>
<path d="M-8.71775 88.1478C-8.71775 88.1478 65.1964 88.7504 91.1232 47.1481C115.787 7.48722 190.46 9.79505 190.46 9.79505" stroke="url(#paint4_linear_1_27)" stroke-width="2.7" stroke-miterlimit="10"/>
<path d="M-10.6765 99.9539C-10.6765 99.9539 71.9545 100.894 100.914 54.586C128.501 10.4703 211.952 13.3607 211.952 13.3607" stroke="url(#paint5_linear_1_27)" stroke-width="2.7" stroke-miterlimit="10"/>
<path d="M-12.6299 111.727C-12.6299 111.727 78.7561 112.977 110.738 62.0296C141.178 13.4809 233.443 16.9265 233.443 16.9265" stroke="url(#paint6_linear_1_27)" stroke-width="2.7" stroke-miterlimit="10"/>
<path d="M-14.5832 123.501C-14.5832 123.501 85.5524 125.093 120.534 69.4349C153.854 16.4914 254.935 20.4922 254.935 20.4922" stroke="url(#paint7_linear_1_27)" stroke-width="2.7" stroke-miterlimit="10"/>
<path d="M-16.5421 135.307C-16.5421 135.307 92.3102 137.237 130.352 76.9108C166.537 19.4691 276.394 24.0525 276.394 24.0525" stroke="url(#paint8_linear_1_27)" stroke-width="2.7" stroke-miterlimit="10"/>
<path d="M-18.4953 147.08C-18.4953 147.08 99.1065 149.353 140.143 84.3489C179.213 22.4796 297.886 27.6182 297.886 27.6182" stroke="url(#paint9_linear_1_27)" stroke-width="2.7" stroke-miterlimit="10"/>
<path d="M-20.4541 158.886C-20.4541 158.886 105.903 161.469 149.966 91.7922C191.89 25.4901 319.377 31.1839 319.377 31.1839" stroke="url(#paint10_linear_1_27)" stroke-width="2.7" stroke-miterlimit="10"/>
<path d="M-22.4076 170.661C-22.4076 170.661 112.666 173.58 159.757 99.2303C204.571 28.468 340.868 34.7495 340.868 34.7495" stroke="url(#paint11_linear_1_27)" stroke-width="2.7" stroke-miterlimit="10"/>
<path d="M-24.3607 182.433C-24.3607 182.433 119.462 185.697 169.586 106.641C217.248 31.4786 362.36 38.3152 362.36 38.3152" stroke="url(#paint12_linear_1_27)" stroke-width="2.7" stroke-miterlimit="10"/>
<path d="M-26.3196 194.239C-26.3196 194.239 126.259 197.813 179.404 114.117C229.924 34.4891 383.82 41.8756 383.82 41.8756" stroke="url(#paint13_linear_1_27)" stroke-width="2.7" stroke-miterlimit="10"/>
<path d="M-28.2731 206.014C-28.2731 206.014 133.022 209.924 189.2 121.522C242.607 37.4668 405.311 45.4413 405.311 45.4413" stroke="url(#paint14_linear_1_27)" stroke-width="2.7" stroke-miterlimit="10"/>
<path d="M-30.2266 217.788C-30.2266 217.788 139.818 222.04 199.023 128.966C255.283 40.4773 426.803 49.007 426.803 49.007" stroke="url(#paint15_linear_1_27)" stroke-width="2.7" stroke-miterlimit="10"/>
<path d="M-32.1854 229.595C-32.1854 229.595 146.609 234.188 208.814 136.404C267.959 43.4878 448.294 52.5727 448.294 52.5727" stroke="url(#paint16_linear_1_27)" stroke-width="2.7" stroke-miterlimit="10"/>
<path d="M-34.1385 241.367C-34.1385 241.367 153.378 246.267 218.638 143.847C280.642 46.4655 469.754 56.1332 469.754 56.1332" stroke="url(#paint17_linear_1_27)" stroke-width="2.7" stroke-miterlimit="10"/>
</g>
</g>
<defs>
<linearGradient id="paint0_linear_1_27" x1="56.8978" y1="-12.3645" x2="46.7295" y2="48.9232" gradientUnits="userSpaceOnUse">
<stop offset="0.40625" stop-color="#FFC24F"/>
<stop offset="1" stop-color="#6DEEFF"/>
</linearGradient>
<linearGradient id="paint1_linear_1_27" x1="67.6436" y1="-10.5816" x2="55.522" y2="62.4793" gradientUnits="userSpaceOnUse">
<stop offset="0.40625" stop-color="#FFC24F"/>
<stop offset="1" stop-color="#6DEEFF"/>
</linearGradient>
<linearGradient id="paint2_linear_1_27" x1="78.3895" y1="-8.79878" x2="64.309" y2="76.0686" gradientUnits="userSpaceOnUse">
<stop offset="0.40625" stop-color="#FFC24F"/>
<stop offset="1" stop-color="#6DEEFF"/>
</linearGradient>
<linearGradient id="paint3_linear_1_27" x1="89.1353" y1="-7.01593" x2="73.1015" y2="89.625" gradientUnits="userSpaceOnUse">
<stop offset="0.40625" stop-color="#FFC24F"/>
<stop offset="1" stop-color="#6DEEFF"/>
</linearGradient>
<linearGradient id="paint4_linear_1_27" x1="99.8648" y1="-5.23578" x2="81.8776" y2="103.179" gradientUnits="userSpaceOnUse">
<stop offset="0.40625" stop-color="#FFC24F"/>
<stop offset="1" stop-color="#6DEEFF"/>
</linearGradient>
<linearGradient id="paint5_linear_1_27" x1="110.611" y1="-3.45293" x2="90.6646" y2="116.768" gradientUnits="userSpaceOnUse">
<stop offset="0.40625" stop-color="#FFC24F"/>
<stop offset="1" stop-color="#6DEEFF"/>
</linearGradient>
<linearGradient id="paint6_linear_1_27" x1="121.356" y1="-1.67007" x2="99.457" y2="130.324" gradientUnits="userSpaceOnUse">
<stop offset="0.40625" stop-color="#FFC24F"/>
<stop offset="1" stop-color="#6DEEFF"/>
</linearGradient>
<linearGradient id="paint7_linear_1_27" x1="132.102" y1="0.112796" x2="108.25" y2="143.88" gradientUnits="userSpaceOnUse">
<stop offset="0.40625" stop-color="#FFC24F"/>
<stop offset="1" stop-color="#6DEEFF"/>
</linearGradient>
<linearGradient id="paint8_linear_1_27" x1="142.832" y1="1.89295" x2="117.02" y2="157.467" gradientUnits="userSpaceOnUse">
<stop offset="0.40625" stop-color="#FFC24F"/>
<stop offset="1" stop-color="#6DEEFF"/>
</linearGradient>
<linearGradient id="paint9_linear_1_27" x1="153.578" y1="3.6758" x2="125.813" y2="171.022" gradientUnits="userSpaceOnUse">
<stop offset="0.40625" stop-color="#FFC24F"/>
<stop offset="1" stop-color="#6DEEFF"/>
</linearGradient>
<linearGradient id="paint10_linear_1_27" x1="164.323" y1="5.45864" x2="134.6" y2="184.612" gradientUnits="userSpaceOnUse">
<stop offset="0.40625" stop-color="#FFC24F"/>
<stop offset="1" stop-color="#6DEEFF"/>
</linearGradient>
<linearGradient id="paint11_linear_1_27" x1="175.069" y1="7.24146" x2="143.392" y2="198.169" gradientUnits="userSpaceOnUse">
<stop offset="0.40625" stop-color="#FFC24F"/>
<stop offset="1" stop-color="#6DEEFF"/>
</linearGradient>
<linearGradient id="paint12_linear_1_27" x1="185.815" y1="9.02431" x2="152.184" y2="211.724" gradientUnits="userSpaceOnUse">
<stop offset="0.40625" stop-color="#FFC24F"/>
<stop offset="1" stop-color="#6DEEFF"/>
</linearGradient>
<linearGradient id="paint13_linear_1_27" x1="196.545" y1="10.8045" x2="160.955" y2="225.31" gradientUnits="userSpaceOnUse">
<stop offset="0.40625" stop-color="#FFC24F"/>
<stop offset="1" stop-color="#6DEEFF"/>
</linearGradient>
<linearGradient id="paint14_linear_1_27" x1="207.29" y1="12.5874" x2="169.748" y2="238.868" gradientUnits="userSpaceOnUse">
<stop offset="0.40625" stop-color="#FFC24F"/>
<stop offset="1" stop-color="#6DEEFF"/>
</linearGradient>
<linearGradient id="paint15_linear_1_27" x1="218.036" y1="14.3702" x2="178.54" y2="252.425" gradientUnits="userSpaceOnUse">
<stop offset="0.40625" stop-color="#FFC24F"/>
<stop offset="1" stop-color="#6DEEFF"/>
</linearGradient>
<linearGradient id="paint16_linear_1_27" x1="228.782" y1="16.1531" x2="187.327" y2="266.014" gradientUnits="userSpaceOnUse">
<stop offset="0.40625" stop-color="#FFC24F"/>
<stop offset="1" stop-color="#6DEEFF"/>
</linearGradient>
<linearGradient id="paint17_linear_1_27" x1="239.512" y1="17.9333" x2="196.104" y2="279.567" gradientUnits="userSpaceOnUse">
<stop offset="0.40625" stop-color="#FFC24F"/>
<stop offset="1" stop-color="#6DEEFF"/>
</linearGradient>
</defs>
</svg>
