<svg width="213" height="213" viewBox="0 0 213 213" fill="none" xmlns="http://www.w3.org/2000/svg">
<g opacity="0.4">
<mask id="mask0_1_6" style="mask-type:alpha" maskUnits="userSpaceOnUse" x="9" y="9" width="195" height="195">
<circle cx="106.316" cy="106.315" r="96.6854" transform="rotate(-6.03563 106.316 106.315)" fill="#C4C4C4"/>
</mask>
<g mask="url(#mask0_1_6)">
<path d="M-20.8187 69.5366C-20.8187 69.5366 18.2335 57.9464 25.7802 31.0349C32.9915 5.23967 72.7757 -5.6955 72.7757 -5.6955" stroke="url(#paint0_linear_1_6)" stroke-width="2.5" stroke-miterlimit="10"/>
<path d="M-19.5063 81.9487C-19.5063 81.9487 28.4613 68.2656 37.7535 35.7656C46.6088 4.74122 95.4336 -8.09119 95.4336 -8.09119" stroke="url(#paint1_linear_1_6)" stroke-width="2.5" stroke-miterlimit="10"/>
<path d="M-18.1903 94.3958C-18.1903 94.3958 38.6545 78.5886 49.6995 40.569C60.2225 4.20843 118.092 -10.4869 118.092 -10.4869" stroke="url(#paint2_linear_1_6)" stroke-width="2.5" stroke-miterlimit="10"/>
<path d="M-16.8779 106.808C-16.8779 106.808 48.8822 88.9079 61.6728 45.2998C73.8399 3.70998 140.75 -12.8826 140.75 -12.8826" stroke="url(#paint3_linear_1_6)" stroke-width="2.5" stroke-miterlimit="10"/>
<path d="M-15.5655 119.221C-15.5655 119.221 59.1099 99.2272 73.6497 50.0649C87.4571 3.21155 163.373 -15.2746 163.373 -15.2746" stroke="url(#paint4_linear_1_6)" stroke-width="2.5" stroke-miterlimit="10"/>
<path d="M-14.2494 131.668C-14.2494 131.668 69.3068 109.584 85.5921 54.8336C101.105 2.67485 186.031 -17.6703 186.031 -17.6703" stroke="url(#paint5_linear_1_6)" stroke-width="2.5" stroke-miterlimit="10"/>
<path d="M-12.937 144.08C-12.937 144.08 79.5308 119.869 97.5691 59.599C114.723 2.17638 208.689 -20.066 208.689 -20.066" stroke="url(#paint6_linear_1_6)" stroke-width="2.5" stroke-miterlimit="10"/>
<path d="M-11.6246 156.492C-11.6246 156.492 89.7586 130.188 109.508 64.3334C128.34 1.67796 231.347 -22.4617 231.347 -22.4617" stroke="url(#paint7_linear_1_6)" stroke-width="2.5" stroke-miterlimit="10"/>
<path d="M-10.3085 168.94C-10.3085 168.94 99.9553 140.546 121.488 69.1329C141.954 1.1449 253.971 -24.8538 253.971 -24.8538" stroke="url(#paint8_linear_1_6)" stroke-width="2.5" stroke-miterlimit="10"/>
<path d="M-8.99625 181.351C-8.99625 181.351 110.183 150.865 133.431 73.9019C155.571 0.646467 276.628 -27.2494 276.628 -27.2494" stroke="url(#paint9_linear_1_6)" stroke-width="2.5" stroke-miterlimit="10"/>
<path d="M-7.68018 193.798C-7.68018 193.798 120.411 161.184 145.408 78.667C169.188 0.147991 299.286 -29.6451 299.286 -29.6451" stroke="url(#paint10_linear_1_6)" stroke-width="2.5" stroke-miterlimit="10"/>
<path d="M-6.36767 206.212C-6.36767 206.212 130.604 171.508 157.35 83.436C182.802 -0.384782 321.944 -32.0408 321.944 -32.0408" stroke="url(#paint11_linear_1_6)" stroke-width="2.5" stroke-miterlimit="10"/>
<path d="M-5.05543 218.622C-5.05543 218.622 140.832 181.827 169.323 88.1665C196.42 -0.883247 344.601 -34.4364 344.601 -34.4364" stroke="url(#paint12_linear_1_6)" stroke-width="2.5" stroke-miterlimit="10"/>
<path d="M-3.73936 231.07C-3.73936 231.07 151.059 192.146 181.304 92.9662C210.037 -1.38168 367.226 -36.8286 367.226 -36.8286" stroke="url(#paint13_linear_1_6)" stroke-width="2.5" stroke-miterlimit="10"/>
<path d="M-2.42685 243.483C-2.42685 243.483 161.253 202.469 193.243 97.7006C223.651 -1.91475 389.884 -39.2243 389.884 -39.2243" stroke="url(#paint14_linear_1_6)" stroke-width="2.5" stroke-miterlimit="10"/>
<path d="M-1.11433 255.897C-1.11433 255.897 171.48 212.789 205.22 102.466C237.268 -2.41317 412.542 -41.6199 412.542 -41.6199" stroke="url(#paint15_linear_1_6)" stroke-width="2.5" stroke-miterlimit="10"/>
<path d="M0.201731 268.344C0.201731 268.344 181.712 223.141 217.162 107.235C250.885 -2.91161 435.2 -44.0156 435.2 -44.0156" stroke="url(#paint16_linear_1_6)" stroke-width="2.5" stroke-miterlimit="10"/>
<path d="M1.51398 280.755C1.51398 280.755 191.901 233.431 229.139 112C264.499 -3.44468 457.824 -46.4078 457.824 -46.4078" stroke="url(#paint17_linear_1_6)" stroke-width="2.5" stroke-miterlimit="10"/>
</g>
</g>
<defs>
<linearGradient id="paint0_linear_1_6" x1="22.5626" y1="-0.386326" x2="29.3944" y2="64.2274" gradientUnits="userSpaceOnUse">
<stop offset="0.40625" stop-color="#FFC24F"/>
<stop offset="1" stop-color="#6DEEFF"/>
</linearGradient>
<linearGradient id="paint1_linear_1_6" x1="33.8915" y1="-1.58417" x2="42.0357" y2="75.4417" gradientUnits="userSpaceOnUse">
<stop offset="0.40625" stop-color="#FFC24F"/>
<stop offset="1" stop-color="#6DEEFF"/>
</linearGradient>
<linearGradient id="paint2_linear_1_6" x1="45.2206" y1="-2.78202" x2="54.6808" y2="86.6909" gradientUnits="userSpaceOnUse">
<stop offset="0.40625" stop-color="#FFC24F"/>
<stop offset="1" stop-color="#6DEEFF"/>
</linearGradient>
<linearGradient id="paint3_linear_1_6" x1="56.5495" y1="-3.97986" x2="67.3222" y2="97.9056" gradientUnits="userSpaceOnUse">
<stop offset="0.40625" stop-color="#FFC24F"/>
<stop offset="1" stop-color="#6DEEFF"/>
</linearGradient>
<linearGradient id="paint4_linear_1_6" x1="67.8613" y1="-5.17589" x2="79.9463" y2="109.122" gradientUnits="userSpaceOnUse">
<stop offset="0.40625" stop-color="#FFC24F"/>
<stop offset="1" stop-color="#6DEEFF"/>
</linearGradient>
<linearGradient id="paint5_linear_1_6" x1="79.1902" y1="-6.37373" x2="92.5913" y2="120.371" gradientUnits="userSpaceOnUse">
<stop offset="0.40625" stop-color="#FFC24F"/>
<stop offset="1" stop-color="#6DEEFF"/>
</linearGradient>
<linearGradient id="paint6_linear_1_6" x1="90.5192" y1="-7.57158" x2="105.233" y2="131.586" gradientUnits="userSpaceOnUse">
<stop offset="0.40625" stop-color="#FFC24F"/>
<stop offset="1" stop-color="#6DEEFF"/>
</linearGradient>
<linearGradient id="paint7_linear_1_6" x1="101.848" y1="-8.76943" x2="117.874" y2="142.8" gradientUnits="userSpaceOnUse">
<stop offset="0.40625" stop-color="#FFC24F"/>
<stop offset="1" stop-color="#6DEEFF"/>
</linearGradient>
<linearGradient id="paint8_linear_1_6" x1="113.16" y1="-9.96546" x2="130.502" y2="154.051" gradientUnits="userSpaceOnUse">
<stop offset="0.40625" stop-color="#FFC24F"/>
<stop offset="1" stop-color="#6DEEFF"/>
</linearGradient>
<linearGradient id="paint9_linear_1_6" x1="124.489" y1="-11.1633" x2="143.143" y2="165.265" gradientUnits="userSpaceOnUse">
<stop offset="0.40625" stop-color="#FFC24F"/>
<stop offset="1" stop-color="#6DEEFF"/>
</linearGradient>
<linearGradient id="paint10_linear_1_6" x1="135.818" y1="-12.3611" x2="155.788" y2="176.514" gradientUnits="userSpaceOnUse">
<stop offset="0.40625" stop-color="#FFC24F"/>
<stop offset="1" stop-color="#6DEEFF"/>
</linearGradient>
<linearGradient id="paint11_linear_1_6" x1="147.147" y1="-13.559" x2="168.429" y2="187.73" gradientUnits="userSpaceOnUse">
<stop offset="0.40625" stop-color="#FFC24F"/>
<stop offset="1" stop-color="#6DEEFF"/>
</linearGradient>
<linearGradient id="paint12_linear_1_6" x1="158.475" y1="-14.7568" x2="181.071" y2="198.943" gradientUnits="userSpaceOnUse">
<stop offset="0.40625" stop-color="#FFC24F"/>
<stop offset="1" stop-color="#6DEEFF"/>
</linearGradient>
<linearGradient id="paint13_linear_1_6" x1="169.788" y1="-15.9529" x2="193.699" y2="210.194" gradientUnits="userSpaceOnUse">
<stop offset="0.40625" stop-color="#FFC24F"/>
<stop offset="1" stop-color="#6DEEFF"/>
</linearGradient>
<linearGradient id="paint14_linear_1_6" x1="181.117" y1="-17.1507" x2="206.34" y2="221.409" gradientUnits="userSpaceOnUse">
<stop offset="0.40625" stop-color="#FFC24F"/>
<stop offset="1" stop-color="#6DEEFF"/>
</linearGradient>
<linearGradient id="paint15_linear_1_6" x1="192.446" y1="-18.3485" x2="218.982" y2="232.625" gradientUnits="userSpaceOnUse">
<stop offset="0.40625" stop-color="#FFC24F"/>
<stop offset="1" stop-color="#6DEEFF"/>
</linearGradient>
<linearGradient id="paint16_linear_1_6" x1="203.775" y1="-19.5464" x2="231.627" y2="243.874" gradientUnits="userSpaceOnUse">
<stop offset="0.40625" stop-color="#FFC24F"/>
<stop offset="1" stop-color="#6DEEFF"/>
</linearGradient>
<linearGradient id="paint17_linear_1_6" x1="215.087" y1="-20.7425" x2="244.251" y2="255.089" gradientUnits="userSpaceOnUse">
<stop offset="0.40625" stop-color="#FFC24F"/>
<stop offset="1" stop-color="#6DEEFF"/>
</linearGradient>
</defs>
</svg>
