<svg width="184" height="28" viewBox="0 0 184 28" fill="none" xmlns="http://www.w3.org/2000/svg">
<path opacity="0.2" d="M10.6696 0.129983C9.32648 0.138975 8.1617 0.909928 7.42557 1.95666C6.68944 3.0034 6.3043 4.35154 6.31404 5.80749C6.32379 7.26344 6.72696 8.60756 7.47704 9.64434C8.22712 10.6811 9.40211 11.4352 10.7452 11.4262C12.0883 11.4172 13.2531 10.6462 13.9892 9.59949C14.7254 8.55276 15.1105 7.20462 15.1008 5.74866C15.091 4.29271 14.6879 2.94859 13.9378 1.91181C13.1877 0.875023 12.0127 0.120991 10.6696 0.129983ZM15.1008 5.74866C15.1105 7.20462 15.5137 8.54873 16.2638 9.58552C17.0138 10.6223 18.1901 11.3763 19.5319 11.3673C20.8751 11.3584 22.0398 10.5874 22.776 9.54066C23.5121 8.49393 23.8972 7.14579 23.8875 5.68984C23.8777 4.23388 23.4746 2.88976 22.7245 1.85298C21.9744 0.816196 20.7994 0.0621638 19.4563 0.0711559C18.1132 0.0801481 16.9484 0.851101 16.2123 1.89784C15.4762 2.94457 15.091 4.29271 15.1008 5.74866ZM10.6864 2.64025C11.078 2.63762 11.5111 2.83053 11.909 3.37764C12.3018 3.92353 12.5838 4.79525 12.5903 5.76547C12.5968 6.73569 12.3265 7.61236 11.941 8.16221C11.5505 8.71459 11.12 8.91328 10.7284 8.91591C10.3368 8.91853 9.90366 8.72562 9.50583 8.17851C9.11303 7.63262 8.83103 6.7609 8.82454 5.79068C8.81804 4.82047 9.08834 3.94379 9.4738 3.39395C9.86427 2.84156 10.2948 2.64287 10.6864 2.64025ZM19.4731 2.58142C19.8648 2.5788 20.2979 2.77171 20.6957 3.31882C21.0885 3.8647 21.3705 4.73643 21.377 5.70664C21.3835 6.67686 21.1132 7.55354 20.7277 8.10338C20.3373 8.65576 19.9068 8.85446 19.5151 8.85708C19.1235 8.8597 18.6904 8.66679 18.2926 8.11968C17.8998 7.57379 17.6178 6.70207 17.6113 5.73185C17.6048 4.76164 17.8751 3.88496 18.2605 3.33512C18.651 2.78273 19.0815 2.58404 19.4731 2.58142ZM4.45218 8.95792C3.10907 8.96692 1.94429 9.73787 1.20816 10.7846C0.472027 11.8313 0.0868882 13.1795 0.0966358 14.6354C0.106383 16.0914 0.509547 17.4355 1.25963 18.4723C2.00971 19.5091 3.1847 20.2631 4.52781 20.2541C5.87092 20.2451 7.0357 19.4742 7.77183 18.4274C8.50797 17.3807 8.89311 16.0326 8.88336 14.5766C8.87361 13.1207 8.47045 11.7765 7.72037 10.7397C6.97029 9.70297 5.7953 8.94893 4.45218 8.95792ZM25.7914 8.81506C24.4483 8.82405 23.2835 9.595 22.5473 10.6417C21.8112 11.6885 21.4261 13.0366 21.4358 14.4926C21.4456 15.9485 21.8487 17.2926 22.5988 18.3294C23.3489 19.3662 24.5239 20.1202 25.867 20.1112C27.2101 20.1023 28.3749 19.3313 29.111 18.2846C29.8471 17.2378 30.2323 15.8897 30.2225 14.4337C30.2128 12.9778 29.8096 11.6337 29.0595 10.5969C28.3095 9.5601 27.1345 8.80607 25.7914 8.81506ZM4.46899 11.4682C4.86063 11.4656 5.29374 11.6585 5.69157 12.2056C6.08437 12.7515 6.36637 13.6232 6.37287 14.5934C6.37936 15.5636 6.10906 16.4403 5.7236 16.9901C5.33314 17.5425 4.90264 17.7412 4.511 17.7438C4.11937 17.7465 3.68625 17.5536 3.28842 17.0065C2.89563 16.4618 2.61362 15.5888 2.60713 14.6186C2.60063 13.6484 2.87093 12.7717 3.25639 12.2219C3.64686 11.6695 4.07735 11.4708 4.46899 11.4682ZM25.8082 11.3253C26.1998 11.3227 26.6329 11.5156 27.0307 12.0627C27.4235 12.6086 27.7056 13.4803 27.712 14.4505C27.7185 15.4208 27.4482 16.2974 27.0628 16.8473C26.6723 17.3997 26.2418 17.5984 25.8502 17.601C25.4585 17.6036 25.0254 17.4107 24.6276 16.8636C24.2348 16.3177 23.9528 15.446 23.9463 14.4758C23.9398 13.5055 24.2101 12.6289 24.5956 12.079C24.986 11.5266 25.4165 11.3279 25.8082 11.3253ZM15.1554 13.907C13.4821 13.9182 12.322 15.0117 11.7548 15.9695C11.1913 16.9272 10.8451 17.7228 10.5134 18.0564C10.3227 18.2547 9.11445 18.7184 7.85598 19.3708C7.22675 19.6976 6.59322 20.1323 6.06164 20.7949C5.5263 21.4574 5.16837 22.3698 5.1752 23.3903C5.19134 25.8001 7.1879 27.7699 9.59797 27.7538C10.685 27.7465 11.8174 27.3875 12.9262 27.0663C14.04 26.7375 15.2394 26.4583 15.2394 26.4583C15.2394 26.4583 16.4425 26.7214 17.558 27.0328C18.6723 27.3391 19.8094 27.6829 20.8964 27.6757C23.3065 27.6595 25.2765 25.6631 25.2604 23.2533C25.2537 22.2567 24.8798 21.3479 24.3395 20.7114C23.8018 20.0711 23.1564 19.6775 22.5278 19.3491C21.2681 18.6923 20.0307 18.1734 19.8512 17.9939C19.548 17.6984 19.2036 16.8811 18.6197 15.926C18.0371 14.9672 16.8374 13.8958 15.1554 13.907ZM15.1722 16.4173C16.0007 16.4117 16.0936 16.6119 16.4706 17.232C16.8513 17.8508 17.1396 18.9044 18.057 19.8108C19.0995 20.8331 20.4089 21.0503 21.3651 21.551C21.8438 21.8013 22.2096 22.0687 22.4298 22.3283C22.6487 22.5867 22.7469 22.8233 22.7499 23.2676C22.7569 24.3219 21.934 25.1558 20.8796 25.1629C20.5156 25.1653 19.3413 24.897 18.2472 24.5906C17.153 24.2879 16.2469 23.9387 15.2226 23.9456C14.1983 23.9524 13.2969 24.3137 12.2069 24.631C11.117 24.9521 9.94641 25.2361 9.58239 25.2385C8.52798 25.2456 7.69397 24.4227 7.68692 23.3684C7.68353 22.8626 7.78723 22.6021 7.99389 22.3446C8.20055 22.0885 8.58297 21.8336 9.04833 21.5933C9.97904 21.1101 11.2782 20.9131 12.3318 19.8454C13.2457 18.9142 13.5146 17.8229 13.8833 17.2054C14.2457 16.5879 14.3324 16.4179 15.1709 16.4123L15.1722 16.4173Z" fill="#B8C4DA"/>
<path opacity="0.4" d="M61.7165 0.129983C60.3734 0.138975 59.2086 0.909928 58.4724 1.95666C57.7363 3.0034 57.3512 4.35154 57.3609 5.80749C57.3707 7.26344 57.7738 8.60756 58.5239 9.64434C59.274 10.6811 60.449 11.4352 61.7921 11.4262C63.1352 11.4172 64.3 10.6462 65.0361 9.59949C65.7722 8.55276 66.1574 7.20462 66.1476 5.74866C66.1379 4.29271 65.7347 2.94859 64.9846 1.91181C64.2346 0.875023 63.0596 0.120991 61.7165 0.129983ZM66.1476 5.74866C66.1574 7.20462 66.5606 8.54873 67.3106 9.58552C68.0607 10.6223 69.237 11.3763 70.5788 11.3673C71.9219 11.3584 73.0867 10.5874 73.8228 9.54066C74.559 8.49393 74.9441 7.14579 74.9344 5.68984C74.9246 4.23388 74.5215 2.88976 73.7714 1.85298C73.0213 0.816196 71.8463 0.0621638 70.5032 0.0711559C69.1601 0.0801481 67.9953 0.851101 67.2592 1.89784C66.523 2.94457 66.1379 4.29271 66.1476 5.74866ZM61.7333 2.64025C62.1249 2.63762 62.558 2.83053 62.9559 3.37764C63.3487 3.92353 63.6307 4.79525 63.6371 5.76547C63.6436 6.73569 63.3733 7.61236 62.9879 8.16221C62.5974 8.71459 62.1669 8.91328 61.7753 8.91591C61.3837 8.91853 60.9505 8.72562 60.5527 8.17851C60.1599 7.63262 59.8779 6.7609 59.8714 5.79068C59.8649 4.82047 60.1352 3.94379 60.5207 3.39395C60.9111 2.84156 61.3416 2.64287 61.7333 2.64025ZM70.52 2.58142C70.9116 2.5788 71.3447 2.77171 71.7426 3.31882C72.1354 3.8647 72.4174 4.73643 72.4239 5.70664C72.4304 6.67686 72.1601 7.55354 71.7746 8.10338C71.3841 8.65576 70.9536 8.85446 70.562 8.85708C70.1704 8.8597 69.7373 8.66679 69.3394 8.11968C68.9466 7.57379 68.6646 6.70207 68.6581 5.73185C68.6516 4.76164 68.9219 3.88496 69.3074 3.33512C69.6979 2.78273 70.1284 2.58404 70.52 2.58142ZM55.4991 8.95792C54.1559 8.96692 52.9912 9.73787 52.255 10.7846C51.5189 11.8313 51.1338 13.1795 51.1435 14.6354C51.1533 16.0914 51.5564 17.4355 52.3065 18.4723C53.0566 19.5091 54.2316 20.2631 55.5747 20.2541C56.9178 20.2451 58.0826 19.4742 58.8187 18.4274C59.5548 17.3807 59.94 16.0326 59.9302 14.5766C59.9205 13.1207 59.5173 11.7765 58.7672 10.7397C58.0172 9.70297 56.8422 8.94893 55.4991 8.95792ZM76.8382 8.81506C75.4951 8.82405 74.3303 9.595 73.5942 10.6417C72.8581 11.6885 72.4729 13.0366 72.4827 14.4926C72.4924 15.9485 72.8956 17.2926 73.6457 18.3294C74.3958 19.3662 75.5708 20.1202 76.9139 20.1112C78.257 20.1023 79.4218 19.3313 80.1579 18.2846C80.894 17.2378 81.2792 15.8897 81.2694 14.4337C81.2597 12.9778 80.8565 11.6337 80.1064 10.5969C79.3563 9.5601 78.1814 8.80607 76.8382 8.81506ZM55.5159 11.4682C55.9075 11.4656 56.3406 11.6585 56.7384 12.2056C57.1312 12.7515 57.4132 13.6232 57.4197 14.5934C57.4262 15.5636 57.1559 16.4403 56.7705 16.9901C56.38 17.5425 55.9495 17.7412 55.5579 17.7438C55.1662 17.7465 54.7331 17.5536 54.3353 17.0065C53.9425 16.4618 53.6605 15.5888 53.654 14.6186C53.6475 13.6484 53.9178 12.7717 54.3033 12.2219C54.6937 11.6695 55.1242 11.4708 55.5159 11.4682ZM76.855 11.3253C77.2467 11.3227 77.6798 11.5156 78.0776 12.0627C78.4704 12.6086 78.7524 13.4803 78.7589 14.4505C78.7654 15.4208 78.4951 16.2974 78.1097 16.8473C77.7192 17.3997 77.2887 17.5984 76.8971 17.601C76.5054 17.6036 76.0723 17.4107 75.6745 16.8636C75.2817 16.3177 74.9997 15.446 74.9932 14.4758C74.9867 13.5055 75.257 12.6289 75.6424 12.079C76.0329 11.5266 76.4634 11.3279 76.855 11.3253ZM66.2023 13.907C64.529 13.9182 63.3689 15.0117 62.8016 15.9695C62.2382 16.9272 61.892 17.7228 61.5603 18.0564C61.3696 18.2547 60.1613 18.7184 58.9029 19.3708C58.2736 19.6976 57.6401 20.1323 57.1085 20.7949C56.5732 21.4574 56.2152 22.3698 56.2221 23.3903C56.2382 25.8001 58.2348 27.7699 60.6448 27.7538C61.7319 27.7465 62.8643 27.3875 63.9731 27.0663C65.0868 26.7375 66.2863 26.4583 66.2863 26.4583C66.2863 26.4583 67.4894 26.7214 68.6049 27.0328C69.7192 27.3391 70.8563 27.6829 71.9433 27.6757C74.3534 27.6595 76.3234 25.6631 76.3073 23.2533C76.3006 22.2567 75.9267 21.3479 75.3864 20.7114C74.8486 20.0711 74.2033 19.6775 73.5747 19.3491C72.315 18.6923 71.0775 18.1734 70.8981 17.9939C70.5948 17.6984 70.2504 16.8811 69.6666 15.926C69.084 14.9672 67.8843 13.8958 66.2023 13.907ZM66.2191 16.4173C67.0475 16.4117 67.1405 16.6119 67.5175 17.232C67.8982 17.8508 68.1865 18.9044 69.1039 19.8108C70.1463 20.8331 71.4558 21.0503 72.412 21.551C72.8906 21.8013 73.2565 22.0687 73.4766 22.3283C73.6955 22.5867 73.7938 22.8233 73.7967 23.2676C73.8038 24.3219 72.9809 25.1558 71.9265 25.1629C71.5625 25.1653 70.3882 24.897 69.294 24.5906C68.1999 24.2879 67.2937 23.9387 66.2695 23.9456C65.2452 23.9524 64.3438 24.3137 63.2538 24.631C62.1638 24.9521 60.9933 25.2361 60.6293 25.2385C59.5749 25.2456 58.7408 24.4227 58.7338 23.3684C58.7304 22.8626 58.8341 22.6021 59.0408 22.3446C59.2474 22.0885 59.6298 21.8336 60.0952 21.5933C61.0259 21.1101 62.3251 20.9131 63.3787 19.8454C64.2926 18.9142 64.5614 17.8229 64.9301 17.2054C65.2925 16.5879 65.3793 16.4179 66.2178 16.4123L66.2191 16.4173Z" fill="#B8C4DA"/>
<path opacity="0.6" d="M112.765 0.129983C111.422 0.138975 110.257 0.909928 109.521 1.95666C108.785 3.0034 108.4 4.35154 108.41 5.80749C108.419 7.26344 108.823 8.60756 109.573 9.64434C110.323 10.6811 111.498 11.4352 112.841 11.4262C114.184 11.4172 115.349 10.6462 116.085 9.59949C116.821 8.55276 117.206 7.20462 117.196 5.74866C117.187 4.29271 116.784 2.94859 116.033 1.91181C115.283 0.875023 114.108 0.120991 112.765 0.129983ZM117.196 5.74866C117.206 7.20462 117.609 8.54873 118.359 9.58552C119.11 10.6223 120.286 11.3763 121.628 11.3673C122.971 11.3584 124.136 10.5874 124.872 9.54066C125.608 8.49393 125.993 7.14579 125.983 5.68984C125.973 4.23388 125.57 2.88976 124.82 1.85298C124.07 0.816196 122.895 0.0621638 121.552 0.0711559C120.209 0.0801481 119.044 0.851101 118.308 1.89784C117.572 2.94457 117.187 4.29271 117.196 5.74866ZM112.782 2.64025C113.174 2.63762 113.607 2.83053 114.005 3.37764C114.397 3.92353 114.679 4.79525 114.686 5.76547C114.692 6.73569 114.422 7.61236 114.037 8.16221C113.646 8.71459 113.216 8.91328 112.824 8.91591C112.432 8.91853 111.999 8.72562 111.602 8.17851C111.209 7.63262 110.927 6.7609 110.92 5.79068C110.914 4.82047 111.184 3.94379 111.57 3.39395C111.96 2.84156 112.39 2.64287 112.782 2.64025ZM121.569 2.58142C121.96 2.5788 122.394 2.77171 122.791 3.31882C123.184 3.8647 123.466 4.73643 123.473 5.70664C123.479 6.67686 123.209 7.55354 122.823 8.10338C122.433 8.65576 122.002 8.85446 121.611 8.85708C121.219 8.8597 120.786 8.66679 120.388 8.11968C119.995 7.57379 119.713 6.70207 119.707 5.73185C119.7 4.76164 119.971 3.88496 120.356 3.33512C120.747 2.78273 121.177 2.58404 121.569 2.58142ZM106.548 8.95792C105.205 8.96692 104.04 9.73787 103.304 10.7846C102.568 11.8313 102.183 13.1795 102.192 14.6354C102.202 16.0914 102.605 17.4355 103.355 18.4723C104.105 19.5091 105.28 20.2631 106.624 20.2541C107.967 20.2451 109.131 19.4742 109.868 18.4274C110.604 17.3807 110.989 16.0326 110.979 14.5766C110.969 13.1207 110.566 11.7765 109.816 10.7397C109.066 9.70297 107.891 8.94893 106.548 8.95792ZM127.887 8.81506C126.544 8.82405 125.379 9.595 124.643 10.6417C123.907 11.6885 123.522 13.0366 123.532 14.4926C123.541 15.9485 123.944 17.2926 124.695 18.3294C125.445 19.3662 126.62 20.1202 127.963 20.1112C129.306 20.1023 130.471 19.3313 131.207 18.2846C131.943 17.2378 132.328 15.8897 132.318 14.4337C132.308 12.9778 131.905 11.6337 131.155 10.5969C130.405 9.5601 129.23 8.80607 127.887 8.81506ZM106.565 11.4682C106.956 11.4656 107.389 11.6585 107.787 12.2056C108.18 12.7515 108.462 13.6232 108.469 14.5934C108.475 15.5636 108.205 16.4403 107.819 16.9901C107.429 17.5425 106.998 17.7412 106.607 17.7438C106.215 17.7465 105.782 17.5536 105.384 17.0065C104.991 16.4618 104.709 15.5888 104.703 14.6186C104.696 13.6484 104.967 12.7717 105.352 12.2219C105.743 11.6695 106.173 11.4708 106.565 11.4682ZM127.904 11.3253C128.296 11.3227 128.729 11.5156 129.126 12.0627C129.519 12.6086 129.801 13.4803 129.808 14.4505C129.814 15.4208 129.544 16.2974 129.158 16.8473C128.768 17.3997 128.338 17.5984 127.946 17.601C127.554 17.6036 127.121 17.4107 126.723 16.8636C126.331 16.3177 126.049 15.446 126.042 14.4758C126.036 13.5055 126.306 12.6289 126.691 12.079C127.082 11.5266 127.512 11.3279 127.904 11.3253ZM117.251 13.907C115.578 13.9182 114.418 15.0117 113.85 15.9695C113.287 16.9272 112.941 17.7228 112.609 18.0564C112.418 18.2547 111.21 18.7184 109.952 19.3708C109.322 19.6976 108.689 20.1323 108.157 20.7949C107.622 21.4574 107.264 22.3698 107.271 23.3903C107.287 25.8001 109.284 27.7699 111.694 27.7538C112.781 27.7465 113.913 27.3875 115.022 27.0663C116.136 26.7375 117.335 26.4583 117.335 26.4583C117.335 26.4583 118.538 26.7214 119.654 27.0328C120.768 27.3391 121.905 27.6829 122.992 27.6757C125.402 27.6595 127.372 25.6631 127.356 23.2533C127.349 22.2567 126.976 21.3479 126.435 20.7114C125.897 20.0711 125.252 19.6775 124.624 19.3491C123.364 18.6923 122.126 18.1734 121.947 17.9939C121.644 17.6984 121.299 16.8811 120.715 15.926C120.133 14.9672 118.933 13.8958 117.251 13.907ZM117.268 16.4173C118.096 16.4117 118.189 16.6119 118.566 17.232C118.947 17.8508 119.235 18.9044 120.153 19.8108C121.195 20.8331 122.505 21.0503 123.461 21.551C123.939 21.8013 124.305 22.0687 124.525 22.3283C124.744 22.5867 124.843 22.8233 124.846 23.2676C124.853 24.3219 124.03 25.1558 122.975 25.1629C122.611 25.1653 121.437 24.897 120.343 24.5906C119.249 24.2879 118.343 23.9387 117.318 23.9456C116.294 23.9524 115.393 24.3137 114.303 24.631C113.213 24.9521 112.042 25.2361 111.678 25.2385C110.624 25.2456 109.79 24.4227 109.783 23.3684C109.779 22.8626 109.883 22.6021 110.09 22.3446C110.296 22.0885 110.679 21.8336 111.144 21.5933C112.075 21.1101 113.374 20.9131 114.428 19.8454C115.341 18.9142 115.61 17.8229 115.979 17.2054C116.341 16.5879 116.428 16.4179 117.267 16.4123L117.268 16.4173Z" fill="#B8C4DA"/>
<path opacity="0.8" d="M163.814 0.129983C162.471 0.138975 161.306 0.909928 160.57 1.95666C159.834 3.0034 159.449 4.35154 159.459 5.80749C159.468 7.26344 159.871 8.60756 160.622 9.64434C161.372 10.6811 162.547 11.4352 163.89 11.4262C165.233 11.4172 166.398 10.6462 167.134 9.59949C167.87 8.55276 168.255 7.20462 168.245 5.74866C168.236 4.29271 167.832 2.94859 167.082 1.91181C166.332 0.875023 165.157 0.120991 163.814 0.129983ZM168.245 5.74866C168.255 7.20462 168.658 8.54873 169.408 9.58552C170.158 10.6223 171.335 11.3763 172.676 11.3673C174.02 11.3584 175.184 10.5874 175.92 9.54066C176.657 8.49393 177.042 7.14579 177.032 5.68984C177.022 4.23388 176.619 2.88976 175.869 1.85298C175.119 0.816196 173.944 0.0621638 172.601 0.0711559C171.258 0.0801481 170.093 0.851101 169.357 1.89784C168.621 2.94457 168.236 4.29271 168.245 5.74866ZM163.831 2.64025C164.223 2.63762 164.656 2.83053 165.054 3.37764C165.446 3.92353 165.728 4.79525 165.735 5.76547C165.741 6.73569 165.471 7.61236 165.086 8.16221C164.695 8.71459 164.265 8.91328 163.873 8.91591C163.481 8.91853 163.048 8.72562 162.65 8.17851C162.258 7.63262 161.976 6.7609 161.969 5.79068C161.963 4.82047 162.233 3.94379 162.618 3.39395C163.009 2.84156 163.439 2.64287 163.831 2.64025ZM172.618 2.58142C173.009 2.5788 173.442 2.77171 173.84 3.31882C174.233 3.8647 174.515 4.73643 174.522 5.70664C174.528 6.67686 174.258 7.55354 173.872 8.10338C173.482 8.65576 173.051 8.85446 172.66 8.85708C172.268 8.8597 171.835 8.66679 171.437 8.11968C171.044 7.57379 170.762 6.70207 170.756 5.73185C170.749 4.76164 171.02 3.88496 171.405 3.33512C171.796 2.78273 172.226 2.58404 172.618 2.58142ZM157.597 8.95792C156.254 8.96692 155.089 9.73787 154.353 10.7846C153.617 11.8313 153.231 13.1795 153.241 14.6354C153.251 16.0914 153.654 17.4355 154.404 18.4723C155.154 19.5091 156.329 20.2631 157.672 20.2541C159.015 20.2451 160.18 19.4742 160.916 18.4274C161.652 17.3807 162.038 16.0326 162.028 14.5766C162.018 13.1207 161.615 11.7765 160.865 10.7397C160.115 9.70297 158.94 8.94893 157.597 8.95792ZM178.936 8.81506C177.593 8.82405 176.428 9.595 175.692 10.6417C174.956 11.6885 174.571 13.0366 174.58 14.4926C174.59 15.9485 174.993 17.2926 175.743 18.3294C176.493 19.3662 177.668 20.1202 179.012 20.1112C180.355 20.1023 181.519 19.3313 182.256 18.2846C182.992 17.2378 183.377 15.8897 183.367 14.4337C183.357 12.9778 182.954 11.6337 182.204 10.5969C181.454 9.5601 180.279 8.80607 178.936 8.81506ZM157.614 11.4682C158.005 11.4656 158.438 11.6585 158.836 12.2056C159.229 12.7515 159.511 13.6232 159.517 14.5934C159.524 15.5636 159.254 16.4403 158.868 16.9901C158.478 17.5425 158.047 17.7412 157.656 17.7438C157.264 17.7465 156.831 17.5536 156.433 17.0065C156.04 16.4618 155.758 15.5888 155.752 14.6186C155.745 13.6484 156.015 12.7717 156.401 12.2219C156.791 11.6695 157.222 11.4708 157.614 11.4682ZM178.953 11.3253C179.344 11.3227 179.777 11.5156 180.175 12.0627C180.568 12.6086 180.85 13.4803 180.857 14.4505C180.863 15.4208 180.593 16.2974 180.207 16.8473C179.817 17.3997 179.386 17.5984 178.995 17.601C178.603 17.6036 178.17 17.4107 177.772 16.8636C177.379 16.3177 177.097 15.446 177.091 14.4758C177.084 13.5055 177.355 12.6289 177.74 12.079C178.131 11.5266 178.561 11.3279 178.953 11.3253ZM168.3 13.907C166.627 13.9182 165.467 15.0117 164.899 15.9695C164.336 16.9272 163.99 17.7228 163.658 18.0564C163.467 18.2547 162.259 18.7184 161.001 19.3708C160.371 19.6976 159.738 20.1323 159.206 20.7949C158.671 21.4574 158.313 22.3698 158.32 23.3903C158.336 25.8001 160.332 27.7699 162.743 27.7538C163.83 27.7465 164.962 27.3875 166.071 27.0663C167.184 26.7375 168.384 26.4583 168.384 26.4583C168.384 26.4583 169.587 26.7214 170.703 27.0328C171.817 27.3391 172.954 27.6829 174.041 27.6757C176.451 27.6595 178.421 25.6631 178.405 23.2533C178.398 22.2567 178.024 21.3479 177.484 20.7114C176.946 20.0711 176.301 19.6775 175.672 19.3491C174.413 18.6923 173.175 18.1734 172.996 17.9939C172.692 17.6984 172.348 16.8811 171.764 15.926C171.182 14.9672 169.982 13.8958 168.3 13.907ZM168.317 16.4173C169.145 16.4117 169.238 16.6119 169.615 17.232C169.996 17.8508 170.284 18.9044 171.202 19.8108C172.244 20.8331 173.553 21.0503 174.51 21.551C174.988 21.8013 175.354 22.0687 175.574 22.3283C175.793 22.5867 175.891 22.8233 175.894 23.2676C175.901 24.3219 175.079 25.1558 174.024 25.1629C173.66 25.1653 172.486 24.897 171.392 24.5906C170.298 24.2879 169.391 23.9387 168.367 23.9456C167.343 23.9524 166.441 24.3137 165.351 24.631C164.261 24.9521 163.091 25.2361 162.727 25.2385C161.673 25.2456 160.839 24.4227 160.831 23.3684C160.828 22.8626 160.932 22.6021 161.138 22.3446C161.345 22.0885 161.728 21.8336 162.193 21.5933C163.124 21.1101 164.423 20.9131 165.476 19.8454C166.39 18.9142 166.659 17.8229 167.028 17.2054C167.39 16.5879 167.477 16.4179 168.315 16.4123L168.317 16.4173Z" fill="#B8C4DA"/>
</svg>
