<svg width="184" height="28" viewBox="0 0 184 28" fill="none" xmlns="http://www.w3.org/2000/svg">
<path d="M10.6696 0.132913C9.32648 0.141905 8.1617 0.912858 7.42557 1.95959C6.68944 3.00633 6.3043 4.35447 6.31404 5.81042C6.32379 7.26637 6.72696 8.61049 7.47704 9.64727C8.22712 10.6841 9.40211 11.4381 10.7452 11.4291C12.0883 11.4201 13.2531 10.6492 13.9892 9.60242C14.7254 8.55569 15.1105 7.20755 15.1008 5.75159C15.091 4.29564 14.6879 2.95152 13.9378 1.91474C13.1877 0.877953 12.0127 0.123921 10.6696 0.132913ZM15.1008 5.75159C15.1105 7.20755 15.5137 8.55166 16.2638 9.58845C17.0138 10.6252 18.1901 11.3793 19.5319 11.3703C20.8751 11.3613 22.0398 10.5903 22.776 9.54359C23.5121 8.49686 23.8972 7.14872 23.8875 5.69277C23.8777 4.23681 23.4746 2.89269 22.7245 1.85591C21.9744 0.819126 20.7994 0.0650935 19.4563 0.0740856C18.1132 0.0830778 16.9484 0.854031 16.2123 1.90077C15.4762 2.9475 15.091 4.29564 15.1008 5.75159ZM10.6864 2.64318C11.078 2.64055 11.5111 2.83346 11.909 3.38057C12.3018 3.92646 12.5838 4.79818 12.5903 5.7684C12.5968 6.73862 12.3265 7.61529 11.941 8.16514C11.5505 8.71752 11.12 8.91621 10.7284 8.91883C10.3368 8.92146 9.90366 8.72855 9.50583 8.18144C9.11303 7.63555 8.83103 6.76383 8.82454 5.79361C8.81804 4.82339 9.08834 3.94672 9.4738 3.39688C9.86427 2.84449 10.2948 2.6458 10.6864 2.64318ZM19.4731 2.58435C19.8648 2.58173 20.2979 2.77464 20.6957 3.32175C21.0885 3.86763 21.3705 4.73936 21.377 5.70957C21.3835 6.67979 21.1132 7.55647 20.7277 8.10631C20.3373 8.65869 19.9068 8.85739 19.5151 8.86001C19.1235 8.86263 18.6904 8.66972 18.2926 8.12261C17.8998 7.57672 17.6178 6.705 17.6113 5.73478C17.6048 4.76457 17.8751 3.88789 18.2605 3.33805C18.651 2.78566 19.0815 2.58697 19.4731 2.58435ZM4.45218 8.96085C3.10907 8.96985 1.94429 9.7408 1.20816 10.7875C0.472027 11.8343 0.0868882 13.1824 0.0966358 14.6384C0.106383 16.0943 0.509547 17.4384 1.25963 18.4752C2.00971 19.512 3.1847 20.266 4.52781 20.257C5.87092 20.248 7.0357 19.4771 7.77183 18.4304C8.50797 17.3836 8.89311 16.0355 8.88336 14.5795C8.87361 13.1236 8.47045 11.7795 7.72037 10.7427C6.97029 9.7059 5.7953 8.95186 4.45218 8.96085ZM25.7914 8.81799C24.4483 8.82698 23.2835 9.59793 22.5473 10.6447C21.8112 11.6914 21.4261 13.0395 21.4358 14.4955C21.4456 15.9514 21.8487 17.2956 22.5988 18.3323C23.3489 19.3691 24.5239 20.1232 25.867 20.1142C27.2101 20.1052 28.3749 19.3342 29.111 18.2875C29.8471 17.2408 30.2323 15.8926 30.2225 14.4367C30.2128 12.9807 29.8096 11.6366 29.0595 10.5998C28.3095 9.56303 27.1345 8.809 25.7914 8.81799ZM4.46899 11.4711C4.86063 11.4685 5.29374 11.6614 5.69157 12.2085C6.08437 12.7544 6.36637 13.6261 6.37287 14.5963C6.37936 15.5666 6.10906 16.4432 5.7236 16.9931C5.33314 17.5455 4.90264 17.7442 4.511 17.7468C4.11937 17.7494 3.68625 17.5565 3.28842 17.0094C2.89563 16.4647 2.61362 15.5918 2.60713 14.6216C2.60063 13.6513 2.87093 12.7747 3.25639 12.2248C3.64686 11.6724 4.07735 11.4737 4.46899 11.4711ZM25.8082 11.3283C26.1998 11.3256 26.6329 11.5185 27.0307 12.0656C27.4235 12.6115 27.7056 13.4833 27.712 14.4535C27.7185 15.4237 27.4482 16.3004 27.0628 16.8502C26.6723 17.4026 26.2418 17.6013 25.8502 17.6039C25.4585 17.6065 25.0254 17.4136 24.6276 16.8665C24.2348 16.3206 23.9528 15.4489 23.9463 14.4787C23.9398 13.5085 24.2101 12.6318 24.5956 12.082C24.986 11.5296 25.4165 11.3309 25.8082 11.3283ZM15.1554 13.9099C13.4821 13.9212 12.322 15.0147 11.7548 15.9724C11.1913 16.9301 10.8451 17.7257 10.5134 18.0593C10.3227 18.2576 9.11445 18.7214 7.85598 19.3737C7.22675 19.7005 6.59322 20.1353 6.06164 20.7978C5.5263 21.4604 5.16837 22.3728 5.1752 23.3932C5.19134 25.803 7.1879 27.7729 9.59797 27.7567C10.685 27.7495 11.8174 27.3904 12.9262 27.0692C14.04 26.7404 15.2394 26.4613 15.2394 26.4613C15.2394 26.4613 16.4425 26.7243 17.558 27.0357C18.6723 27.342 19.8094 27.6859 20.8964 27.6786C23.3065 27.6624 25.2765 25.6661 25.2604 23.2562C25.2537 22.2596 24.8798 21.3509 24.3395 20.7143C23.8018 20.074 23.1564 19.6805 22.5278 19.352C21.2681 18.6952 20.0307 18.1763 19.8512 17.9968C19.548 17.7013 19.2036 16.884 18.6197 15.9289C18.0371 14.9701 16.8374 13.8987 15.1554 13.9099ZM15.1722 16.4202C16.0007 16.4147 16.0936 16.6149 16.4706 17.2349C16.8513 17.8537 17.1396 18.9074 18.057 19.8138C19.0995 20.836 20.4089 21.0532 21.3651 21.5539C21.8438 21.8042 22.2096 22.0716 22.4298 22.3313C22.6487 22.5896 22.7469 22.8262 22.7499 23.2705C22.7569 24.3248 21.934 25.1587 20.8796 25.1658C20.5156 25.1682 19.3413 24.9 18.2472 24.5935C17.153 24.2908 16.2469 23.9416 15.2226 23.9485C14.1983 23.9553 13.2969 24.3166 12.2069 24.6339C11.117 24.955 9.94641 25.239 9.58239 25.2414C8.52798 25.2485 7.69397 24.4257 7.68692 23.3713C7.68353 22.8655 7.78723 22.605 7.99389 22.3476C8.20055 22.0914 8.58297 21.8365 9.04833 21.5962C9.97904 21.113 11.2782 20.916 12.3318 19.8483C13.2457 18.9171 13.5146 17.8258 13.8833 17.2083C14.2457 16.5908 14.3324 16.4208 15.1709 16.4152L15.1722 16.4202Z" fill="#B8C4DA"/>
<path opacity="0.6" d="M61.7165 0.132913C60.3734 0.141905 59.2086 0.912858 58.4724 1.95959C57.7363 3.00633 57.3512 4.35447 57.3609 5.81042C57.3707 7.26637 57.7738 8.61049 58.5239 9.64727C59.274 10.6841 60.449 11.4381 61.7921 11.4291C63.1352 11.4201 64.3 10.6492 65.0361 9.60242C65.7722 8.55569 66.1574 7.20755 66.1476 5.75159C66.1379 4.29564 65.7347 2.95152 64.9846 1.91474C64.2346 0.877953 63.0596 0.123921 61.7165 0.132913ZM66.1476 5.75159C66.1574 7.20755 66.5606 8.55166 67.3106 9.58845C68.0607 10.6252 69.237 11.3793 70.5788 11.3703C71.9219 11.3613 73.0867 10.5903 73.8228 9.54359C74.559 8.49686 74.9441 7.14872 74.9344 5.69277C74.9246 4.23681 74.5215 2.89269 73.7714 1.85591C73.0213 0.819126 71.8463 0.0650935 70.5032 0.0740856C69.1601 0.0830778 67.9953 0.854031 67.2592 1.90077C66.523 2.9475 66.1379 4.29564 66.1476 5.75159ZM61.7333 2.64318C62.1249 2.64055 62.558 2.83346 62.9559 3.38057C63.3487 3.92646 63.6307 4.79818 63.6371 5.7684C63.6436 6.73862 63.3733 7.61529 62.9879 8.16514C62.5974 8.71752 62.1669 8.91621 61.7753 8.91883C61.3837 8.92146 60.9505 8.72855 60.5527 8.18144C60.1599 7.63555 59.8779 6.76383 59.8714 5.79361C59.8649 4.82339 60.1352 3.94672 60.5207 3.39688C60.9111 2.84449 61.3416 2.6458 61.7333 2.64318ZM70.52 2.58435C70.9116 2.58173 71.3447 2.77464 71.7426 3.32175C72.1354 3.86763 72.4174 4.73936 72.4239 5.70957C72.4304 6.67979 72.1601 7.55647 71.7746 8.10631C71.3841 8.65869 70.9536 8.85739 70.562 8.86001C70.1704 8.86263 69.7373 8.66972 69.3394 8.12261C68.9466 7.57672 68.6646 6.705 68.6581 5.73478C68.6516 4.76457 68.9219 3.88789 69.3074 3.33805C69.6979 2.78566 70.1284 2.58697 70.52 2.58435ZM55.4991 8.96085C54.1559 8.96985 52.9912 9.7408 52.255 10.7875C51.5189 11.8343 51.1338 13.1824 51.1435 14.6384C51.1533 16.0943 51.5564 17.4384 52.3065 18.4752C53.0566 19.512 54.2316 20.266 55.5747 20.257C56.9178 20.248 58.0826 19.4771 58.8187 18.4304C59.5548 17.3836 59.94 16.0355 59.9302 14.5795C59.9205 13.1236 59.5173 11.7795 58.7672 10.7427C58.0172 9.7059 56.8422 8.95186 55.4991 8.96085ZM76.8382 8.81799C75.4951 8.82698 74.3303 9.59793 73.5942 10.6447C72.8581 11.6914 72.4729 13.0395 72.4827 14.4955C72.4924 15.9514 72.8956 17.2956 73.6457 18.3323C74.3958 19.3691 75.5708 20.1232 76.9139 20.1142C78.257 20.1052 79.4218 19.3342 80.1579 18.2875C80.894 17.2408 81.2792 15.8926 81.2694 14.4367C81.2597 12.9807 80.8565 11.6366 80.1064 10.5998C79.3563 9.56303 78.1814 8.809 76.8382 8.81799ZM55.5159 11.4711C55.9075 11.4685 56.3406 11.6614 56.7384 12.2085C57.1312 12.7544 57.4132 13.6261 57.4197 14.5963C57.4262 15.5666 57.1559 16.4432 56.7705 16.9931C56.38 17.5455 55.9495 17.7442 55.5579 17.7468C55.1662 17.7494 54.7331 17.5565 54.3353 17.0094C53.9425 16.4647 53.6605 15.5918 53.654 14.6216C53.6475 13.6513 53.9178 12.7747 54.3033 12.2248C54.6937 11.6724 55.1242 11.4737 55.5159 11.4711ZM76.855 11.3283C77.2467 11.3256 77.6798 11.5185 78.0776 12.0656C78.4704 12.6115 78.7524 13.4833 78.7589 14.4535C78.7654 15.4237 78.4951 16.3004 78.1097 16.8502C77.7192 17.4026 77.2887 17.6013 76.8971 17.6039C76.5054 17.6065 76.0723 17.4136 75.6745 16.8665C75.2817 16.3206 74.9997 15.4489 74.9932 14.4787C74.9867 13.5085 75.257 12.6318 75.6424 12.082C76.0329 11.5296 76.4634 11.3309 76.855 11.3283ZM66.2023 13.9099C64.529 13.9212 63.3689 15.0147 62.8016 15.9724C62.2382 16.9301 61.892 17.7257 61.5603 18.0593C61.3696 18.2576 60.1613 18.7214 58.9029 19.3737C58.2736 19.7005 57.6401 20.1353 57.1085 20.7978C56.5732 21.4604 56.2152 22.3728 56.2221 23.3932C56.2382 25.803 58.2348 27.7729 60.6448 27.7567C61.7319 27.7495 62.8643 27.3904 63.9731 27.0692C65.0868 26.7404 66.2863 26.4613 66.2863 26.4613C66.2863 26.4613 67.4894 26.7243 68.6049 27.0357C69.7192 27.342 70.8563 27.6859 71.9433 27.6786C74.3534 27.6624 76.3234 25.6661 76.3073 23.2562C76.3006 22.2596 75.9267 21.3509 75.3864 20.7143C74.8486 20.074 74.2033 19.6805 73.5747 19.352C72.315 18.6952 71.0775 18.1763 70.8981 17.9968C70.5948 17.7013 70.2504 16.884 69.6666 15.9289C69.084 14.9701 67.8843 13.8987 66.2023 13.9099ZM66.2191 16.4202C67.0475 16.4147 67.1405 16.6149 67.5175 17.2349C67.8982 17.8537 68.1865 18.9074 69.1039 19.8138C70.1463 20.836 71.4558 21.0532 72.412 21.5539C72.8906 21.8042 73.2565 22.0716 73.4766 22.3313C73.6955 22.5896 73.7938 22.8262 73.7967 23.2705C73.8038 24.3248 72.9809 25.1587 71.9265 25.1658C71.5625 25.1682 70.3882 24.9 69.294 24.5935C68.1999 24.2908 67.2937 23.9416 66.2695 23.9485C65.2452 23.9553 64.3438 24.3166 63.2538 24.6339C62.1638 24.955 60.9933 25.239 60.6293 25.2414C59.5749 25.2485 58.7408 24.4257 58.7338 23.3713C58.7304 22.8655 58.8341 22.605 59.0408 22.3476C59.2474 22.0914 59.6298 21.8365 60.0952 21.5962C61.0259 21.113 62.3251 20.916 63.3787 19.8483C64.2926 18.9171 64.5614 17.8258 64.9301 17.2083C65.2925 16.5908 65.3793 16.4208 66.2178 16.4152L66.2191 16.4202Z" fill="#B8C4DA"/>
<path opacity="0.4" d="M112.765 0.132913C111.422 0.141905 110.257 0.912858 109.521 1.95959C108.785 3.00633 108.4 4.35447 108.41 5.81042C108.419 7.26637 108.823 8.61049 109.573 9.64727C110.323 10.6841 111.498 11.4381 112.841 11.4291C114.184 11.4201 115.349 10.6492 116.085 9.60242C116.821 8.55569 117.206 7.20755 117.196 5.75159C117.187 4.29564 116.784 2.95152 116.033 1.91474C115.283 0.877953 114.108 0.123921 112.765 0.132913ZM117.196 5.75159C117.206 7.20755 117.609 8.55166 118.359 9.58845C119.11 10.6252 120.286 11.3793 121.628 11.3703C122.971 11.3613 124.136 10.5903 124.872 9.54359C125.608 8.49686 125.993 7.14872 125.983 5.69277C125.973 4.23681 125.57 2.89269 124.82 1.85591C124.07 0.819126 122.895 0.0650935 121.552 0.0740856C120.209 0.0830778 119.044 0.854031 118.308 1.90077C117.572 2.9475 117.187 4.29564 117.196 5.75159ZM112.782 2.64318C113.174 2.64055 113.607 2.83346 114.005 3.38057C114.397 3.92646 114.679 4.79818 114.686 5.7684C114.692 6.73862 114.422 7.61529 114.037 8.16514C113.646 8.71752 113.216 8.91621 112.824 8.91883C112.432 8.92146 111.999 8.72855 111.602 8.18144C111.209 7.63555 110.927 6.76383 110.92 5.79361C110.914 4.82339 111.184 3.94672 111.57 3.39688C111.96 2.84449 112.39 2.6458 112.782 2.64318ZM121.569 2.58435C121.96 2.58173 122.394 2.77464 122.791 3.32175C123.184 3.86763 123.466 4.73936 123.473 5.70957C123.479 6.67979 123.209 7.55647 122.823 8.10631C122.433 8.65869 122.002 8.85739 121.611 8.86001C121.219 8.86263 120.786 8.66972 120.388 8.12261C119.995 7.57672 119.713 6.705 119.707 5.73478C119.7 4.76457 119.971 3.88789 120.356 3.33805C120.747 2.78566 121.177 2.58697 121.569 2.58435ZM106.548 8.96085C105.205 8.96985 104.04 9.7408 103.304 10.7875C102.568 11.8343 102.183 13.1824 102.192 14.6384C102.202 16.0943 102.605 17.4384 103.355 18.4752C104.105 19.512 105.28 20.266 106.624 20.257C107.967 20.248 109.131 19.4771 109.868 18.4304C110.604 17.3836 110.989 16.0355 110.979 14.5795C110.969 13.1236 110.566 11.7795 109.816 10.7427C109.066 9.7059 107.891 8.95186 106.548 8.96085ZM127.887 8.81799C126.544 8.82698 125.379 9.59793 124.643 10.6447C123.907 11.6914 123.522 13.0395 123.532 14.4955C123.541 15.9514 123.944 17.2956 124.695 18.3323C125.445 19.3691 126.62 20.1232 127.963 20.1142C129.306 20.1052 130.471 19.3342 131.207 18.2875C131.943 17.2408 132.328 15.8926 132.318 14.4367C132.308 12.9807 131.905 11.6366 131.155 10.5998C130.405 9.56303 129.23 8.809 127.887 8.81799ZM106.565 11.4711C106.956 11.4685 107.389 11.6614 107.787 12.2085C108.18 12.7544 108.462 13.6261 108.469 14.5963C108.475 15.5666 108.205 16.4432 107.819 16.9931C107.429 17.5455 106.998 17.7442 106.607 17.7468C106.215 17.7494 105.782 17.5565 105.384 17.0094C104.991 16.4647 104.709 15.5918 104.703 14.6216C104.696 13.6513 104.967 12.7747 105.352 12.2248C105.743 11.6724 106.173 11.4737 106.565 11.4711ZM127.904 11.3283C128.296 11.3256 128.729 11.5185 129.126 12.0656C129.519 12.6115 129.801 13.4833 129.808 14.4535C129.814 15.4237 129.544 16.3004 129.158 16.8502C128.768 17.4026 128.338 17.6013 127.946 17.6039C127.554 17.6065 127.121 17.4136 126.723 16.8665C126.331 16.3206 126.049 15.4489 126.042 14.4787C126.036 13.5085 126.306 12.6318 126.691 12.082C127.082 11.5296 127.512 11.3309 127.904 11.3283ZM117.251 13.9099C115.578 13.9212 114.418 15.0147 113.85 15.9724C113.287 16.9301 112.941 17.7257 112.609 18.0593C112.418 18.2576 111.21 18.7214 109.952 19.3737C109.322 19.7005 108.689 20.1353 108.157 20.7978C107.622 21.4604 107.264 22.3728 107.271 23.3932C107.287 25.803 109.284 27.7729 111.694 27.7567C112.781 27.7495 113.913 27.3904 115.022 27.0692C116.136 26.7404 117.335 26.4613 117.335 26.4613C117.335 26.4613 118.538 26.7243 119.654 27.0357C120.768 27.342 121.905 27.6859 122.992 27.6786C125.402 27.6624 127.372 25.6661 127.356 23.2562C127.349 22.2596 126.976 21.3509 126.435 20.7143C125.897 20.074 125.252 19.6805 124.624 19.352C123.364 18.6952 122.126 18.1763 121.947 17.9968C121.644 17.7013 121.299 16.884 120.715 15.9289C120.133 14.9701 118.933 13.8987 117.251 13.9099ZM117.268 16.4202C118.096 16.4147 118.189 16.6149 118.566 17.2349C118.947 17.8537 119.235 18.9074 120.153 19.8138C121.195 20.836 122.505 21.0532 123.461 21.5539C123.939 21.8042 124.305 22.0716 124.525 22.3313C124.744 22.5896 124.843 22.8262 124.846 23.2705C124.853 24.3248 124.03 25.1587 122.975 25.1658C122.611 25.1682 121.437 24.9 120.343 24.5935C119.249 24.2908 118.343 23.9416 117.318 23.9485C116.294 23.9553 115.393 24.3166 114.303 24.6339C113.213 24.955 112.042 25.239 111.678 25.2414C110.624 25.2485 109.79 24.4257 109.783 23.3713C109.779 22.8655 109.883 22.605 110.09 22.3476C110.296 22.0914 110.679 21.8365 111.144 21.5962C112.075 21.113 113.374 20.916 114.428 19.8483C115.341 18.9171 115.61 17.8258 115.979 17.2083C116.341 16.5908 116.428 16.4208 117.267 16.4152L117.268 16.4202Z" fill="#B8C4DA"/>
<path opacity="0.2" d="M163.814 0.132913C162.471 0.141905 161.306 0.912858 160.57 1.95959C159.834 3.00633 159.449 4.35447 159.459 5.81042C159.468 7.26637 159.871 8.61049 160.622 9.64727C161.372 10.6841 162.547 11.4381 163.89 11.4291C165.233 11.4201 166.398 10.6492 167.134 9.60242C167.87 8.55569 168.255 7.20755 168.245 5.75159C168.236 4.29564 167.832 2.95152 167.082 1.91474C166.332 0.877953 165.157 0.123921 163.814 0.132913ZM168.245 5.75159C168.255 7.20755 168.658 8.55166 169.408 9.58845C170.158 10.6252 171.335 11.3793 172.676 11.3703C174.02 11.3613 175.184 10.5903 175.92 9.54359C176.657 8.49686 177.042 7.14872 177.032 5.69277C177.022 4.23681 176.619 2.89269 175.869 1.85591C175.119 0.819126 173.944 0.0650935 172.601 0.0740856C171.258 0.0830778 170.093 0.854031 169.357 1.90077C168.621 2.9475 168.236 4.29564 168.245 5.75159ZM163.831 2.64318C164.223 2.64055 164.656 2.83346 165.054 3.38057C165.446 3.92646 165.728 4.79818 165.735 5.7684C165.741 6.73862 165.471 7.61529 165.086 8.16514C164.695 8.71752 164.265 8.91621 163.873 8.91883C163.481 8.92146 163.048 8.72855 162.65 8.18144C162.258 7.63555 161.976 6.76383 161.969 5.79361C161.963 4.82339 162.233 3.94672 162.618 3.39688C163.009 2.84449 163.439 2.6458 163.831 2.64318ZM172.618 2.58435C173.009 2.58173 173.442 2.77464 173.84 3.32175C174.233 3.86763 174.515 4.73936 174.522 5.70957C174.528 6.67979 174.258 7.55647 173.872 8.10631C173.482 8.65869 173.051 8.85739 172.66 8.86001C172.268 8.86263 171.835 8.66972 171.437 8.12261C171.044 7.57672 170.762 6.705 170.756 5.73478C170.749 4.76457 171.02 3.88789 171.405 3.33805C171.796 2.78566 172.226 2.58697 172.618 2.58435ZM157.597 8.96085C156.254 8.96985 155.089 9.7408 154.353 10.7875C153.617 11.8343 153.231 13.1824 153.241 14.6384C153.251 16.0943 153.654 17.4384 154.404 18.4752C155.154 19.512 156.329 20.266 157.672 20.257C159.015 20.248 160.18 19.4771 160.916 18.4304C161.652 17.3836 162.038 16.0355 162.028 14.5795C162.018 13.1236 161.615 11.7795 160.865 10.7427C160.115 9.7059 158.94 8.95186 157.597 8.96085ZM178.936 8.81799C177.593 8.82698 176.428 9.59793 175.692 10.6447C174.956 11.6914 174.571 13.0395 174.58 14.4955C174.59 15.9514 174.993 17.2956 175.743 18.3323C176.493 19.3691 177.668 20.1232 179.012 20.1142C180.355 20.1052 181.519 19.3342 182.256 18.2875C182.992 17.2408 183.377 15.8926 183.367 14.4367C183.357 12.9807 182.954 11.6366 182.204 10.5998C181.454 9.56303 180.279 8.809 178.936 8.81799ZM157.614 11.4711C158.005 11.4685 158.438 11.6614 158.836 12.2085C159.229 12.7544 159.511 13.6261 159.517 14.5963C159.524 15.5666 159.254 16.4432 158.868 16.9931C158.478 17.5455 158.047 17.7442 157.656 17.7468C157.264 17.7494 156.831 17.5565 156.433 17.0094C156.04 16.4647 155.758 15.5918 155.752 14.6216C155.745 13.6513 156.015 12.7747 156.401 12.2248C156.791 11.6724 157.222 11.4737 157.614 11.4711ZM178.953 11.3283C179.344 11.3256 179.777 11.5185 180.175 12.0656C180.568 12.6115 180.85 13.4833 180.857 14.4535C180.863 15.4237 180.593 16.3004 180.207 16.8502C179.817 17.4026 179.386 17.6013 178.995 17.6039C178.603 17.6065 178.17 17.4136 177.772 16.8665C177.379 16.3206 177.097 15.4489 177.091 14.4787C177.084 13.5085 177.355 12.6318 177.74 12.082C178.131 11.5296 178.561 11.3309 178.953 11.3283ZM168.3 13.9099C166.627 13.9212 165.467 15.0147 164.899 15.9724C164.336 16.9301 163.99 17.7257 163.658 18.0593C163.467 18.2576 162.259 18.7214 161.001 19.3737C160.371 19.7005 159.738 20.1353 159.206 20.7978C158.671 21.4604 158.313 22.3728 158.32 23.3932C158.336 25.803 160.332 27.7729 162.743 27.7567C163.83 27.7495 164.962 27.3904 166.071 27.0692C167.184 26.7404 168.384 26.4613 168.384 26.4613C168.384 26.4613 169.587 26.7243 170.703 27.0357C171.817 27.342 172.954 27.6859 174.041 27.6786C176.451 27.6624 178.421 25.6661 178.405 23.2562C178.398 22.2596 178.024 21.3509 177.484 20.7143C176.946 20.074 176.301 19.6805 175.672 19.352C174.413 18.6952 173.175 18.1763 172.996 17.9968C172.692 17.7013 172.348 16.884 171.764 15.9289C171.182 14.9701 169.982 13.8987 168.3 13.9099ZM168.317 16.4202C169.145 16.4147 169.238 16.6149 169.615 17.2349C169.996 17.8537 170.284 18.9074 171.202 19.8138C172.244 20.836 173.553 21.0532 174.51 21.5539C174.988 21.8042 175.354 22.0716 175.574 22.3313C175.793 22.5896 175.891 22.8262 175.894 23.2705C175.901 24.3248 175.079 25.1587 174.024 25.1658C173.66 25.1682 172.486 24.9 171.392 24.5935C170.298 24.2908 169.391 23.9416 168.367 23.9485C167.343 23.9553 166.441 24.3166 165.351 24.6339C164.261 24.955 163.091 25.239 162.727 25.2414C161.673 25.2485 160.839 24.4257 160.831 23.3713C160.828 22.8655 160.932 22.605 161.138 22.3476C161.345 22.0914 161.728 21.8365 162.193 21.5962C163.124 21.113 164.423 20.916 165.476 19.8483C166.39 18.9171 166.659 17.8258 167.028 17.2083C167.39 16.5908 167.477 16.4208 168.315 16.4152L168.317 16.4202Z" fill="#B8C4DA"/>
</svg>
